<svg width="311" height="132" viewBox="0 0 311 132" fill="none" xmlns="http://www.w3.org/2000/svg">
<path d="M303.689 94.9757C302.899 94.7922 302.111 94.8007 301.33 95.3848C301.069 95.5795 301.073 95.9632 300.817 96.5417C303.317 97.0907 309.219 96.4517 310.158 98.3608C310.043 99.8973 309.516 99.711 307.157 100.12C307.161 100.504 306.897 100.315 308.61 100.872C309.012 101.636 308.749 101.638 305.467 101.674C303.892 101.69 303.484 100.351 301.779 100.562C300.862 100.763 300.064 99.8123 299.149 100.206C293.361 99.1165 292.183 99.5129 292.163 97.594C292.017 96.2522 296.491 97.1638 297.139 96.3892C296.87 95.8164 296.86 94.8569 295.551 95.2548C292.409 96.0561 293.313 94.703 290.823 95.1135C288.464 95.5226 288.602 96.0969 286.762 95.9247C280.713 95.0299 279.929 95.4221 278.614 95.2443C277.035 94.8774 275.33 95.0876 273.761 95.6801C274.959 97.2026 274.559 96.6311 274.97 98.162C274.315 98.3609 273.661 98.5599 273.004 98.5669C273.007 98.7588 272.877 98.9521 273.273 99.1398C284.592 101.705 279.443 99.0737 283.642 98.8368C285.086 98.8213 286.253 97.4654 286.536 99.3815C286.822 101.489 287.868 101.094 289.968 101.072C294.302 101.217 290.372 102.027 301.008 102.105C302.583 102.088 301.4 101.909 306.138 103.01C306.669 103.58 306.811 104.538 306.95 105.304C306.829 106.265 306.44 106.653 306.048 106.849C301.853 107.47 301.322 106.9 303.958 107.831C304.097 108.597 303.968 108.79 303.705 108.793C301.605 108.816 299.502 108.646 297.525 107.9C295.568 109.072 297.402 108.669 287.823 109.155C288.093 109.92 288.485 109.724 288.75 109.913C292.175 111.028 292.046 111.221 292.18 111.411C285.123 114.558 285.868 110.52 279.714 112.121C279.581 111.93 279.579 111.738 279.446 111.548C279.312 111.357 279.183 111.551 279.056 111.936C279.058 112.128 279.714 112.121 279.714 112.121C279.848 112.311 279.854 112.887 279.985 112.885C292.108 116.978 291.172 115.452 291.591 117.751C288.184 118.363 287.39 117.796 285.69 118.39C282.662 117.655 280.055 119.41 276.888 117.908C276.757 117.91 276.621 117.527 276.617 117.144C278.176 115.592 277.524 115.982 278.964 115.583C275.378 111.783 273.862 117.365 269.795 117.601C267.169 117.629 264.685 118.615 262.056 118.259C260.216 118.087 256.546 118.702 256.152 118.706C254.971 118.719 253.781 117.964 252.739 118.743C251.305 119.718 250.12 119.347 249.213 120.508C248.821 120.704 248.821 120.704 249.211 120.316C250.79 120.683 250.273 121.456 249.777 124.148L249.779 124.34C249.775 123.956 249.512 123.959 251.75 124.511C252.294 126.232 252.157 125.658 252.3 126.808C250.468 127.403 248.758 127.038 246.926 127.633C247.065 128.399 247.059 127.823 250.083 128.175C250.214 128.173 250.349 128.556 250.483 128.746C250.222 128.941 249.962 129.136 249.699 129.139C244.709 129 244.971 128.997 242.731 128.254C236.409 126.402 239.191 128.675 229.845 126.473C229.187 126.288 228.658 125.91 228.252 124.762C230.079 123.783 232.188 124.528 237.562 123.703C237.562 123.703 237.814 122.741 237.421 122.745C236.108 122.759 235.987 123.72 234.534 122.968C232.686 122.028 232.186 124.336 230.332 122.821C230.198 122.631 229.938 122.825 229.806 122.827C228.237 123.419 227.185 123.239 223.117 123.474C222.736 124.63 223.265 125.008 223.534 125.581C223.542 126.348 223.017 126.354 223.025 127.121C223.552 127.308 224.082 127.686 225.136 128.058C216.607 128.534 216.217 128.922 213.448 127.8C208.964 125.929 206.88 127.486 204.373 126.362C201.338 124.859 184.797 125.036 184.271 125.042C183.75 125.431 183.361 125.819 182.836 125.825C179.55 125.476 179.031 126.057 175.611 125.518C169.954 124.427 161.296 125.096 160.25 125.491C160.387 126.065 160.525 126.64 160.664 127.406C155.548 127.844 156.601 128.025 155.405 126.694C151.983 125.963 152.908 126.529 147.263 126.59C146.874 126.978 146.357 127.751 145.832 127.756C144.784 127.96 144.025 130.655 142.55 127.792C141.891 127.607 141.235 127.614 140.576 127.429C140.453 128.198 140.583 128.005 141.247 128.765C140.728 129.346 140.197 128.776 139.805 128.973C139.28 128.978 138.755 128.984 138.228 128.798C137.165 127.657 137.428 127.655 136.655 129.006C134.685 129.027 135.215 129.406 134.673 127.876C134.283 128.264 133.764 128.845 133.246 129.427C132.456 129.243 131.531 128.677 130.62 129.455C123.537 130.106 124.185 129.332 120.909 129.943C120.255 130.142 119.47 130.342 118.807 129.773C118.146 129.396 117.632 130.362 116.973 130.177C116.313 129.8 115.794 130.381 115.137 130.388C114.871 130.007 114.475 129.82 114.208 129.439C113.42 129.447 112.776 130.605 111.726 130.617C110.934 130.241 109.876 129.485 108.699 129.882L108.697 129.69L108.83 129.88C108.832 130.072 108.703 130.265 108.703 130.265C104.385 131.655 101.341 129.385 102.397 129.949C102.014 130.913 101.622 131.109 100.178 131.124C94.9268 131.181 94.7955 131.182 94.2663 130.804C92.9452 130.05 93.095 131.776 91.1156 130.838C88.4777 129.714 88.3649 131.443 87.1793 131.072C86.3896 130.888 84.804 129.946 84.0245 130.722C82.5948 132.08 81.2718 131.135 79.5611 130.769C77.6063 132.134 74.0515 131.212 71.8259 131.812C71.4342 132.008 70.9049 131.63 70.6362 131.057C70.6198 129.522 71.27 128.939 71.7848 127.974C71.5202 127.785 71.3828 127.211 71.1202 127.214C69.0136 126.66 69.0259 127.812 68.4926 127.05C67.9613 126.48 67.8198 125.522 67.8095 124.562C67.8033 123.987 67.9326 123.793 68.4515 123.212C68.8515 123.783 69.2515 124.355 69.6536 125.118C70.4453 125.494 71.0956 124.911 71.475 123.563C71.0873 124.143 72.1149 122.021 73.6985 122.772C74.0944 122.96 74.3611 123.341 74.7508 122.953C74.88 122.759 75.0092 122.566 74.8718 121.992C72.5005 121.25 73.2923 121.625 71.7005 120.107C72.6133 119.521 75.8994 119.87 76.0307 119.868C76.2932 119.865 76.4286 120.248 76.6953 120.629C76.4389 121.207 76.3138 121.784 76.1887 122.361C77.1179 123.311 78.0409 123.685 78.8101 121.95C78.006 120.423 78.2727 120.804 78.1352 120.23C78.2542 119.077 78.9167 119.645 79.3044 119.066C79.2962 118.298 79.4172 117.337 79.4069 116.378C79.1423 116.189 78.8756 115.808 78.7443 115.809C75.5916 115.651 76.5126 115.833 75.606 116.994C75.2183 117.574 74.5619 117.581 74.4224 116.815C73.8829 115.477 73.0912 115.102 72.3035 115.11C73.2163 114.525 73.3496 114.715 73.6019 113.753C73.8542 112.791 72.6624 111.844 72.2685 111.848C68.4574 111.505 68.8553 111.885 67.9425 112.47C64.517 111.356 63.1919 110.218 60.0515 111.212C59.1449 112.373 59.67 112.367 57.8177 111.044C57.2926 111.049 56.7695 111.247 56.2444 111.252C55.4424 109.918 57.0177 109.901 57.672 109.702C57.8033 109.7 57.9305 109.315 58.0597 109.122C56.6095 108.562 56.6095 108.562 54.1214 109.164C54.5214 109.736 55.0506 110.114 54.9275 110.883C54.8045 111.652 54.1481 111.659 53.7542 111.663C50.5995 111.313 51.1266 111.499 52.6917 110.523C52.8127 109.562 52.025 109.57 52.146 108.61L52.1481 108.801C52.4086 108.607 52.8024 108.602 52.7962 108.027C52.6526 106.877 53.1757 106.679 53.4341 106.293C53.4218 105.141 53.5613 105.908 53.272 103.416C52.0782 102.277 39.0878 102.992 36.0767 103.792C33.0655 104.592 28.1979 103.684 26.1119 105.05C24.2719 104.878 22.311 105.667 20.4649 104.919C19.1459 104.357 12.1985 105.391 8.1227 104.859C7.33298 104.676 6.95148 105.831 6.02225 104.882C5.88892 104.691 5.88481 104.307 5.88275 104.115C4.55764 102.978 4.95764 103.55 29.6317 102.71C34.2141 101.509 42.0969 102 43.141 101.413C44.7081 100.629 47.0855 101.947 49.2967 100.004C48.6279 98.8597 49.4197 99.2351 46.5234 98.4985C46.5172 97.9228 46.5111 97.3471 46.5049 96.7714C45.7111 96.2042 44.1419 96.7968 44.0291 98.5252C43.9184 100.445 39.9657 99.1444 38.9093 98.58C39.0447 98.9624 38.7739 98.1976 38.5113 98.2005C33.2458 96.9135 29.4573 98.6813 24.2061 98.7375C24.2061 98.7375 4.51447 98.9485 3.59347 98.7665C3.72269 98.5732 3.71858 98.1894 3.84985 98.188C3.84985 98.188 18.5509 97.8386 21.439 97.8076C24.721 97.7725 22.7436 97.026 25.3691 96.9979C33.1125 96.723 32.4582 96.9219 35.0817 96.7019C36.9175 96.4903 35.5944 95.545 40.4538 95.6848C40.8476 95.6806 41.1081 95.4859 41.6332 95.4803C41.4978 95.0979 41.3645 94.9074 41.2332 94.9088C40.1789 94.5363 38.2035 93.9817 37.1574 94.3767C35.1944 94.9735 34.5298 94.213 33.615 94.6066C30.3474 95.985 27.1721 93.7161 25.3465 94.8871C22.9835 94.9124 20.4995 95.8986 18.1283 95.1563C17.076 94.9757 16.0279 95.1788 14.8464 95.1915C6.57997 95.6639 9.85369 94.8612 8.93886 95.2548C7.50302 96.0378 5.91946 95.2871 4.3503 95.8797C1.96674 93.9861 2.50213 94.9399 1.81285 91.8767C3.89685 90.3191 24.1301 91.6376 28.3166 90.2494C31.0631 89.2604 29.8919 90.2325 34.7451 89.7967C35.0076 89.7939 35.1369 89.6006 35.9122 88.4408C35.385 88.2546 34.8579 88.0683 34.1974 87.6916C33.1204 85.2082 32.983 84.634 32.4558 84.4477C26.7903 82.5893 26.6611 82.7826 27.1656 80.8581C27.9574 81.2334 28.7471 81.4169 29.5389 81.7922C29.8015 81.7894 30.3163 80.8243 29.6558 80.4476C29.3912 80.2585 28.8599 79.6885 27.5451 79.5106C26.099 79.3342 26.343 77.6044 23.7154 77.4406C2.04427 76.7133 3.76938 78.422 2.82783 76.321C3.99494 74.9652 10.1814 76.4342 17.7832 75.2013C17.8939 73.281 15.9351 74.2615 14.7309 72.1634C14.3289 71.4 13.8017 71.2138 13.4017 70.6423C13.2684 70.4518 13.2643 70.0681 13.1309 69.8776C14.1668 68.5231 15.2355 70.2389 16.2878 70.4195C17.9821 69.2499 17.0652 69.4516 20.0887 69.803C20.8825 70.3703 20.3738 71.911 20.9051 72.4811C21.3051 73.0525 20.9216 74.0162 21.1923 74.7809C22.6467 75.7249 22.6467 75.7249 24.7368 74.7429C23.9081 70.9136 24.8393 72.0551 27.59 71.4499C27.8526 71.4471 28.111 71.0605 28.2402 70.8672C28.2176 68.7564 28.4904 69.713 26.8863 67.0435C26.0946 66.6681 25.9797 68.2046 25.1941 68.405C24.6711 68.6025 24.1274 66.8811 23.2106 67.0828C22.8208 67.4708 22.4352 68.2426 21.7788 68.2496C16.9215 68.3017 12.9997 69.879 13.3544 66.2289C13.7113 62.7706 18.0804 66.1782 21.5982 63.6457C23.1797 64.2045 24.8925 64.7619 26.5971 64.5517C27.3827 64.3514 27.237 63.0096 26.9621 61.861C26.0288 60.5277 24.9703 59.7713 23.6617 60.1692C23.5263 59.7868 23.3909 59.4044 23.2534 58.8302C21.2781 58.2756 19.3089 58.2967 17.3439 58.7016C17.0813 58.7044 16.9541 59.0896 16.829 59.6667C16.9583 59.4734 17.0895 59.472 15.2537 59.6835L15.2558 59.8754C14.0434 57.0097 5.41814 60.7485 1.83869 57.5243C2.09302 56.7539 2.09097 56.5621 2.35147 56.3674C10.0886 55.5168 11.1553 57.0407 13.6352 55.6707C13.629 55.0951 13.6249 54.7113 13.4875 54.137C14.3982 53.3596 15.4546 53.924 16.3756 54.1061C17.4258 54.0948 18.353 54.8525 19.153 55.9954C19.8094 55.9884 20.4658 55.9814 21.1242 56.1662C24.9354 56.5092 24.9004 53.2471 26.3589 54.5749C26.4922 54.7653 26.8778 53.9936 26.8758 53.8017C26.8716 53.4179 26.6029 52.845 26.3383 52.656C26.207 52.6574 26.3383 52.656 25.6819 52.663C25.4153 52.282 24.8758 50.9444 23.6943 50.9571C20.5456 51.1827 17.3826 50.0652 14.2402 50.8665C12.9295 51.0724 12.6525 49.732 10.308 51.4843C7.39935 49.5964 4.25279 50.0139 0.841625 50.2424C0.447791 50.2466 0.316513 50.248 -0.616822 48.9146C0.423122 47.9439 1.74618 48.8893 2.65896 48.3038C3.43018 46.7602 2.22606 44.6621 3.92856 44.26C4.45162 44.0625 3.79729 44.2615 7.33768 43.8397C7.97968 42.4894 7.69039 39.9977 6.63812 39.8171C3.87511 39.2709 6.77351 40.1994 -2.82828 38.5751C-3.48673 38.3902 -3.76573 36.8579 -3.24267 36.6604C-2.06734 36.0721 -1.67145 36.2598 0.822829 36.233C0.683328 35.4669 0.160272 35.6644 -0.106395 35.2834C-0.373062 34.9025 -0.377174 34.5187 -0.120786 33.9402C5.90772 32.9161 3.93444 32.5534 8.13533 32.5084C10.1045 32.4873 12.0634 31.5067 14.0264 30.91C17.9503 29.5246 17.1832 31.4519 18.7503 30.6675C20.3174 29.883 20.9985 32.1787 22.6846 30.2415L22.8179 30.432C22.422 30.2443 22.2846 29.67 22.0199 29.481C21.3615 29.2961 19.5318 30.0834 17.1565 28.9573C15.0437 27.8285 13.612 28.9953 12.9453 28.0429C13.5935 27.2683 14.3873 27.8355 15.0417 27.6366C15.696 27.4377 16.2191 27.2402 16.8754 27.2331C17.2364 24.1587 14.7503 24.953 14.2211 24.5748C12.1063 23.2541 10.933 24.0343 7.78438 24.26C6.85104 22.9266 7.51154 23.3033 4.49009 23.1438C3.43987 23.155 3.94648 21.4224 4.33826 21.2263C6.94942 19.8549 5.91976 21.7851 7.07454 19.2779C8.49803 17.3435 21.7879 20.0798 24.518 17.5557C25.1683 16.973 25.5662 17.3525 32.0029 17.6674C34.6306 17.8312 34.6408 18.7906 36.8705 18.5748C42.6406 17.9373 41.7278 18.5228 42.3657 16.7887C45.7542 14.4495 47.4814 16.3501 52.0556 14.382C52.5786 14.1845 53.1037 14.1789 53.6268 13.9813C53.6186 13.2138 53.356 13.2166 53.2247 13.218C47.9633 12.3148 37.4776 13.9624 35.496 12.8322C35.6232 12.447 35.6191 12.0632 35.7504 12.0618C36.6652 11.6682 37.7093 11.0813 38.6303 11.2633C41.1307 11.8123 41.1266 11.4285 51.8873 10.9294C55.3005 10.8928 53.9713 9.37178 57.2594 9.91229C62.3875 10.625 79.5684 8.90563 83.9191 10.5862C84.5775 10.7711 85.3672 10.9545 86.0216 10.7556C86.8072 10.5553 87.599 10.9306 88.6513 11.1113C91.0019 9.93461 91.9147 9.3491 92.9732 10.1054C93.5024 10.4836 94.0172 9.51848 95.3341 9.8882C100.727 10.79 102.29 9.62176 103.079 9.80522C104.794 10.5545 106.361 9.77006 106.626 9.95913C108.084 11.2869 112.127 8.74872 116.876 10.8089C129.557 5.68333 103.192 8.07681 44.3859 9.28256C42.5481 9.30225 37.4364 10.1247 34.9401 9.95949C32.4438 9.79432 23.123 9.89418 19.8514 10.8888C19.5929 11.2754 19.3324 11.4701 19.2032 11.6634C16.6945 10.3469 12.9019 11.7309 10.2681 10.9915C10.3973 10.7982 10.5245 10.413 10.5245 10.413C12.7583 10.581 14.9776 9.40571 17.2094 9.3818C18.5221 9.36774 18.3765 8.02592 21.3979 8.18546C24.5527 8.53548 24.5424 7.57604 30.5833 7.70323C34.1298 7.85715 33.3442 8.05748 35.941 5.3429C37.5163 5.32602 37.1184 4.94646 38.0579 6.85551C43.3131 7.18303 117.339 5.04657 117.339 5.04657C119.309 5.02547 118.64 3.88117 121.791 3.84741C128.223 3.7785 140.695 3.64489 150.672 3.538C151.591 3.52815 152.503 2.94264 153.293 3.12609C154.214 3.30813 155.131 3.1064 155.917 2.90607C157.882 2.5012 157.892 3.46064 159.992 3.43814C176.271 3.26374 175.75 3.65315 175.863 1.92473C175.069 1.35751 174.285 1.74972 173.498 1.75816C170.605 1.40532 172.854 2.91653 168.638 1.61831C168.507 1.61972 168.372 1.23734 168.109 1.24016C168.238 1.04686 168.236 0.854972 168.367 0.853566C176.105 0.00302816 176.644 1.34063 181.37 1.29C186.753 1.23233 186.751 1.04044 187.423 2.56852C190.053 2.92417 188.872 2.93683 190.19 3.49844C193.093 4.81072 192.693 4.23927 196.371 4.39178C198.996 4.36365 198.609 4.94354 200.319 5.30903C201.109 5.49248 201.895 5.29216 202.684 5.47561C206.377 6.97134 207.406 5.0412 213.853 6.31551C214.764 5.5381 215.808 4.95118 216.871 6.09127C216.735 5.7089 217.006 6.47364 217.01 6.85742C217.306 9.92484 223.699 6.21002 226.085 8.29549C227.543 9.62324 229.104 8.26314 231.59 7.46886C232.77 7.26431 235.137 7.62278 234.632 9.5473C233.461 10.5194 232.794 9.56699 225.447 10.0295C225.851 10.9848 225.318 10.2228 234.907 10.6958C245.284 11.1604 245.407 10.3914 248.172 11.1294C248.831 11.3143 246.728 11.1449 256.837 11.0366C269.179 11.0963 272.365 14.3247 284.557 12.6587C285.843 10.1501 285.978 10.5325 288.079 10.51C289.41 12.2229 289.41 12.2229 290.725 12.4008C292.304 12.7677 297.158 12.3318 297.158 12.3318C299.516 11.9227 298.477 12.8934 307.664 12.6031C314.882 12.3339 313.571 12.5398 314.626 12.9123C314.632 13.488 314.638 14.0637 314.376 14.0665C312.673 14.4685 304.142 14.7519 302.046 15.1581C301.783 15.161 301.658 15.738 301.529 15.9313C301.679 17.6569 302.597 17.6471 303.656 18.4034C287.25 18.963 292.235 18.5257 291.862 20.4489C290.559 21.4224 288.844 20.6731 289.275 24.1229C289.671 24.3106 290.069 24.6901 290.465 24.8778C290.873 26.2168 289.427 26.0404 289.045 27.1959C289.968 27.5699 290.762 28.1371 291.431 29.2814C291.966 30.2352 293.017 30.224 293.17 32.3333C293.425 31.563 293.681 30.9845 293.806 30.4074C294.354 32.5126 293.817 31.3669 296.071 33.4537C296.469 33.8333 296.738 34.4061 296.748 35.3656C296.877 35.1723 297.271 35.1681 294.128 35.9694C293.739 36.3574 293.218 36.7468 293.232 38.09C294.559 39.4192 293.903 39.4262 298.102 39.1893C298.364 39.1865 298.494 38.9932 298.883 38.6052C298.742 37.6472 298.602 36.881 298.465 36.3068C298.465 36.3068 304.637 36.4325 305.429 36.8079C305.691 36.8051 305.96 37.3779 305.833 37.7631C305.58 38.7254 305.578 38.5335 302.565 39.1415C301.386 39.346 301.515 39.1527 301.54 41.4554C300.894 42.4219 300.091 41.0871 299.312 41.8631C299.447 42.2455 299.583 42.6279 299.716 42.8183C301.175 44.1461 300.768 42.999 301.181 44.7218C298.568 45.9012 296.574 43.6196 296.467 45.9237C296.486 47.6507 296.486 47.6507 295.575 48.4281C293.314 45.7656 294.106 46.1409 292.272 46.5444C291.77 48.6608 291.778 49.4284 290.463 49.2505C280.468 47.6304 283.869 46.4425 279.288 47.835C279.034 48.6053 279.169 48.9877 279.567 49.3673L279.565 49.1754C278.558 53.2163 279.707 50.1334 282.89 53.1699C283.953 54.31 284.738 54.1097 290.133 55.2033C290.66 55.3896 291.717 55.954 294.213 56.1192C303.273 56.214 303.138 55.8316 303.932 56.3989C303.946 57.7421 296.451 56.6709 292.783 57.4779C292.269 58.4429 292.673 59.3982 292.42 60.3604C292.166 61.1308 291.914 62.0931 291.659 62.8634C292.585 63.4293 292.33 64.1996 292.363 67.2699C292.634 68.0346 292.903 68.6075 293.173 69.3722C292.017 71.6875 292.408 71.4914 294.638 71.2756C295.294 71.2686 295.949 71.0697 296.474 71.064C300.025 71.6017 303.434 71.1814 306.982 71.5272C308.166 71.7064 308.035 71.7078 307.92 73.2444C310.432 74.9446 316.33 73.9219 319.887 75.0353C318.576 75.2412 317.794 75.8253 317.136 75.6405C316.082 75.2679 315.169 75.8535 314.527 77.2037C312.426 77.2262 311.63 76.4671 309.665 76.872C309.403 76.8748 309.14 76.8776 308.876 76.6885C306.89 75.1745 302.962 76.1761 301.643 75.6145C299.928 74.8653 298.228 75.4592 296.519 75.2856C295.336 75.1064 294.029 75.6961 292.856 76.4763C292.595 76.671 292.468 77.0562 292.212 77.6347C294.72 78.9512 294.849 78.7579 293.161 80.5032C293.73 84.5272 293.851 83.5664 302.782 83.8545C303.175 83.8503 303.436 83.6556 303.707 84.4204C303.709 84.6122 303.58 84.8055 303.448 84.8069C296.503 86.0328 297.924 83.9066 293.094 86.4532C292.569 86.4588 291.902 85.5064 291.252 86.0891C290.731 86.4785 290.204 86.2922 289.681 86.4897C289.683 86.6816 289.689 87.2573 289.82 87.2559C293.65 89.3259 293.375 88.1774 295.369 90.4589C294.848 90.8483 294.325 91.0458 293.804 91.4353C294.602 92.3863 295.262 92.763 296.181 92.7532C301.822 92.3089 301.574 93.6549 303.405 93.0596C303.668 93.0568 303.935 93.4377 303.939 93.8215C304.46 93.4321 303.432 95.5542 303.689 94.9757ZM81.7326 14.8317C81.8659 15.0222 81.9993 15.2127 82.1305 15.2113C82.9182 15.2028 82.7787 14.4367 83.0392 14.242C82.7828 14.8204 82.2515 14.2504 81.7326 14.8317ZM58.6926 70.1571C58.4218 69.3924 58.9592 70.5381 59.2218 70.5353C59.4844 70.5324 59.6136 70.3391 59.4782 69.9568C59.3428 69.5744 58.8218 69.9638 58.6926 70.1571ZM266.536 70.809C267.326 70.9925 268.112 70.7922 268.764 70.4014C265.87 69.8566 267.714 70.4126 266.017 71.3903C266.28 71.3875 266.151 71.5808 266.536 70.809ZM177.577 2.67401L177.573 2.29023C178.244 3.62642 179.813 3.03388 180.468 2.83496C179.415 2.65432 178.494 2.47227 177.577 2.67401ZM16.0696 37.7969C15.6737 37.6092 15.4029 36.8445 14.886 37.6177C15.4152 37.9958 15.807 37.7997 16.0696 37.7969C15.965 40.2929 19.6387 40.0616 19.6531 41.4048C19.6634 42.3643 19.9342 43.129 20.4593 43.1234C22.3013 43.4875 24.012 43.853 25.8437 43.2576C25.975 43.2562 26.1022 42.871 26.2314 42.6777C25.0314 40.9634 25.1689 41.5376 25.6857 40.7645C26.3339 39.9899 26.3319 39.798 25.9216 38.2671C19.7371 36.99 18.1577 36.6231 16.0696 37.7969ZM276.693 50.7414L276.696 50.9333C276.16 49.9795 277.335 49.3912 277.194 48.4331C276.269 47.8673 275.473 47.1082 274.679 46.541C273.364 46.3631 271.405 47.3437 269.293 46.2149C268.897 46.0272 265.746 46.0609 263.383 46.0863C263.252 46.0877 263.122 46.281 262.993 46.4743C263.131 47.0485 263.137 47.6242 263.276 48.3903C260.794 49.5684 260.241 46.8876 254.989 46.9438C251.707 46.979 248.298 47.3993 245.004 46.2832C242.641 46.3085 240.278 46.3338 238.05 46.7415C240.549 47.0985 242.514 46.6937 243.176 47.2623C244.5 48.2077 245.416 48.0059 251.457 48.1331C254.083 48.105 252.255 49.0841 256.323 48.8487C259.603 48.6216 259.229 50.5447 262.12 50.7057C262.645 50.7 265.539 51.2448 265.787 49.8987C266.154 47.3999 267.207 47.5806 268.525 48.1422C268.017 49.6829 268.144 49.2977 267.625 49.879C267.496 50.0723 267.233 50.0751 267.239 50.6508C267.765 50.6452 268.292 50.8315 268.948 50.8244C273.018 50.7808 274.622 53.4504 276.693 50.7414ZM127.461 116.439C126.644 113.761 125.623 116.458 123.775 115.519C122.85 114.953 121.931 114.963 121.145 115.163C116.429 116.173 99.9949 114.046 96.5981 115.618C95.031 116.402 88.2107 117.051 96.2166 116.773C106.323 116.473 119.59 117.099 127.461 116.439ZM175.534 69.2891C177.12 70.2317 182.104 69.7945 205.078 69.5484C205.472 69.5441 205.999 69.7304 206.384 68.9586C196.138 68.4927 187.228 70.1234 186.153 67.832C186.278 67.2549 186.272 66.6793 186.397 66.1022C185.205 65.1554 185.864 65.3403 184.295 65.9328C183.903 66.1289 183.374 65.7508 183.117 66.3292C183.123 66.9049 183.128 67.2887 183.134 67.8644C182.744 68.2523 182.486 68.6389 182.092 68.6432C179.339 69.0565 177.362 68.31 175.534 69.2891ZM125.975 14.5496C126.1 13.9725 125.834 13.5916 125.571 13.5944C124.913 13.4095 124.123 13.2261 123.469 13.425C122.291 13.8214 117.818 12.9098 114.804 13.5178C110.612 14.3304 109.422 13.5755 106.938 14.5617C111.547 15.8557 112.322 14.6959 114.435 15.8247C116.15 16.574 118.636 15.7797 122.183 15.9336C123.627 15.9182 124.804 15.5217 125.975 14.5496ZM256.421 21.2124C267.585 21.6685 255.631 21.0289 271.913 21.2383C275.854 21.388 274.27 20.6373 276.629 20.2282C276.892 20.2254 276.892 20.2254 277.277 19.4536C276.883 19.4579 276.488 19.2702 276.225 19.273C261.13 19.6266 261.255 19.0496 256.421 21.2124ZM285.083 61.7824C284.166 61.9842 283.112 61.6116 282.199 62.1971C281.941 62.5837 281.816 63.1608 281.557 63.5474C280.119 64.1385 280.509 63.7505 280.257 64.7128C282.253 67.1863 282.484 64.3051 283.937 65.0572C283.945 65.8248 283.293 66.2156 283.699 67.3627C286.856 67.9046 286.462 67.9088 286.831 65.6019C288.538 65.5836 287.356 65.5963 289.857 66.1452C290.119 66.1424 290.501 64.9869 289.838 64.4182C287.871 64.6312 288.925 65.0037 285.083 61.7824ZM41.1525 62.8605C43.4006 64.3717 45.4928 63.5816 47.7266 63.7496C48.1143 63.1697 48.6353 62.7803 49.023 62.2004C50.7316 62.374 50.2024 61.9959 51.4045 63.9021C52.3255 64.0842 52.3255 64.0842 52.8444 63.5029C52.8403 63.1191 52.8382 62.9272 52.7028 62.5448C52.5531 60.8192 54.4074 62.3346 55.4412 60.7883C53.991 60.2281 52.8115 60.4326 47.8209 60.2942C45.3266 60.3209 44.8262 62.6292 42.0673 62.4668C41.9339 62.2764 41.6755 62.663 41.1525 62.8605ZM281.388 35.5301C282.33 37.6311 283.63 36.4657 284.824 37.6044C285.764 39.5134 285.103 39.1367 287.866 39.6828C288.512 38.7163 289.031 38.135 289.679 37.3604C289.675 36.9767 289.396 35.4444 288.738 35.2595C286.237 34.7105 283.876 34.9278 281.388 35.5301ZM280.719 22.1035C280.325 22.1077 279.942 23.0714 280.081 23.8376C280.225 24.9875 280.223 24.7956 286.789 24.9172C286.92 24.9158 287.049 24.7225 287.31 24.5278C286.754 21.655 287.546 22.0304 280.719 22.1035ZM280.575 82.1733C283.599 82.5248 286.353 82.3033 289.11 82.2738C289.504 82.2696 289.765 82.0749 290.156 81.8788C290.275 80.726 290.009 80.3451 288.825 80.1658C281.078 80.0569 281.867 80.2404 280.575 82.1733ZM277.193 23.8685C276.925 23.2956 276.656 22.7228 276.262 22.727C274.422 22.5548 272.716 22.5731 271.015 23.167C270.623 23.3631 270.496 23.7483 270.373 24.5173C270.252 25.4782 276.676 24.6417 276.676 24.6417C276.808 24.6403 277.066 24.2537 277.193 23.8685ZM61.9199 16.0035C59.0277 15.6507 56.2811 16.6397 53.5243 16.6692C42.8908 16.7831 48.5604 19.0253 61.2697 16.5862C61.5322 16.5834 61.6594 16.1982 61.9199 16.0035ZM60.1939 63.2322C60.196 63.4241 60.198 63.616 60.0688 63.8093C60.4626 63.8051 60.7272 63.9941 61.1211 63.9899C75.8242 63.8324 74.776 64.0355 75.0304 63.2652C75.0304 63.2652 60.719 63.2266 60.1939 63.2322ZM293.956 105.635C296.062 106.188 296.188 105.611 297.111 105.985C298.692 106.544 300.132 106.145 301.572 105.745C301.703 105.744 301.701 105.552 301.83 105.359C299.326 104.426 296.821 103.493 294.196 103.521C293.691 105.446 293.816 104.869 293.956 105.635ZM96.567 14.6728C94.7209 13.9249 94.4665 14.6953 92.0994 14.3368C88.6821 13.9896 88.559 14.7586 86.7129 14.0107C85.9232 13.8272 85.1355 13.8357 84.352 14.2279C84.352 14.2279 84.2228 14.4212 84.2248 14.6131C84.6289 15.5683 84.233 15.3806 95.6522 15.0664C95.9147 15.0636 96.1752 14.8689 96.567 14.6728ZM94.5285 118.519C96.3705 118.883 107.535 119.339 107.919 118.375C105.42 118.018 98.2002 118.096 94.5285 118.519ZM281.493 106.536C278.865 106.372 279.917 106.553 277.804 105.424C277.144 105.048 276.367 106.015 273.331 104.513C272.67 104.136 271.749 103.954 271.101 104.728C271.243 105.686 271.639 105.874 272.032 105.87C273.872 106.042 276.235 106.017 277.29 106.389C279.136 107.137 279.136 107.137 281.493 106.536ZM262.214 59.5326C267.082 60.44 268.261 60.2354 269.301 59.2647C269.034 58.8838 268.899 58.5014 268.636 58.5042C266.792 57.9482 264.957 58.1598 262.992 58.5647C262.598 58.5689 262.337 58.7636 262.214 59.5326ZM211.296 123.025C212.613 123.395 219.725 125.43 221.154 124.071C216.806 122.582 218.91 122.943 211.296 123.025ZM53.1769 70.0243C53.1748 69.8324 53.1707 69.4486 53.1707 69.4486C52.6394 68.8786 51.981 68.6937 51.4559 68.6993C47.257 68.9362 47.7677 67.5874 45.1607 69.3425C45.1607 69.3425 45.0315 69.5358 45.0356 69.9196C47.8006 70.6576 50.42 70.0538 53.1769 70.0243ZM43.3859 50.7461C42.4649 50.5641 41.5419 50.1902 41.0353 51.9228C40.7809 52.6931 40.3809 52.1217 40.3974 53.6568C40.4036 54.2325 42.504 54.21 43.5522 54.0068C43.5254 51.5123 43.5357 52.4717 43.3859 50.7461ZM128.333 63.0779C126.885 62.7096 119.659 62.2113 118.485 62.9915C118.885 63.563 125.058 63.6888 128.333 63.0779ZM49.5472 25.3478C52.702 25.6978 55.986 25.8546 59.1284 25.0533C55.8424 24.7046 52.6917 24.7384 49.5472 25.3478ZM251.056 59.6521C242.91 59.1637 242.91 59.1637 242.129 59.7478C244.235 60.3009 245.811 60.284 251.056 59.6521ZM263.347 104.044C263.483 104.426 263.487 104.81 263.489 105.002C265.6 105.939 267.682 104.189 268.74 104.946C268.871 104.944 268.999 104.559 269.13 104.558C268.997 104.367 268.859 103.793 268.859 103.793C266.629 104.009 266.361 103.436 263.347 104.044ZM204.958 119.639C206.01 119.819 207.062 120 208.111 119.797C209.29 119.592 210.351 120.54 211.53 120.336C212.447 120.134 212.449 120.326 212.182 119.945C209.678 119.012 207.442 118.652 204.958 119.639ZM41.2262 57.4862C41.2303 57.8699 41.1011 58.0632 41.1031 58.2551L41.2385 58.6375C43.5933 57.8446 45.6999 58.3978 47.1398 57.9985C47.2711 57.9971 47.3921 57.0363 46.9962 56.8486C45.0188 56.1022 47.6567 57.2254 41.2262 57.4862ZM156.221 117.09C161.08 117.23 159.242 117.25 163.439 116.821C160.941 116.464 158.58 116.681 156.221 117.09ZM24.7459 26.5731C23.1583 25.4386 22.227 24.2971 20.7912 25.0802C20.3994 25.2763 20.143 25.8548 20.1492 26.4304C20.1574 27.198 20.2887 27.1966 23.9624 26.9653C24.2249 26.9625 24.3542 26.7692 24.7459 26.5731ZM175.962 121.484C174.385 121.309 171.624 120.955 169.915 120.782C169.39 120.787 168.104 123.296 175.962 121.484ZM279.507 92.7399C280.959 93.492 280.303 93.499 284.508 93.8378C285.033 93.8322 285.156 93.0632 285.152 92.6794C284.231 92.4974 284.489 92.1108 280.684 92.3435C280.553 92.3449 280.161 92.541 279.507 92.7399ZM125.127 119.15C118.563 119.221 119.348 119.02 119.354 119.596C122.505 119.562 123.964 120.89 125.127 119.15ZM24.8302 34.4405C24.301 34.0624 25.22 34.0525 19.8335 33.7264C17.7309 33.557 18.5351 35.0837 18.5351 35.0837C19.8499 35.2615 23.1298 35.0345 24.8302 34.4405ZM139.928 115.921C139.261 114.969 139.399 115.543 133.493 115.798C134.548 116.171 139.017 116.699 139.928 115.921ZM94.466 75.915C92.4947 75.7442 90.5214 75.3815 88.5605 76.1702C90.5338 76.5329 92.503 76.5118 94.466 75.915ZM247.396 36.662C247.687 39.3456 249.381 38.176 250.821 37.7767C251.084 37.7739 250.811 36.8173 250.678 36.6268C249.494 36.4476 248.444 36.4588 247.396 36.662ZM266.008 94.9955C263.107 93.8751 261.298 96.5813 262.346 96.3781C263.528 96.3655 264.709 96.3528 266.008 94.9955ZM48.8535 95.4029C48.0556 94.4519 47.2699 94.6522 46.6094 94.2755C45.0444 95.2518 45.6987 95.0529 43.9942 95.2631C45.5716 95.4381 47.1592 96.5725 48.8535 95.4029ZM26.0608 26.7509C27.3715 26.545 28.951 26.9119 28.0032 24.2353C26.953 24.2465 27.6053 23.8557 26.0608 26.7509ZM80.5511 14.8444C73.9851 14.7228 73.9913 15.2985 79.6383 15.4299C79.7696 15.4285 80.0301 15.2338 80.5511 14.8444ZM165.953 69.5837C166.486 70.3456 167.005 69.7643 167.53 69.7587C168.189 69.9436 168.974 69.7432 169.631 69.7362C170.024 69.732 169.891 69.5415 170.15 69.1549C167.255 68.6102 167.124 68.6116 165.953 69.5837ZM65.1557 60.6842C67.0019 61.4321 67.0019 61.4321 68.9628 60.6434C68.8295 60.4529 68.6961 60.2624 68.4336 60.2653C65.0204 60.3018 65.5455 60.2962 65.1557 60.6842ZM41.5295 49.0388C42.9777 49.4071 42.9777 49.4071 43.7592 48.823C43.2238 47.8692 42.5654 47.6843 41.7818 48.0766C41.6505 48.078 41.6567 48.6536 41.5295 49.0388ZM117.775 119.229C116.458 118.859 115.406 118.679 114.101 119.46C115.418 119.83 116.47 120.011 117.775 119.229ZM251.826 21.2616C250.776 21.2729 249.851 20.707 248.938 21.2925C249.857 21.2827 250.776 21.2729 251.826 21.2616ZM168.132 113.7C168.005 114.085 167.74 113.896 171.285 113.858C171.281 113.474 171.545 113.663 168.132 113.7ZM137.583 7.32454C137.716 7.51502 137.454 7.51783 139.948 7.49111C139.946 7.29922 140.34 7.295 137.583 7.32454ZM206.918 8.50083C207.71 8.87617 208.627 8.67444 209.415 8.666C209.281 8.47551 209.544 8.4727 206.918 8.50083ZM36.8564 29.5139C37.7795 29.8879 38.5692 30.0713 39.484 29.6777C39.6153 29.6763 39.6112 29.2925 39.7404 29.0992C39.8676 28.714 38.5507 28.3443 37.2441 28.934C37.1128 28.9354 36.9836 29.1287 36.8564 29.5139ZM47.1745 48.9783C47.0309 47.8284 46.8975 47.6379 46.3704 47.4517C46.1078 47.4545 45.8453 47.4573 45.7202 48.0344C45.4658 48.8047 46.5263 49.7529 47.1745 48.9783ZM290.392 91.6637C291.324 92.8052 293.168 93.3612 292.885 91.4451C292.093 91.0698 291.305 91.0782 290.392 91.6637ZM248.823 96.3311C250.271 96.6994 250.271 96.6994 250.656 95.9277C249.206 95.3675 248.939 94.9865 248.683 95.565C248.683 95.565 248.819 95.9473 248.823 96.3311ZM54.0638 103.791C54.07 104.367 53.8074 104.37 54.9951 104.933C55.5222 105.119 56.1786 105.112 56.2996 104.151C56.1642 103.769 56.5581 103.764 54.0638 103.791ZM134.581 119.241C135.5 119.231 136.287 119.223 137.206 119.213C136.416 119.029 135.629 119.038 134.841 119.046C134.71 119.048 134.71 119.048 134.581 119.241ZM219.407 120.251C221.522 121.572 221.259 121.575 221.649 121.187C220.98 120.043 220.98 120.043 219.407 120.251ZM180.33 63.4804C181.117 63.472 181.778 63.8487 182.559 63.2646C181.768 62.8893 181.111 62.8963 180.33 63.4804ZM294.976 41.5257C297.341 41.6923 296.949 41.8884 297.205 41.3099C296.414 40.9346 295.624 40.7512 294.976 41.5257ZM186.943 6.79572C187.602 6.98057 188.269 7.93299 188.781 6.77603C188.125 6.78306 187.469 6.79009 186.943 6.79572ZM141.536 118.975C140.878 118.79 139.69 118.227 139.175 119.192C139.971 119.951 140.623 119.56 141.536 118.975ZM112.655 119.284C112.651 118.9 112.916 119.089 111.078 119.109C111.213 119.491 110.949 119.302 112.655 119.284ZM218.102 10.684C218.756 10.485 219.287 11.0551 219.935 10.2805C219.41 10.2861 218.883 10.0998 218.102 10.684ZM81.9279 118.846C82.453 118.84 83.2448 119.215 83.5012 118.637C82.974 118.451 82.4468 118.264 81.9279 118.846ZM149.018 69.7651C149.016 69.5733 149.147 69.5718 147.441 69.5901C147.443 69.782 147.311 69.7834 149.018 69.7651ZM130.739 116.02C130.078 115.643 129.555 115.84 129.163 116.037C129.69 116.223 130.088 116.602 130.739 116.02ZM233.462 59.6487C233.464 59.8406 233.333 59.842 234.908 59.8251C235.038 59.6318 235.169 59.6304 233.462 59.6487ZM76.0518 60.5675C75.1267 60.0016 75.1267 60.0016 74.3452 60.5857C74.8765 61.1558 75.5349 61.3406 76.0518 60.5675ZM143.632 8.21929C143.093 6.88169 142.713 8.22913 142.846 8.41962C143.374 8.60588 143.372 8.41399 143.632 8.21929ZM263.426 37.8336C263.159 37.4526 262.763 37.265 262.376 37.8449C262.77 37.8406 263.163 37.8364 263.426 37.8336ZM261.029 71.4438C261.821 71.8191 261.821 71.8191 262.208 71.2392C261.812 71.0516 261.414 70.672 261.029 71.4438ZM52.1316 21.4819C51.8629 20.909 51.467 20.7214 50.9481 21.3027C51.4752 21.4889 51.8691 21.4847 52.1316 21.4819ZM13.1465 34.5657C13.1444 34.3738 13.007 33.7996 12.4819 33.8052C11.8234 33.6203 11.965 34.5784 12.3588 34.5742C12.6214 34.5713 12.8839 34.5685 13.1465 34.5657ZM88.1294 60.4381C89.315 60.8092 88.9212 60.8134 89.5734 60.4226C89.0422 59.8526 89.436 59.8483 88.1294 60.4381ZM81.5634 60.3165C80.907 60.3235 80.6445 60.3263 80.6465 60.5182C80.6486 60.7101 80.6506 60.902 80.7819 60.9006C81.0506 61.4735 81.0506 61.4735 81.5634 60.3165ZM268.919 35.8556C269.315 36.0433 269.711 36.231 270.1 35.843C269.703 35.4634 269.309 35.4676 268.919 35.8556ZM132.741 119.069C132.082 118.884 132.345 118.881 132.216 119.074C132.347 119.073 132.609 119.07 132.741 119.069ZM212.012 116.3C211.745 115.919 211.483 115.922 211.093 116.31C211.362 116.883 211.756 116.879 212.012 116.3ZM167.377 116.779C166.852 116.784 166.852 116.784 166.854 116.976C167.511 116.969 167.38 116.971 167.377 116.779ZM290.569 83.6016C290.437 83.603 290.171 83.222 290.046 83.7991C290.573 83.9853 290.573 83.9853 290.569 83.6016ZM40.6646 78.6024C41.1939 78.9806 41.0626 78.982 41.4502 78.4021C41.1877 78.4049 41.319 78.4035 40.6646 78.6024ZM98.5376 76.0633C99.0668 76.4415 98.9356 76.4429 99.194 76.0563C99.0607 75.8658 99.1899 75.6725 98.5376 76.0633ZM155.647 63.553C155.779 63.5515 155.91 63.5501 155.647 63.553C155.779 63.5515 155.91 63.5501 155.647 63.553ZM152.89 63.5825C153.022 63.5811 153.153 63.5797 152.89 63.5825C153.022 63.5811 153.153 63.5797 152.89 63.5825ZM88.4248 63.5055C88.1582 63.1245 87.8956 63.1273 87.6372 63.5139C88.031 63.5097 88.1623 63.5083 88.4248 63.5055ZM57.0145 60.5795C57.0165 60.7714 56.8832 60.5809 57.5396 60.5739C57.5396 60.5739 57.5396 60.5739 57.0145 60.5795ZM64.1537 16.1715C63.4952 15.9866 63.6265 15.9852 63.364 15.988C63.6306 16.369 63.764 16.5595 64.1537 16.1715ZM257.375 36.747C257.112 36.7498 257.243 36.7484 257.375 36.747C257.112 36.7498 257.243 36.7484 257.375 36.747ZM35.1988 21.8552C35.2009 22.0471 35.0696 22.0485 35.0717 22.2404C34.9589 23.9688 35.605 23.0023 35.1988 21.8552ZM244.658 50.7008C243.999 50.516 244.262 50.5132 244.001 50.7079C244.264 50.7051 244.526 50.7022 244.658 50.7008ZM246.758 50.6783C246.495 50.6811 246.627 50.6797 246.758 50.6783C246.495 50.6811 246.627 50.6797 246.758 50.6783ZM136.01 7.53331C135.747 7.53612 135.747 7.53612 136.01 7.53331V7.53331ZM55.9836 13.3804C55.719 13.1913 55.8503 13.1899 55.8523 13.3818L55.9836 13.3804ZM70.4447 15.1445C70.3135 15.146 70.3135 15.146 70.4447 15.1445V15.1445ZM220.364 13.5384C220.627 13.5356 220.627 13.5356 220.364 13.5384V13.5384ZM32.2288 26.4929L32.2267 26.301C31.9642 26.3038 31.9662 26.4957 32.0996 26.6862C32.0996 26.6862 32.0975 26.4943 32.2288 26.4929ZM14.4572 34.3598C14.1967 34.5545 14.1967 34.5545 14.4593 34.5517L14.4572 34.3598ZM50.1956 36.8555C49.9331 36.8584 49.9351 37.0503 50.0685 37.2407C50.0685 37.2407 50.1998 37.2393 50.331 37.2379C50.329 37.046 50.329 37.046 50.1956 36.8555ZM52.1648 36.8345L52.1669 37.0263C52.4315 37.2154 52.6899 36.8288 52.294 36.6412C52.2961 36.8331 52.2961 36.833 52.1648 36.8345ZM278.634 35.7516C278.894 35.5569 278.896 35.7488 278.634 35.7516V35.7516ZM255.408 36.96C255.408 36.96 255.406 36.7681 255.274 36.7695C255.012 36.7723 255.014 36.9642 255.145 36.9628C255.276 36.9614 255.408 36.96 255.408 36.96ZM259.356 37.8772C259.092 37.6881 259.092 37.6881 259.094 37.88L259.356 37.8772ZM279.571 37.4687C279.836 37.6578 279.836 37.6578 279.834 37.4659L279.571 37.4687ZM288.728 46.5824C288.726 46.3905 288.724 46.1986 288.461 46.2014L288.332 46.3947C288.463 46.3933 288.595 46.3919 288.728 46.5824ZM78.8086 60.5379C78.544 60.3489 78.6753 60.3474 78.4148 60.5421C78.6794 60.7312 78.5481 60.7326 78.8086 60.5379ZM54.8156 63.6736C55.0782 63.6708 55.0761 63.479 54.8136 63.4818C54.8136 63.4818 54.6823 63.4832 54.551 63.4846C54.6843 63.6751 54.6844 63.6751 54.8156 63.6736ZM149.475 63.4272C149.477 63.6191 149.477 63.6191 149.74 63.6162L149.475 63.4272ZM186.366 63.2238C186.366 63.2238 186.364 63.032 186.233 63.0334C185.97 63.0362 185.973 63.2281 186.106 63.4186C186.237 63.4171 186.368 63.4157 186.366 63.2238ZM286.234 71.1737C285.97 70.9847 285.97 70.9847 285.972 71.1766L286.234 71.1737ZM96.4351 75.8939C96.5726 76.4682 97.0915 75.8869 96.6977 75.8911C96.5664 75.8925 96.5664 75.8925 96.4351 75.8939ZM290.378 78.0382C290.776 78.4177 290.77 77.8421 290.507 77.8449L290.378 78.0382ZM136.319 85.446C136.057 85.4488 136.057 85.4488 136.19 85.6393C136.19 85.6393 136.321 85.6379 136.319 85.446ZM38.4065 88.4141C38.146 88.6088 38.1439 88.4169 38.4085 88.606L38.4065 88.4141ZM258.439 87.0164C258.574 87.3987 258.443 87.4001 258.703 87.2054C258.699 86.8217 258.832 87.0121 258.439 87.0164ZM267.441 94.0206C267.439 93.8287 267.439 93.8287 267.177 93.8316L267.441 94.0206ZM271.125 94.7488C270.863 94.7516 270.865 94.9435 270.998 95.134C270.998 95.134 271.13 95.1326 271.261 95.1312C271.259 94.9393 271.125 94.7488 271.125 94.7488ZM58.8594 97.9825C58.8615 98.1744 58.8615 98.1744 58.9927 98.1729L58.8594 97.9825ZM284.816 110.339C284.82 110.723 284.686 110.532 285.08 110.528L284.816 110.339ZM79.5382 116.376C79.7946 115.798 79.3987 115.61 79.4048 116.186C79.2756 116.379 79.4069 116.378 79.5382 116.376ZM208.205 116.341C207.94 116.152 207.94 116.152 207.944 116.536C208.207 116.533 208.076 116.535 208.205 116.341ZM245.935 120.927C246.196 120.732 246.198 120.924 245.935 120.927V120.927ZM209.721 123.042C209.725 123.426 209.592 123.235 209.986 123.231L209.721 123.042ZM96.7461 129.434C96.8795 129.624 96.8795 129.624 96.8774 129.432L96.7461 129.434ZM239.886 120.032C239.753 119.841 239.753 119.841 239.755 120.033L239.886 120.032ZM282.035 71.4106C282.163 71.0255 282.165 71.2174 282.031 71.0269L282.035 71.4106ZM292.381 32.1499C292.254 32.5351 292.252 32.3432 292.514 32.3404L292.381 32.1499ZM36.2532 22.2278C36.126 22.6129 36.124 22.421 36.2552 22.4196L36.2532 22.2278Z" fill="#ECB942"/>
</svg>
