<svg width="243" height="33" viewBox="0 0 243 33" fill="none" xmlns="http://www.w3.org/2000/svg">
<path d="M181.913 22.4462C186.213 22.2413 186.013 22.9584 187.413 22.651C187.613 22.651 187.813 22.8559 187.813 23.0608C188.013 22.7535 187.313 23.7779 187.413 23.573C186.813 23.4706 186.213 23.4706 185.613 23.7779C185.413 23.8803 185.413 24.0852 185.213 24.3925C187.113 24.6998 191.613 24.3925 192.313 25.4169C192.213 26.2364 191.813 26.134 190.013 26.3388C190.013 26.5437 189.813 26.4413 191.113 26.7486C191.413 27.1584 191.213 27.1584 188.713 27.1584C187.513 27.1584 187.213 26.4413 185.913 26.5437C185.213 26.6462 184.613 26.134 183.913 26.3388L181.913 22.4462ZM187.113 17.8364C187.413 17.8364 187.613 17.734 187.813 18.1437C187.813 18.2462 187.713 18.3486 187.613 18.3486L187.113 17.8364ZM182.413 11.0754C185.113 11.3828 187.713 11.1779 190.413 11.3828C191.313 11.4852 191.213 11.4852 191.113 12.3047C193.013 13.2267 197.513 12.7145 200.213 13.3291C199.213 13.4315 198.613 13.7389 198.113 13.6364C197.313 13.4315 196.613 13.7389 196.113 14.4559C194.513 14.4559 193.913 14.0462 192.413 14.251C192.213 14.251 192.013 14.251 191.813 14.1486C190.313 13.3291 187.313 13.8413 186.313 13.534C185.013 13.1242 183.713 13.4315 182.413 13.3291V11.0754ZM22.6128 28.4901C22.7128 28.5925 23.0128 28.1827 23.0128 28.0803C23.0128 27.8754 22.8128 27.5681 22.6128 27.4657C22.5128 27.4657 22.6128 27.4657 22.1128 27.4657C21.9128 27.2608 21.5128 26.5437 20.6128 26.5437C18.2128 26.6462 15.8128 26.0315 13.4128 26.4413C12.4128 26.5437 12.2128 25.8266 10.4128 26.7486C8.21279 25.7242 5.81279 25.9291 3.21279 26.0315C2.91279 26.0315 2.81279 26.0315 2.11279 25.3145C2.91279 24.8023 3.91279 25.3145 4.61279 25.0071C5.21279 24.1876 4.31279 23.0608 5.61279 22.8559C6.01279 22.7535 5.51279 22.8559 8.21279 22.651C8.71279 21.934 8.51279 20.6023 7.71279 20.4998C5.61279 20.1925 7.81279 20.7047 0.512789 19.7828C0.0127891 19.6803 -0.187211 18.8608 0.212789 18.7584C1.11279 18.451 1.41279 18.5535 3.31279 18.5535C3.21279 18.1437 2.81279 18.2462 2.61279 18.0413C2.41279 17.8364 2.41279 17.6315 2.61279 17.3242C7.21279 16.812 5.71279 16.6071 8.91279 16.6071C10.4128 16.6071 11.9128 16.0949 13.4128 15.7876C16.4128 15.0706 15.8128 16.095 17.0128 15.6852C18.2128 15.2754 18.7128 16.5047 20.0128 15.4803L20.1128 15.5828C19.8128 15.4803 19.7128 15.173 19.5128 15.0706C19.0128 14.9681 17.6128 15.3779 15.8128 14.7632C14.2128 14.1486 13.1128 14.7632 12.6128 14.251C13.1128 13.8413 13.7128 14.1486 14.2128 14.0462C14.7128 13.9437 15.1128 13.8413 15.6128 13.8413C15.9128 12.2023 14.0128 12.612 13.6128 12.4071C12.0128 11.6901 11.1128 12.0998 8.71279 12.2023C8.01279 11.4852 8.51279 11.6901 6.21279 11.5876C5.41279 11.5876 5.81279 10.6657 6.11279 10.5632C8.11279 9.84617 7.31279 10.8706 8.21279 9.53886C9.31279 8.51447 19.4128 10.0511 21.5128 8.71935C22.0128 8.41203 22.3128 8.61691 27.2128 8.82178C29.2128 8.92422 29.2128 9.43642 30.9128 9.33398C35.3128 9.02666 34.6128 9.33398 35.1128 8.41203C37.7128 7.18276 39.0128 8.20715 42.5128 7.18276C42.9128 7.08032 43.3128 7.08032 43.7128 6.97788C43.7128 6.56813 43.5128 6.56813 43.4128 6.56813C39.6128 6.26081 31.6128 7.08032 30.1128 6.46569C30.2128 6.26081 30.2128 6.05593 30.3128 6.05593C31.0128 5.85105 31.8128 5.54374 32.5128 5.64618C34.4128 5.95349 34.4128 5.74862 42.6128 5.54374C45.2128 5.54374 44.2128 4.72423 46.7128 5.03154C50.6128 5.4413 63.7128 4.62179 67.0128 5.54374C67.5128 5.64618 68.1128 5.74862 68.6128 5.64618C69.2128 5.54374 69.8128 5.74862 70.6128 5.85105C72.4128 5.23642 73.1128 4.9291 73.9128 5.33886C74.3128 5.54374 74.7128 5.03154 75.7128 5.23642C79.8128 5.74862 81.0128 5.13398 81.6128 5.23642C82.9128 5.64618 84.1128 5.23642 84.3128 5.33886C85.4128 6.05593 88.5128 4.72423 92.1128 5.85105C101.813 3.18764 81.7128 4.31447 36.9128 4.62179C35.5128 4.62179 31.6128 5.03154 29.7128 4.9291C27.8128 4.82666 20.7128 4.82667 18.2128 5.33886C18.0128 5.54374 17.8128 5.64618 17.7128 5.74862C15.8128 5.03154 12.9128 5.74862 10.9128 5.33886C11.0128 5.23642 11.1128 5.03154 11.1128 5.03154C12.8128 5.13398 14.5128 4.51935 16.2128 4.51935C17.2128 4.51935 17.1128 3.80228 19.4128 3.90471C21.8128 4.10959 21.8128 3.5974 26.4128 3.69984C29.1128 3.80228 28.5128 3.90471 30.5128 2.47057C31.7128 2.47057 31.4128 2.26569 32.1128 3.29008C36.1128 3.49496 92.5128 2.77789 92.5128 2.77789C94.0128 2.77789 93.5128 2.16325 95.9128 2.16325C100.813 2.16325 110.313 2.16325 117.913 2.16325C118.613 2.16325 119.313 1.85594 119.913 1.95837C120.613 2.06081 121.313 1.95837 121.913 1.85594C123.413 1.65106 123.413 2.16325 125.013 2.16325C137.413 2.16325 137.013 2.36813 137.113 1.44618C136.513 1.13886 135.913 1.34374 135.313 1.34374C133.113 1.13886 134.813 1.95837 131.613 1.2413C131.513 1.2413 131.413 1.03642 131.213 1.03642C131.313 0.933985 131.313 0.831546 131.413 0.831546C137.313 0.42179 137.713 1.13886 141.313 1.13886C145.413 1.13886 145.413 1.03642 145.913 1.85594C147.913 2.06081 147.013 2.06081 148.013 2.36813C150.213 3.0852 149.913 2.77789 152.713 2.88032C154.713 2.88032 154.413 3.18764 155.713 3.39252C156.313 3.49496 156.913 3.39252 157.513 3.49496C160.313 4.31447 161.113 3.29008 166.013 4.00715C166.713 3.5974 167.513 3.29008 168.313 3.90471C168.213 3.69984 168.413 4.10959 168.413 4.31447C168.613 5.95349 173.513 4.00715 175.313 5.13398C176.413 5.85105 177.613 5.13398 179.513 4.72423C180.413 4.62179 182.213 4.82667 181.813 5.85105C180.913 6.36325 180.413 5.85105 174.813 6.05593C175.113 6.56813 174.713 6.15837 182.013 6.46569C189.913 6.77301 190.013 6.36325 192.113 6.77301C192.613 6.87544 191.013 6.77301 198.713 6.77301C208.113 6.87544 210.513 8.61691 219.813 7.79739C220.813 6.46569 220.913 6.67057 222.513 6.67057C223.513 7.59252 223.513 7.59252 224.513 7.69496C225.713 7.89983 229.413 7.69496 229.413 7.69496C231.213 7.49008 230.413 8.00227 237.413 7.89983C242.913 7.79739 241.913 7.89983 242.713 8.10471C242.713 8.41203 242.713 8.71935 242.513 8.71935C241.213 8.92422 234.713 9.02666 233.113 9.23154C232.913 9.23154 232.813 9.53886 232.713 9.6413C232.813 10.5632 233.513 10.5632 234.313 10.973C221.813 11.1779 225.613 10.973 225.313 11.9974C224.313 12.5096 223.013 12.0998 223.313 13.9437C223.613 14.0462 223.913 14.251 224.213 14.3535C224.513 15.0706 223.413 14.9681 223.113 15.5828C223.813 15.7876 224.413 16.095 224.913 16.7096C225.313 17.2218 226.113 17.2218 226.213 18.3486C226.413 17.9388 226.613 17.6315 226.713 17.3242C227.113 18.451 226.713 17.8364 228.413 18.9632C228.713 19.1681 228.913 19.4754 228.913 19.9876C229.013 19.8852 229.313 19.8852 226.913 20.2949C226.613 20.4998 226.213 20.7047 226.213 21.4218C227.213 22.1388 226.713 22.1388 229.913 22.0364C230.113 22.0364 230.213 21.934 230.513 21.7291C230.413 21.2169 230.313 20.8071 230.213 20.4998C230.213 20.4998 234.913 20.6023 235.513 20.8071C235.713 20.8071 235.913 21.1145 235.813 21.3193C235.613 21.8315 235.613 21.7291 233.313 22.0364C232.413 22.1388 232.513 22.0364 232.513 23.2657C232.013 23.7779 231.413 23.0608 230.813 23.4706C230.913 23.6754 231.013 23.8803 231.113 23.9827C232.213 24.6998 231.913 24.0852 232.213 25.0071C230.213 25.6218 228.713 24.3925 228.613 25.6218C228.613 26.5437 228.613 26.5437 227.913 26.9535C226.213 25.5193 226.813 25.7242 225.413 25.9291C225.013 27.0559 225.013 27.4657 224.013 27.3632C216.413 26.4413 219.013 25.8266 215.513 26.5437C215.313 26.9535 215.413 27.1584 215.713 27.3632V27.2608L22.6128 28.4901ZM15.5128 31.3584C15.6128 31.2559 15.7128 31.2559 14.3128 31.3584V31.4608C13.4128 29.9242 6.81279 31.8705 4.11279 30.1291C4.31279 29.7193 4.31279 29.6169 4.51279 29.5145C10.4128 29.1047 11.2128 29.9242 13.1128 29.2071C13.1128 28.8998 13.1128 28.6949 13.0128 28.3876C13.7128 27.9779 14.5128 28.2852 15.2128 28.3876L15.5128 31.3584ZM185.313 27.3632C186.513 27.3632 185.613 27.2608 189.213 27.8754C189.613 28.1827 189.713 28.6949 189.813 29.1047C189.713 29.6169 189.413 29.8218 189.113 29.9242C185.913 30.2315 185.513 29.9242 187.513 30.4364C187.613 30.8462 187.513 30.9486 187.313 30.9486C185.713 30.9486 184.113 30.8462 182.613 30.4364C181.113 31.051 182.513 30.8462 175.213 31.051C175.413 31.4608 175.713 31.3584 175.913 31.4608C178.513 32.0754 178.413 32.1779 178.513 32.2803L185.313 27.3632ZM65.3128 7.79739C65.4128 7.89983 65.5128 8.00227 65.6128 8.00227C66.2128 8.00227 66.1128 7.59252 66.3128 7.49008C66.1128 7.79739 65.7128 7.49008 65.3128 7.79739ZM138.413 1.85594V1.65106C138.913 2.36813 140.113 2.06081 140.613 1.95837C139.813 1.85594 139.113 1.7535 138.413 1.85594ZM15.1128 19.6803C14.8128 19.5779 14.6128 19.1681 14.2128 19.5779C14.6128 19.7828 14.9128 19.6803 15.1128 19.6803C15.0128 21.012 17.8128 20.9096 17.8128 21.6267C17.8128 22.1388 18.0128 22.5486 18.4128 22.5486C19.8128 22.7535 21.1128 22.9584 22.5128 22.651C22.6128 22.651 22.7128 22.4462 22.8128 22.3437C21.9128 21.4218 22.0128 21.7291 22.4128 21.3193C22.9128 20.9096 22.9128 20.8071 22.6128 19.9876C17.9128 19.2706 16.7128 19.0657 15.1128 19.6803ZM213.513 28.0803V28.1827C213.113 27.6705 214.013 27.3632 213.913 26.851C213.213 26.5437 212.613 26.134 212.013 25.8267C211.013 25.7242 209.513 26.2364 207.913 25.6218C207.613 25.5193 205.213 25.5193 203.413 25.5193C203.313 25.5193 203.213 25.6218 203.113 25.7242C203.213 26.0315 203.213 26.3388 203.313 26.7486C201.413 27.3632 201.013 25.9291 197.013 25.9291C194.513 25.9291 191.913 26.134 189.413 25.5193C187.613 25.5193 185.813 25.5193 184.113 25.7242C186.013 25.9291 187.513 25.7242 188.013 26.0315C189.013 26.5437 189.713 26.4413 194.313 26.5437C196.313 26.5437 194.913 27.0559 198.013 26.9535C200.513 26.851 200.213 27.8754 202.413 27.9779C202.813 27.9779 205.013 28.2852 205.213 27.5681C205.513 26.2364 206.313 26.3388 207.313 26.6462C206.913 27.4657 207.013 27.2608 206.613 27.5681C206.513 27.6705 206.313 27.6706 206.313 27.9779C206.713 27.9779 207.113 28.0803 207.613 28.0803C210.713 28.0803 211.913 29.5145 213.513 28.0803ZM99.0128 7.89983C99.1128 7.59252 98.9128 7.38764 98.7128 7.38764C98.2128 7.2852 97.6128 7.18276 97.1128 7.2852C96.2128 7.49008 92.8128 6.97788 90.5128 7.2852C87.3128 7.69496 86.4128 7.2852 84.5128 7.79739C88.0128 8.51447 88.6128 7.89983 90.2128 8.51447C91.5128 8.92422 93.4128 8.51447 96.1128 8.61691C97.2128 8.61691 98.1128 8.41203 99.0128 7.89983ZM198.313 12.2023C206.813 12.5096 197.713 12.0998 210.113 12.3047C213.113 12.4071 211.913 11.9974 213.713 11.7925C213.913 11.7925 213.913 11.7925 214.213 11.3828C213.913 11.3828 213.613 11.2803 213.413 11.2803C201.913 11.3828 202.013 11.0754 198.313 12.2023ZM217.213 19.9876C217.913 21.1145 218.913 20.4998 219.813 21.1145C220.513 22.1388 220.013 21.934 222.113 22.2413C222.613 21.7291 223.013 21.4218 223.513 21.012C223.513 20.8071 223.313 19.9876 222.813 19.8852C220.913 19.5779 219.113 19.6803 217.213 19.9876ZM216.813 12.8169C216.513 12.8169 216.213 13.3291 216.313 13.7389C216.413 14.3535 216.413 14.251 221.413 14.3535C221.513 14.3535 221.613 14.251 221.813 14.1486C221.413 12.612 222.013 12.8169 216.813 12.8169ZM214.113 13.7389C213.913 13.4315 213.713 13.1242 213.413 13.1242C212.013 13.0218 210.713 13.0218 209.413 13.3291C209.113 13.4315 209.013 13.6364 208.913 14.0462C208.813 14.5584 213.713 14.1486 213.713 14.1486C213.813 14.1486 214.013 13.9437 214.113 13.7389ZM50.2128 8.30959C48.0128 8.10471 45.9128 8.61691 43.8128 8.61691C35.7128 8.61691 40.0128 9.84617 49.7128 8.61691C49.9128 8.61691 50.0128 8.41203 50.2128 8.30959ZM180.013 29.3096C181.613 29.6169 181.713 29.3096 182.413 29.5145C183.613 29.8218 184.713 29.6169 185.813 29.412C185.913 29.412 185.913 29.3096 186.013 29.2071L180.013 29.3096ZM76.6128 7.79739C75.2128 7.38764 75.0128 7.79739 73.2128 7.59252C70.6128 7.38764 70.5128 7.79739 69.1128 7.38764C68.5128 7.2852 67.9128 7.2852 67.3128 7.49008C67.3128 7.49008 67.2128 7.59252 67.2128 7.69496C67.5128 8.20715 67.2128 8.10471 75.9128 8.00227C76.1128 8.00227 76.3128 7.89983 76.6128 7.79739ZM35.8128 26.7486C35.1128 26.6462 34.4128 26.4413 34.0128 27.3632C33.8128 27.773 33.5128 27.4657 33.5128 28.2852C33.5128 28.5925 35.1128 28.5925 35.9128 28.4901C35.9128 27.1584 35.9128 27.6706 35.8128 26.7486ZM40.7128 13.2267C43.1128 13.4315 45.6128 13.534 48.0128 13.1242C45.5128 12.9193 43.1128 12.9193 40.7128 13.2267ZM21.8128 13.7389C20.6128 13.1242 19.9128 12.5096 18.8128 12.9193C18.5128 13.0218 18.3128 13.3291 18.3128 13.6364C18.3128 14.0462 18.4128 14.0462 21.2128 13.9437C21.4128 13.9437 21.5128 13.8413 21.8128 13.7389ZM21.8128 17.9389C21.4128 17.734 22.1128 17.734 18.0128 17.5291C16.4128 17.4267 17.0128 18.2462 17.0128 18.2462C18.0128 18.3486 20.5128 18.2462 21.8128 17.9389ZM191.313 20.3974C191.513 21.8315 192.813 21.2169 193.913 21.012C194.113 21.012 193.913 20.4998 193.813 20.3974C192.913 20.2949 192.113 20.2949 191.313 20.3974ZM22.8128 13.8413C23.8128 13.7389 25.0128 13.9437 24.3128 12.5096C23.5128 12.5096 24.0128 12.3047 22.8128 13.8413ZM64.4128 7.79739C59.4128 7.69496 59.4128 8.00227 63.7128 8.10471C63.8128 8.10471 64.0128 8.00227 64.4128 7.79739ZM34.4128 25.8267C35.5128 26.0315 35.5128 26.0315 36.1128 25.7242C35.7128 25.212 35.2128 25.1096 34.6128 25.3145C34.5128 25.3145 34.5128 25.6218 34.4128 25.8267ZM194.813 12.2023C194.013 12.2023 193.313 11.895 192.613 12.2023C193.313 12.2023 194.013 12.2023 194.813 12.2023ZM107.913 4.10959C108.013 4.21203 107.813 4.21203 109.713 4.21203C109.713 4.10959 110.013 4.10959 107.913 4.10959ZM160.713 5.13398C161.313 5.33886 162.013 5.23642 162.613 5.23642C162.513 5.13398 162.713 5.13398 160.713 5.13398ZM31.0128 15.3779C31.7128 15.5828 32.3128 15.6852 33.0128 15.4803C33.1128 15.4803 33.1128 15.2754 33.2128 15.173C33.3128 14.9681 32.3128 14.7632 31.3128 15.0706C31.2128 15.0706 31.1128 15.173 31.0128 15.3779ZM38.7128 25.8267C38.6128 25.212 38.5128 25.1096 38.1128 25.0071C37.9128 25.0071 37.7128 25.0071 37.6128 25.3145C37.4128 25.7242 38.2128 26.2364 38.7128 25.8267ZM227.513 23.2657C229.313 23.3681 229.013 23.4706 229.213 23.1632C228.613 22.9584 228.013 22.8559 227.513 23.2657ZM145.513 4.10959C146.013 4.21203 146.513 4.72423 146.913 4.10959C146.413 4.10959 145.913 4.10959 145.513 4.10959ZM169.213 6.36325C169.713 6.26081 170.113 6.56813 170.613 6.15837C170.213 6.15837 169.813 6.05593 169.213 6.36325ZM112.513 4.62179C112.113 3.90471 111.813 4.62179 111.913 4.72423C112.313 4.82666 112.313 4.72423 112.513 4.62179ZM203.513 21.1145C203.313 20.9096 203.013 20.8071 202.713 21.1145C203.013 21.1145 203.313 21.1145 203.513 21.1145ZM42.7128 11.1779C42.5128 10.8706 42.2128 10.7681 41.8128 11.0754C42.2128 11.1779 42.5128 11.1779 42.7128 11.1779ZM12.9128 17.9389C12.9128 17.8364 12.8128 17.5291 12.4128 17.5291C11.9128 17.4267 12.0128 17.9389 12.3128 17.9389C12.5128 17.9389 12.7128 17.9389 12.9128 17.9389ZM207.713 20.0901C208.013 20.1925 208.313 20.2949 208.613 20.0901C208.313 19.8852 208.013 19.8852 207.713 20.0901ZM51.9128 8.41203C51.4128 8.30959 51.5128 8.30959 51.3128 8.30959C51.5128 8.51447 51.6128 8.61691 51.9128 8.41203ZM198.913 20.4998C198.713 20.4998 198.813 20.4998 198.913 20.4998C198.713 20.4998 198.813 20.4998 198.913 20.4998ZM29.8128 11.2803C29.8128 11.3828 29.7128 11.3828 29.7128 11.4852C29.6128 12.4071 30.1128 11.895 29.8128 11.2803ZM189.113 27.8754C188.613 27.773 188.813 27.773 188.613 27.8754C188.813 27.8754 189.013 27.8754 189.113 27.8754ZM190.713 27.8754C190.513 27.8754 190.613 27.8754 190.713 27.8754C190.513 27.8754 190.613 27.8754 190.713 27.8754ZM106.713 4.21203C106.513 4.21203 106.513 4.21203 106.713 4.21203V4.21203ZM45.7128 6.87544C45.5128 6.77301 45.6128 6.77301 45.6128 6.87544H45.7128ZM56.7128 7.89983C56.6128 7.89983 56.6128 7.89983 56.7128 7.89983V7.89983ZM170.913 7.89983C171.113 7.89983 171.113 7.89983 170.913 7.89983V7.89983ZM27.5128 13.7389V13.6364C27.3128 13.6364 27.3128 13.7389 27.4128 13.8413C27.4128 13.8413 27.4128 13.7389 27.5128 13.7389ZM13.9128 17.8364C13.7128 17.9388 13.7128 17.9389 13.9128 17.9389V17.8364ZM41.1128 19.373C40.9128 19.373 40.9128 19.4754 41.0128 19.5779C41.0128 19.5779 41.1128 19.5779 41.2128 19.5779C41.2128 19.4754 41.2128 19.4754 41.1128 19.373ZM42.6128 19.373V19.4754C42.8128 19.5779 43.0128 19.373 42.7128 19.2706C42.7128 19.373 42.7128 19.373 42.6128 19.373ZM215.113 20.0901C215.313 19.9876 215.313 20.0901 215.113 20.0901V20.0901ZM197.413 20.6023C197.413 20.6023 197.413 20.4998 197.313 20.4998C197.113 20.4998 197.113 20.6023 197.213 20.6023C197.313 20.6023 197.413 20.6023 197.413 20.6023ZM200.413 21.1145C200.213 21.012 200.213 21.012 200.213 21.1145H200.413ZM215.813 21.012C216.013 21.1145 216.013 21.1145 216.013 21.012H215.813ZM222.713 25.9291C222.713 25.8267 222.713 25.7242 222.513 25.7242L222.413 25.8267C222.513 25.8267 222.613 25.8267 222.713 25.9291ZM225.613 18.2462C225.513 18.451 225.513 18.3486 225.713 18.3486L225.613 18.2462ZM30.6128 11.4852C30.5128 11.6901 30.5128 11.5876 30.6128 11.5876V11.4852Z" fill="#ECB942"/>
</svg>
