<svg width="82" height="81" viewBox="0 0 82 81" fill="none" xmlns="http://www.w3.org/2000/svg">
<g clip-path="url(#clip0_1_1356)">
<path d="M13.2574 9.55884C13.2552 9.55884 13.2527 9.55884 13.2506 9.55884C12.4845 9.55884 11.7639 9.85748 11.2198 10.4002C10.6697 10.9489 10.3667 11.6796 10.3667 12.4574V55.9207C10.3667 57.5145 11.6685 58.8144 13.2688 58.8185C20.0156 58.8346 31.3191 60.2407 39.1169 68.401V22.9154C39.1169 22.3752 38.9789 21.8676 38.7185 21.4476C32.3184 11.1407 20.0194 9.57466 13.2574 9.55884Z" fill="#97BC59"/>
<path d="M72.3671 55.9208V12.4571C72.3671 11.6793 72.0641 10.9487 71.514 10.4C70.9699 9.85723 70.2488 9.55859 69.4836 9.55859C69.4811 9.55859 69.4787 9.55859 69.4765 9.55859C62.7147 9.57468 50.4158 11.1407 44.0154 21.4476C43.7549 21.8676 43.6172 22.3752 43.6172 22.9155V68.4008C51.4151 60.2405 62.7185 58.8343 69.4653 58.8182C71.0654 58.8141 72.3671 57.5143 72.3671 55.9208Z" fill="#97BC59"/>
<path d="M78.9688 19.5822H76.8671V55.9207C76.8671 59.9901 73.5516 63.3084 69.4759 63.3185C63.7533 63.3321 54.3174 64.4511 47.6348 70.776C59.1924 67.9461 71.3763 69.7857 78.32 71.3681C79.187 71.5655 80.0829 71.3615 80.7775 70.8079C81.4697 70.2556 81.8668 69.43 81.8668 68.544V22.4802C81.8671 20.8822 80.5667 19.5822 78.9688 19.5822Z" fill="#97BC59"/>
<path d="M5.86644 55.9207V19.5822H3.7648C2.16716 19.5822 0.866791 20.8822 0.866791 22.4802V68.5431C0.866791 69.4295 1.26388 70.2548 1.95607 70.8071C2.65016 71.3604 3.54525 71.5652 4.41362 71.3672C11.3573 69.7846 23.5414 67.9453 35.0985 70.7751C28.4162 64.4506 18.9803 63.3318 13.2576 63.3182C9.18227 63.3084 5.86644 59.9901 5.86644 55.9207Z" fill="#97BC59"/>
<path d="M26.1976 24V22.84L26.1676 22.65V20.71C26.1676 20.2633 26.0409 19.92 25.7876 19.68C25.5409 19.44 25.1709 19.32 24.6776 19.32C24.3376 19.32 24.0142 19.3767 23.7076 19.49C23.4009 19.6033 23.1409 19.7533 22.9276 19.94L22.6076 19.41C22.8742 19.1833 23.1942 19.01 23.5676 18.89C23.9409 18.7633 24.3342 18.7 24.7476 18.7C25.4276 18.7 25.9509 18.87 26.3176 19.21C26.6909 19.5433 26.8776 20.0533 26.8776 20.74V24H26.1976ZM24.3876 24.05C23.9942 24.05 23.6509 23.9867 23.3576 23.86C23.0709 23.7267 22.8509 23.5467 22.6976 23.32C22.5442 23.0867 22.4676 22.82 22.4676 22.52C22.4676 22.2467 22.5309 22 22.6576 21.78C22.7909 21.5533 23.0042 21.3733 23.2976 21.24C23.5976 21.1 23.9976 21.03 24.4976 21.03H26.3076V21.56H24.5176C24.0109 21.56 23.6576 21.65 23.4576 21.83C23.2642 22.01 23.1676 22.2333 23.1676 22.5C23.1676 22.8 23.2842 23.04 23.5176 23.22C23.7509 23.4 24.0776 23.49 24.4976 23.49C24.8976 23.49 25.2409 23.4 25.5276 23.22C25.8209 23.0333 26.0342 22.7667 26.1676 22.42L26.3276 22.91C26.1942 23.2567 25.9609 23.5333 25.6276 23.74C25.3009 23.9467 24.8876 24.05 24.3876 24.05ZM25.1781 39.05C24.7181 39.05 24.3048 38.9467 23.9381 38.74C23.5715 38.5267 23.2815 38.22 23.0681 37.82C22.8548 37.42 22.7481 36.9367 22.7481 36.37C22.7481 35.7967 22.8548 35.3133 23.0681 34.92C23.2881 34.52 23.5815 34.2167 23.9481 34.01C24.3148 33.8033 24.7248 33.7 25.1781 33.7C25.6781 33.7 26.1248 33.8133 26.5181 34.04C26.9181 34.26 27.2315 34.57 27.4581 34.97C27.6848 35.37 27.7981 35.8367 27.7981 36.37C27.7981 36.8967 27.6848 37.3633 27.4581 37.77C27.2315 38.17 26.9181 38.4833 26.5181 38.71C26.1248 38.9367 25.6781 39.05 25.1781 39.05ZM22.4681 39V31.58H23.1781V35.3L23.0781 36.36L23.1481 37.42V39H22.4681ZM25.1281 38.42C25.5015 38.42 25.8348 38.3367 26.1281 38.17C26.4215 37.9967 26.6548 37.7567 26.8281 37.45C27.0015 37.1367 27.0881 36.7767 27.0881 36.37C27.0881 35.9567 27.0015 35.5967 26.8281 35.29C26.6548 34.9833 26.4215 34.7467 26.1281 34.58C25.8348 34.4067 25.5015 34.32 25.1281 34.32C24.7548 34.32 24.4181 34.4067 24.1181 34.58C23.8248 34.7467 23.5915 34.9833 23.4181 35.29C23.2515 35.5967 23.1681 35.9567 23.1681 36.37C23.1681 36.7767 23.2515 37.1367 23.4181 37.45C23.5915 37.7567 23.8248 37.9967 24.1181 38.17C24.4181 38.3367 24.7548 38.42 25.1281 38.42ZM25.2194 54.05C24.6994 54.05 24.2327 53.9367 23.8194 53.71C23.4127 53.4767 23.0927 53.16 22.8594 52.76C22.6261 52.3533 22.5094 51.89 22.5094 51.37C22.5094 50.8433 22.6261 50.38 22.8594 49.98C23.0927 49.58 23.4127 49.2667 23.8194 49.04C24.2327 48.8133 24.6994 48.7 25.2194 48.7C25.6661 48.7 26.0694 48.7867 26.4294 48.96C26.7894 49.1333 27.0727 49.3933 27.2794 49.74L26.7494 50.1C26.5694 49.8333 26.3461 49.6367 26.0794 49.51C25.8127 49.3833 25.5227 49.32 25.2094 49.32C24.8361 49.32 24.4994 49.4067 24.1994 49.58C23.8994 49.7467 23.6627 49.9833 23.4894 50.29C23.3161 50.5967 23.2294 50.9567 23.2294 51.37C23.2294 51.7833 23.3161 52.1433 23.4894 52.45C23.6627 52.7567 23.8994 52.9967 24.1994 53.17C24.4994 53.3367 24.8361 53.42 25.2094 53.42C25.5227 53.42 25.8127 53.3567 26.0794 53.23C26.3461 53.1033 26.5694 52.91 26.7494 52.65L27.2794 53.01C27.0727 53.35 26.7894 53.61 26.4294 53.79C26.0694 53.9633 25.6661 54.05 25.2194 54.05Z" fill="white"/>
</g>
<defs>
<clipPath id="clip0_1_1356">
<rect width="81" height="81" fill="white" transform="translate(0.866791)"/>
</clipPath>
</defs>
</svg>
