<svg width="65" height="76" viewBox="0 0 65 76" fill="none" xmlns="http://www.w3.org/2000/svg">
<path d="M59.0055 25.0488C57.2692 25.316 55.5618 24.4189 54.7966 22.8376L47.6583 8.08451C47.1432 7.02003 46.1835 6.238 45.037 5.94846L38.6052 4.32423C37.4239 4.0259 36.1893 4.55756 35.5943 5.62087C34.9158 6.83363 33.4261 7.33128 32.1548 6.76991L27.4972 4.7132C26.5789 4.30768 25.9213 3.47327 25.7417 2.48558C25.48 1.04623 24.2264 0 22.7635 0H14.2613C13.1478 0 12.0847 0.464111 11.3278 1.28069L1.84422 11.5112C1.15863 12.2508 0.77771 13.222 0.77771 14.2305V27.1278C0.77771 28.1887 1.19914 29.2061 1.94928 29.9563L6.94824 34.9552C7.9685 35.9755 9.45914 36.3672 10.8492 35.9803L18.0598 33.9735C19.1352 33.6742 20.2868 33.8379 21.2362 34.425L23.1326 35.5978C23.9668 36.1136 24.5824 36.918 24.8623 37.8579L28.4468 49.8918C28.6383 50.5349 28.6651 51.2158 28.5245 51.8718L27.1359 58.3522C26.976 59.0981 27.0328 59.874 27.2995 60.5887L32.0792 73.3984C32.6629 74.9628 34.157 76 35.8268 76H38.3118C39.4328 76 40.5024 75.5296 41.26 74.7034L47.3095 68.1062C47.7034 67.6766 47.9987 67.1661 48.1747 66.6104L49.9532 60.9939C50.1469 60.3825 50.4847 59.8266 50.9382 59.3731L54.9527 55.3585C55.7241 54.5871 56.147 53.5341 56.1234 52.4435L55.9325 43.6336C55.9147 42.813 56.1498 42.0068 56.6059 41.3243L61.4129 34.1319C61.6365 33.7973 61.8083 33.4309 61.9226 33.0451L64.0447 25.8791C64.075 25.7766 64.0905 25.6702 64.0905 25.5633C64.0905 24.8814 63.4827 24.3601 62.8089 24.4637L59.0055 25.0488Z" fill="#97BC59"/>
</svg>
