<svg width="70" height="83" viewBox="0 0 70 83" fill="none" xmlns="http://www.w3.org/2000/svg">
<path d="M67.9819 17.9321C67.0609 18.5542 65.7347 19.5057 64.2611 20.6036C60.3193 22.9824 56.6354 25.6539 53.1725 28.728C52.6199 29.2403 52.0673 29.7892 51.5516 30.3016L51.5147 30.3382C49.1938 32.168 45.3994 38.3161 43.3364 41.7562C43.0785 42.1953 42.7838 42.6345 42.5259 43.1102C42.5259 43.1102 44.1837 36.6327 42.1944 28.2888C42.1575 28.179 42.1575 28.0692 42.1207 27.9594C42.0839 27.8862 42.0839 27.7765 42.047 27.7033C41.9733 27.4105 41.8997 27.1177 41.7892 26.825C41.6786 26.459 41.5681 26.1296 41.4576 25.8003C41.3471 25.5075 41.2734 25.1781 41.1629 24.8854C41.126 24.739 41.0524 24.5926 41.0155 24.4828C39.9103 21.4453 38.2894 18.2981 35.9317 15.1508C33.4266 11.7474 30.4795 8.63668 27.3481 5.6724C26.685 5.01367 26.0588 4.46473 25.5062 3.98898C25.5062 3.98898 25.4693 3.98898 25.4693 3.95238C24.8799 3.44004 24.3642 3.00088 23.9221 2.67152C22.0801 0.988095 21.7117 0 21.7117 0C21.0486 1.39065 20.6066 2.56173 20.2382 3.47663C20.054 3.87919 19.9066 4.39153 19.7593 4.94048C19.6487 5.26984 19.6119 5.45282 19.6119 5.45282C19.3909 6.22134 19.1698 7.13624 18.9488 8.19753C16.0385 20.7866 24.5115 32.6803 37.1842 33.522C36.4106 29.0939 33.4635 25.6905 31.7689 21.7381C31.7689 21.7381 37.7 24.8854 39.2104 33.8148C39.3946 34.9493 39.542 36.157 39.6525 37.4744V37.4378C39.6893 37.5842 39.6893 37.7672 39.6893 37.9136C39.6893 38.06 39.7262 38.2429 39.7262 38.3893C39.7262 40.2923 39.7262 42.3783 39.7998 42.8907C39.7998 43.5128 39.763 44.1715 39.7262 44.8302C39.5788 47.9043 39.3578 51.0882 39.1736 55.004C34.6055 46.9528 28.8217 41.2804 21.8591 37.511C21.8591 37.511 8.22855 29.8624 0.565979 31.3263C0.565979 31.3263 1.74484 57.8951 23.9221 54.4184C26.243 54.2354 28.5638 53.6865 30.59 52.6618C29.3006 51.5639 28.1218 50.5026 26.8692 49.5511C23.4063 47.0626 19.7593 44.9766 15.7806 43.403C16.3332 43.1834 16.8858 42.9638 17.4015 42.7809C19.4645 43.5128 21.5644 44.1715 23.6274 44.9766C29.7059 47.392 33.8687 52.2227 37.7 57.0533C39.4683 59.2857 37.8105 62.1036 36.9264 64.8483C36.2633 64.519 35.7107 64.0432 35.2318 63.4577C34.4581 62.9819 33.9424 62.1768 33.4266 61.4449C32.9109 60.713 32.3951 60.0176 32.0267 59.2491C31.9531 59.1759 31.9162 59.0661 31.8425 58.9929C31.4373 58.4074 30.9216 57.6755 29.9269 57.3461C28.6744 56.9436 27.4218 57.7121 26.5377 58.1878C24.9168 59.0295 23.3327 60.0908 23.0379 61.4083C22.7801 62.4696 23.8116 63.5309 23.259 64.5555C22.7432 65.507 21.196 65.5802 19.7593 65.7266C17.8068 65.9096 16.0016 66.4951 14.6017 67.3369C13.0545 68.2518 12.1335 69.4228 11.9493 70.7403C11.7283 72.0212 11.9493 73.302 11.1757 74.5097C10.5863 75.4612 9.62845 76.3029 8.33907 76.9616C7.45493 77.4008 6.60762 77.7302 6.16555 78.3523C13.1282 81.3166 21.6749 83.0732 30.9216 83.0732C44.2574 83.0732 56.1565 79.4136 63.9296 73.7412C63.8927 73.7046 63.8559 73.7046 63.819 73.7046C62.1244 72.8995 60.6509 71.8748 59.5457 70.7769C58.5142 69.7156 57.9248 68.5811 57.3353 67.41C56.6722 65.9828 55.567 64.336 52.5462 64.4824C50.2622 64.5921 48.8623 65.6168 47.1677 66.3854C45.6941 67.0441 44.0732 67.1905 42.3049 66.8611C41.1629 66.6415 40.1314 66.3122 39.1736 65.9096C39.984 62.7257 40.7576 59.5419 41.4576 56.3214C43.2996 48.2337 50.0412 38.8651 56.0091 36.5595C52.8409 40.9145 48.8255 44.3545 47.1677 49.5145C59.0299 48.8924 66.8767 42.4515 68.866 33.0463V33.0097C68.9029 32.7901 68.9765 32.5705 69.0134 32.351C69.0134 32.3144 69.0134 32.2778 69.0502 32.2412C69.0871 32.0582 69.0871 31.9118 69.1239 31.7288C69.1607 31.5459 69.1976 31.3629 69.1976 31.1799C70.4133 22.653 67.9819 17.9321 67.9819 17.9321Z" fill="#97BC59"/>
</svg>
