<svg width="384" height="237" viewBox="0 0 384 237" fill="none" xmlns="http://www.w3.org/2000/svg">
<g style="mix-blend-mode:multiply" clip-path="url(#clip0_1_164)">
<path d="M67.288 113.98C65.8426 113.78 64.231 115.058 63.7027 114.534C63.5914 114.219 63.4801 113.903 63.4801 113.903C66.9523 109.13 62.6726 110.639 74.789 106.011C80.2915 104.07 77.3176 104.409 80.986 103.115C82.8201 102.468 79.5688 103.97 85.5714 101.498C85.7375 100.02 82.2918 101.945 80.652 102.168C80.3463 102.276 79.6236 102.176 79.3179 102.284C79.7897 100.698 81.6521 101.106 82.7636 100.359C82.6523 100.043 82.124 99.52 82.4296 99.4122C83.041 99.1965 83.5411 98.6653 84.2638 98.7653C85.9036 98.5418 87.3208 97.6871 89.1549 97.0402C97.4369 95.1839 102.188 92.0886 105.774 91.5338C107.719 91.2026 108.608 89.8244 112.805 89.0541C113.916 88.3072 115.473 88.8228 116.779 87.6525C118.39 86.3743 120.864 86.5665 121.67 85.9275C122.976 84.7571 130.841 82.693 137.066 80.8523C146.654 77.8257 156.63 73.9522 158.464 73.3053C167.552 70.8099 163.744 70.7333 167.635 70.0708C168.664 70.063 169.581 69.7396 170.081 69.2083C171.692 67.9301 174.166 68.1223 176.083 66.7364C180.975 65.0113 181.892 64.6879 185.254 63.5019C192.174 60.7065 191.285 62.0847 193.119 61.4378C206.487 57.433 201.679 58.419 209.432 56.0392C213.406 54.6376 219.632 52.7969 219.937 52.6891C227.163 49.7859 225.523 50.0094 246.227 43.417C271.128 36.0543 333.156 13.1131 335.324 13.4131C334.712 13.6288 334.212 14.16 333.601 14.3757C332.072 14.9147 330.127 15.246 328.71 16.1007C326.375 17.2789 322.179 18.0492 320.15 19.1195C319.344 19.7586 318.316 19.7664 317.705 19.982C316.482 20.4133 314.953 20.9524 313.731 21.3836C313.953 22.0149 314.453 21.4836 316.816 21.3602C327.072 20.2273 334.324 14.4757 342.051 14.9444C342.356 14.8366 342.468 15.1522 342.579 15.4678C342.802 16.0991 342.079 15.9991 331.797 19.9805C332.436 20.8195 333.742 19.6492 333.77 20.7039C333.993 21.3352 334.604 21.1195 336.356 21.2117C336.272 21.9508 336.189 22.6899 336.523 23.6368C339.997 22.7664 344.971 20.3023 348.085 21.3336C347.613 22.9195 345.556 22.9352 344.556 23.9977C345.752 26.4149 344.696 25.368 344.335 27.2696C344.141 27.6931 344.781 28.5321 345.392 28.3165C350.506 27.2227 349.172 27.3384 350.423 27.9618C348.394 29.0321 346.449 29.3634 345.031 30.2181C344.643 31.065 344.505 33.5979 347.673 32.8353C348.59 32.5119 347.367 32.9431 353.287 31.2103C356.374 35.09 352.649 34.2744 343.701 38.1401C343.423 39.3026 344.035 39.087 345.48 39.287C344.786 40.2417 343.757 40.2495 342.952 40.8886C342.423 40.3652 344.091 41.1964 342.397 43.2137C342.925 43.7371 343.953 43.7293 344.565 43.5137C348.428 41.7964 346.176 42.2355 351.318 42.1964C339.313 47.1403 340.647 47.0247 337.562 47.0481C337.34 46.4168 337.117 45.7856 337.006 45.47C335.56 45.27 335.977 45.4778 335.004 43.6918C332.669 44.87 330.335 46.0481 327.75 45.5403C326.944 46.1794 326.861 46.9184 325.75 47.6653C327.084 47.5497 327.695 47.3341 328.418 47.4341C328.446 48.4888 325.972 48.2966 327.14 49.6591C329.503 49.5357 331.726 48.0419 333.977 47.6028C334.394 47.8106 334.394 47.8106 333.783 48.0263C330.531 49.5279 329.809 49.4279 328.586 49.8591C328.28 49.9669 328.891 49.7513 323.612 52.3232C323.723 52.6389 323.723 52.6389 323.723 52.6389C324.863 52.9467 326.002 53.2545 327.031 53.2467C329.199 53.5467 331.894 50.4669 333.979 51.506C334.341 53.5076 333.813 52.9842 336.592 53.0685C334.592 55.1936 334.786 54.7701 334.592 55.1936C335.62 55.1858 336.649 55.1779 337.871 54.7467C340.011 53.992 342.262 53.5529 344.402 52.7982C346.236 52.1513 348.182 51.82 350.239 51.8044C349.044 53.2904 346.653 52.3591 345.153 53.9529C343.625 54.492 342.096 55.0311 340.262 55.6779C335.26 57.0874 334.399 59.5202 333.565 59.1046L333.871 58.9968C334.093 59.628 333.593 60.1593 332.788 60.7984C330.508 60.1827 331.342 60.5984 330.286 59.5515C328.34 59.8827 324.255 60.9687 324.811 62.5469C326.257 62.7469 327.563 61.5765 329.731 61.8765C329.731 61.8765 329.842 62.1921 330.259 62.4C327.925 63.5781 325.674 64.0172 323.534 64.7719C322.56 62.9859 322.894 63.9328 323.283 63.0859C323.477 62.6625 323.06 62.4547 322.754 62.5625C322.56 62.9859 322.449 62.6703 322.783 63.6172C322.283 64.1484 322.2 64.8875 321.394 65.5266C319.365 66.5969 316.697 66.8282 314.78 68.2142C314.891 68.5298 315.003 68.8454 315.725 68.9454C316.031 68.8376 316.754 68.9376 316.948 68.5142C322.728 65.411 328.064 64.9485 330.399 63.7703C332.427 62.7 336.401 61.2984 338.652 60.8593C339.403 62.014 337.486 63.4 336.569 63.7234C334.012 64.2703 328.815 66.1032 328.815 66.1032C325.592 68.6595 314.531 70.4314 314.087 73.0721C316.978 73.4721 318.033 70.6158 322.786 71.4236C323.315 71.947 322.397 72.2705 322.509 72.5861C323.343 73.0017 323.649 72.8939 323.649 72.8939C323.76 73.2096 323.565 73.633 323.371 74.0564C322.982 74.9033 316.451 76.8518 315.729 76.7518C314.895 76.3362 315.395 75.8049 315.478 75.0659C315.395 75.8049 315.784 74.958 311.921 76.6753C306.418 78.6159 310.726 78.1612 301.555 81.3957C292.079 84.738 296.581 83.8598 289.55 86.3396C278.851 90.1131 278.128 90.0131 276.322 91.7147C273.543 91.6303 271.014 93.2319 268.569 94.0944C268.374 94.5179 268.18 94.9413 267.986 95.3648C269.014 95.357 269.625 95.1413 270.348 95.2413C270.459 95.557 270.571 95.8726 270.571 95.8726C270.071 96.4038 268.542 96.9429 269.793 97.5664C273.462 96.2726 280.938 95.0554 283.466 93.4538C285.189 92.4912 289.192 92.1443 292.026 90.4349C293.443 89.5802 297.362 89.9724 302.753 87.7161C301.976 89.4099 303.782 87.7083 294.528 91.6818C293.611 92.0053 292.805 92.6443 292.194 92.86C291.582 93.0756 291.388 93.4991 291.722 94.4459C305.757 92.3349 306.59 88.8474 307.397 92.1115C307.508 92.4271 308.037 92.9506 308.148 93.2662C307.676 94.8522 306.954 94.7522 305.759 96.2381C305.565 96.6616 305.482 97.4007 305.176 97.5085C304.482 98.4632 302.925 97.9475 302.647 99.1101C302.259 99.957 301.396 98.4866 297.451 100.943C297.145 101.051 297.367 101.682 297.785 101.89C298.202 102.098 298.202 102.098 298.619 102.305C297.841 103.999 296.256 102.429 294.507 106.24C298.203 106.001 298.175 104.946 302.426 102.382C302.732 102.274 303.149 102.482 303.761 102.266C303.93 108.595 304.54 104.476 299.677 107.256C299.094 108.526 297.371 109.488 296.899 111.074C298.65 111.167 300.262 109.888 302.013 109.981C302.681 111.874 298.873 111.798 297.261 113.076C294.733 114.678 291.759 115.017 289.174 114.509C287.84 114.624 286.728 115.371 285.505 115.803C285.728 116.434 286.034 116.326 286.256 116.957C285.951 117.065 285.451 117.596 284.839 117.812C284.951 118.128 284.645 118.235 284.756 118.551C285.73 120.337 283.145 119.829 282.284 122.262C281.061 122.693 279.422 122.917 277.587 123.564C278.893 122.393 279.505 122.178 278.559 121.446C277.225 121.562 275.585 121.786 274.057 122.325C272.834 122.756 271.417 123.611 270.194 124.042C265.998 124.812 263.997 126.937 252.658 129.872C246.295 134.245 236.651 135.162 231.816 138.997C229.705 140.806 228.425 139.128 227.036 141.038C225.648 142.947 224.091 142.431 222.674 143.286C222.785 143.602 222.591 144.025 222.702 144.341C221.702 145.403 220.368 145.519 219.339 145.527C218.811 145.003 219.422 144.788 219.728 144.68C219.728 144.68 219.617 144.364 219.922 144.256C219.617 144.364 219.505 144.049 219.2 144.156C217.366 144.803 215.531 145.45 213.809 146.413C212.086 147.375 212.558 145.789 207.389 148.677C200.218 149.786 206.361 148.685 194.439 152.889C194.133 152.997 193.827 153.105 193.633 153.528C196.301 153.297 203.192 149.447 201.026 153.05C200.832 153.474 201.054 154.105 201.36 153.997C204.251 154.397 204.139 154.082 204.473 155.028C204.585 155.344 203.056 155.883 200.082 156.222C195.774 156.677 176.182 162.522 178.101 165.04C178.212 165.355 178.629 165.563 179.046 165.771C181.408 165.647 183.631 164.154 186.3 163.922C185.299 164.985 184.382 165.308 185.633 165.932C187.885 165.493 192.164 163.983 194.276 162.174C196.888 159.833 193.525 161.019 200.25 158.647C207.476 155.744 208.921 155.944 216.646 152.51C219.898 151.008 225.595 148.644 229.069 147.774C231.376 149.444 213.895 153.48 211.923 156.66C217.648 155.35 216.62 155.358 217.343 155.458C216.342 156.521 214.591 156.428 214.008 157.699C214.119 158.014 214.342 158.646 214.565 159.277C210.591 160.679 206.951 163.027 202.448 163.905C200.809 164.129 199.808 165.191 198.086 166.154C192.555 167.04 187.469 169.188 181.967 171.129C181.05 171.452 180.244 172.091 179.633 172.307C172.519 175.526 174.13 174.248 165.071 177.798C164.876 178.221 164.682 178.645 164.376 178.752C165.016 179.592 165.738 179.692 166.35 179.476C169.712 178.29 178.217 177.065 184.803 173.323C184.803 173.323 184.191 173.538 197.697 167.001C203.588 164.213 204.645 165.26 210.453 163.211C229.295 156.211 228.989 156.319 229.906 155.996C232.24 154.817 234.491 154.378 236.937 153.516C240.217 153.069 243.468 151.567 246.413 150.174C249.359 148.78 252.722 147.594 255.779 146.516C256.084 146.408 256.501 146.616 257.113 146.4C256.307 147.039 244.302 151.983 241.468 153.692C240.551 154.016 239.55 155.078 239.884 156.025C239.579 156.133 239.384 156.557 239.079 156.664C203.535 169.91 221.071 164.08 215.763 165.597C212.706 166.676 210.066 167.962 207.649 169.879C204.926 171.904 198.895 173.321 195.56 175.562C195.06 176.093 194.032 176.101 193.421 176.316C190.669 177.287 179.304 183.07 165.548 187.921C106.048 209.261 116.636 205.172 110.328 207.752C109.828 208.283 109.634 208.706 109.328 208.814C106.188 210.631 106.382 210.208 100.24 211.309C98.3231 212.695 97.0172 213.866 95.2661 213.774C91.7639 213.589 87.8182 216.045 85.4557 216.169C86.1501 215.214 85.1217 215.222 90.3185 213.389C92.1527 212.742 93.6811 212.203 95.1813 210.609C97.2382 210.594 99.0723 209.947 101.101 208.877C104.046 207.483 105.075 207.475 112.912 204.356C130.114 197.579 128.808 198.75 129.085 197.587L128.668 197.379C124.888 198.358 127.474 198.865 118.58 200.937C113.883 202.239 100.573 208.353 72.0864 216.271C69.2239 216.925 65.1668 219.066 62.6099 219.613C61.9985 219.828 61.3871 220.044 60.7757 220.26C59.6643 221.007 58.6359 221.014 57.3018 221.13C55.5789 222.093 53.5221 222.108 51.7993 223.071C50.8822 223.394 49.6594 223.825 48.3253 223.941C50.6596 222.763 52.7994 222.008 54.828 220.938C55.9394 220.191 57.3848 220.391 58.802 219.536C60.1078 218.366 59.5247 219.636 71.9468 214.9C73.1696 214.469 74.2811 213.722 75.1982 213.399C75.5038 213.291 75.5869 212.552 75.8926 212.444C77.7268 211.797 82.8405 210.703 82.8405 210.703C85.0917 210.264 86.3693 208.039 85.6466 207.939C85.3409 208.047 84.9238 207.839 84.9238 207.839C81.8669 208.917 78.6986 209.68 75.8643 211.389C76.1152 213.075 76.087 212.02 75.1699 212.344C69.4448 213.653 70.9732 213.114 66.3048 215.471C65.082 215.902 63.9423 215.594 62.8308 216.341C62.025 216.98 60.8023 217.411 60.1909 217.627C58.3284 217.219 59.2173 215.841 61.1627 215.51C63.5252 215.386 65.1368 214.108 67.1653 213.038C71.6677 212.16 72.5565 210.781 75.002 209.919C81.7273 207.547 77.5307 208.317 87.3129 204.867C95.5666 201.956 92.5097 203.034 95.761 201.533C94.0929 200.701 96.1497 200.686 87.8677 202.542C84.2542 202.042 85.6996 202.242 81.6973 202.589C81.586 202.273 81.169 202.066 81.169 202.066C81.0577 201.75 81.1407 201.011 81.4464 200.903C84.0863 199.617 92.2853 198.5 93.9251 198.276C98.5388 197.714 97.4821 196.667 99.5106 195.597C101.345 194.95 103.068 193.987 104.568 192.393C105.262 191.439 106.485 191.008 107.597 190.261C106.763 189.845 106.346 189.637 105.817 189.114C107.04 188.682 108.151 187.936 109.068 187.612C108.206 186.142 105.872 187.32 104.149 188.282C104.066 189.022 103.872 189.445 103.677 189.868C103.483 190.292 102.872 190.508 102.76 190.192C102.343 189.984 101.815 189.461 101.398 189.253C98.5353 189.907 97.9239 190.123 98.5918 192.017C98.9258 192.964 98.9258 192.964 97.9256 194.026C97.0086 194.35 93.812 194.058 93.0893 193.958C93.8951 193.319 94.3952 192.787 95.2009 192.148C94.2556 191.417 93.6442 191.633 87.836 193.681C70.4114 199.826 83.445 194.875 72.6626 199.387C70.8284 200.034 72.0795 200.658 67.077 202.067C52.6811 206.08 61.465 207.595 53.2377 207.658C52.9321 207.766 52.8207 207.45 52.515 207.558C54.2096 205.541 56.4325 204.047 59.1838 203.077C57.21 202.353 55.3759 203 53.236 203.755C53.4304 203.331 53.3191 203.016 53.6248 202.908C55.1532 202.369 56.5704 201.514 57.9875 200.659C58.9046 200.336 59.099 199.912 60.3766 197.687C57.2914 197.711 56.0968 199.197 52.5946 199.012C51.8719 198.912 51.7606 198.597 51.2323 198.073C45.3127 199.806 47.1469 199.159 43.8956 200.661C43.2842 200.877 42.8672 200.669 42.1445 200.569L42.0332 200.253C46.3129 198.744 42.9502 199.93 58.8181 193.269C58.8181 193.269 59.1238 193.161 59.0125 192.845C57.3727 193.069 58.5954 192.637 51.1475 194.909C37.6969 199.653 37.1968 200.184 46.9225 194.625C46.9225 194.625 46.8112 194.309 47.0056 193.886C46.2829 193.786 45.5602 193.686 44.5318 193.694C47.2548 191.669 46.7547 192.2 46.4207 191.253C43.7525 191.484 40.4182 193.725 39.1671 193.101C41.807 191.815 44.3639 191.269 47.0039 189.983C46.1698 189.567 45.2527 189.89 44.113 189.583C31.9966 194.211 18.3234 198.323 32.1627 192.733C43.362 188.428 42.3619 189.49 43.6677 188.32C40.9995 188.551 38.4709 190.153 36.7198 190.061C31.4665 189.784 27.8547 193.187 26.798 192.141C27.9095 191.394 56.1164 180.736 58.2563 179.981C58.145 179.665 58.8677 179.765 54.0313 179.696C53.92 179.381 53.8087 179.065 53.6974 178.75C51.3349 178.873 53.1425 181.075 48.8345 181.529C48.1118 181.429 48.1949 180.69 48.3893 180.267C48.5836 179.843 48.778 179.42 49.2781 178.889C47.3043 178.165 51.1953 177.503 31.6309 184.403C31.3252 184.511 30.9082 184.303 30.9082 184.303C30.6025 184.411 30.6855 183.672 31.1856 183.14C37.4373 178.451 52.4729 175.278 54.0561 172.945C54.3336 171.782 52.4994 172.429 52.2768 171.798C53.6656 169.889 68.756 164.921 70.2845 164.382C71.3959 163.635 71.3677 162.581 72.7848 161.726C73.7019 161.402 74.5077 160.763 75.3134 160.124C75.2021 159.809 75.0908 159.493 74.9795 159.177C63.7518 162.427 66.42 162.196 52.2468 166.84C51.8297 166.632 50.69 166.324 52.1072 165.47C55.0528 164.076 53.9413 164.823 54.6358 163.868C47.7992 165.924 42.6024 167.757 45.131 166.156C50.1052 163.692 49.2994 164.331 49.4938 163.907C49.1881 164.015 48.7711 163.807 48.4654 163.915C46.0198 164.777 43.0459 165.117 40.5173 166.718C37.8774 168.004 35.8206 168.02 28.9009 170.815C28.2895 171.031 27.6782 171.246 27.2611 171.039C27.6499 170.192 28.3726 170.292 28.984 170.076C34.3469 166.765 40.7947 165.556 42.4063 164.277C42.712 164.17 42.4893 163.538 41.8779 163.754C37.987 164.417 36.6811 165.587 32.1788 166.465C32.3449 164.987 30.9277 165.842 45.6011 160.666C47.7409 159.912 49.5751 159.265 51.0753 157.671C50.63 156.409 49.0185 157.687 48.3788 156.848C48.5732 156.424 48.3506 155.793 51.4075 154.715C62.9126 150.302 63.0239 150.618 63.607 149.347C63.8014 148.924 64.3297 149.447 64.1071 148.816C63.8014 148.924 63.9127 149.24 63.607 149.347C61.1332 149.155 60.8275 149.263 36.6777 157.781C36.2606 157.573 35.5379 157.473 35.1209 157.265C51.6549 148.594 52.4342 150.804 54.5175 147.94C50.5983 147.547 48.181 149.465 42.9559 150.243C47.8188 147.463 53.7665 146.785 58.1011 143.482C58.4067 143.374 58.4898 142.635 58.6842 142.211C56.4047 141.596 58.4615 141.58 53.4308 141.935C53.4308 141.935 53.3195 141.619 53.0138 141.727C55.1537 140.972 57.1822 139.902 59.6278 139.039C60.0165 138.193 60.4053 137.346 60.5997 136.922C60.0713 136.399 59.543 135.875 59.0147 135.352C59.1808 133.874 60.2922 133.127 61.4037 132.38C62.3208 132.057 63.5435 131.625 64.7663 131.194C64.9607 130.771 64.1267 130.355 64.6267 129.824C64.9324 129.716 64.4041 129.192 64.5985 128.769C64.5702 127.714 66.0987 127.175 69.1274 125.042C78.5208 122.439 76.6867 123.086 78.1586 120.438L77.7416 120.23C77.1302 120.445 76.1018 120.453 75.6017 120.984C73.8789 121.947 72.4335 121.747 70.6824 121.655C70.6824 121.655 70.7937 121.97 70.3484 120.708C71.6542 119.538 72.9883 119.422 74.5168 118.883C76.9058 115.911 75.9057 116.973 79.3514 115.048C77.7947 114.533 76.1831 115.811 75.0434 115.503C75.2378 115.08 74.8208 114.872 76.9606 114.117C82.0461 111.969 82.4631 112.176 83.1576 111.222C86.6581 107.503 66.3444 117.152 62.5365 117.075C63.1479 116.859 63.0365 116.544 63.3422 116.436C66.4822 114.619 65.4821 115.681 68.2051 113.656C67.7881 113.448 67.9824 113.025 67.288 113.98ZM174.113 135.216C174.418 135.108 174.53 135.424 174.113 135.216C174.53 135.424 174.53 135.424 174.53 135.424C174.724 135 174.418 135.108 174.113 135.216ZM233.621 71.9957C235.261 71.7722 235.372 72.0879 235.566 71.6644C235.649 70.9253 234.232 71.7801 233.621 71.9957C231.536 70.9566 232.204 72.8504 229.59 71.2879C228.368 71.7191 226.728 71.9426 225.311 72.7973C226.033 72.8973 226.756 72.9973 227.367 72.7817C228.007 73.6207 227.896 73.3051 228.313 73.5129C231.398 73.4895 232.593 72.0035 233.621 71.9957ZM301.545 57.9765C299.488 57.9922 297.765 58.9547 295.82 59.2859C293.903 60.6719 291.652 61.111 289.623 62.1813L289.429 62.6048C290.04 62.3891 290.457 62.5969 290.763 62.4891C301.656 58.2921 300.851 58.9312 301.545 57.9765C302.156 57.7609 302.879 57.8609 303.379 57.3296C303.879 56.7984 302.323 56.2827 301.545 57.9765ZM159.679 180.054C158.123 179.538 158.54 179.746 148.869 183.512C148.98 183.828 149.091 184.143 149.091 184.143C150.954 184.551 156.039 182.403 157.762 181.44C158.262 180.909 158.762 180.377 159.679 180.054ZM81.2473 128.221C79.3849 127.813 73.271 129.969 70.631 131.255C68.1855 132.117 67.7967 132.964 66.6853 133.711C66.0739 133.927 65.1568 134.25 64.5454 134.466C67.7137 133.703 70.7706 132.625 73.8276 131.547C77.4959 130.253 77.6355 131.624 82.9153 129.052C84.1381 128.621 85.2496 127.874 86.1667 127.55C89.2236 126.472 92.5862 125.286 95.5319 123.892C95.5319 123.892 95.8376 123.784 95.7262 123.469C94.0865 123.692 93.0863 124.755 91.7522 124.87C90.2237 125.409 88.8897 125.525 87.2499 125.749C85.7497 127.342 83.9155 127.989 81.6643 128.428C82.0813 128.636 81.6643 128.428 81.2473 128.221C81.4417 127.797 81.4417 127.797 81.2473 128.221ZM156.591 172.271C163.484 172.324 163.844 170.423 169.292 170.276C170.626 170.16 171.849 169.729 172.96 168.982C173.655 168.027 174.349 167.073 175.044 166.118C172.93 164.024 173.347 164.232 169.373 165.633C168.873 166.165 169.513 167.004 169.013 167.535C168.513 168.066 168.43 168.805 168.235 169.229C161.704 171.177 160.536 169.815 156.591 172.271C153.172 171.348 146.446 173.72 143.612 175.429C143.112 175.96 142.612 176.492 142.112 177.023C141.612 177.554 140.389 177.985 140.723 178.932C142.085 179.871 143.308 179.44 151.062 177.06C151.367 176.952 151.562 176.529 151.867 176.421C151.645 175.79 151.422 175.159 151.2 174.527C152.283 172.726 151.783 173.257 156.591 172.271ZM322.362 55.603C321.028 55.7186 320.139 57.0968 318.805 57.2124C317.499 58.3827 315.665 59.0296 313.72 59.3609C311.774 59.6922 307.412 61.9406 308.495 60.139C308.689 59.7156 308.995 59.6078 313.191 58.8374C316.109 56.389 317.026 56.0655 316.581 54.803C311.05 55.689 314.913 53.9717 306.381 58.0453C303.741 59.3312 302.741 60.3937 300.073 60.625C298.128 60.9563 298.045 61.6953 294.682 62.8813C290.208 64.8142 290.597 63.9673 290.459 66.5001C293.433 66.1611 302.658 61.1328 305.021 61.0094C305.66 61.8484 304.438 62.2797 304.355 63.0188C304.466 63.3344 304.466 63.3344 304.577 63.6501C305.3 63.7501 305.911 63.5344 306.94 63.5266C307.051 63.8422 306.857 64.2657 306.968 64.5813C307.996 64.5735 308.913 64.2501 310.025 63.5032C309.914 63.1875 309.497 62.9797 309.385 62.6641C312.72 60.4234 313.665 61.1547 315.694 60.0843C317.111 59.2296 318.639 58.6906 320.473 58.0437C320.779 57.9359 320.89 58.2515 321.196 58.1437C321.502 58.0358 321.113 58.8827 320.919 59.3062C319.307 60.5843 318.89 60.3765 319.113 61.0078C320.03 60.6843 321.364 60.5687 322.281 60.2453C327.366 58.0968 328.812 58.2968 330.535 57.3343C330.84 57.2264 330.729 56.9108 330.923 56.4874C330.089 56.0717 329.367 55.9717 328.95 55.7639C325.781 56.5264 326.81 56.5186 324.281 58.1202L323.559 58.0202C322.502 56.9733 322.891 56.1264 322.362 55.603C322.557 55.1795 322.557 55.1795 322.251 55.2874L322.362 55.603ZM116.267 187.557C117.656 185.648 120.047 186.579 128.857 185.246C129.357 184.715 129.857 184.184 130.358 183.653C129.607 182.498 128.161 182.298 127.327 181.882C126.716 182.098 125.799 182.421 125.076 182.321C122.713 182.445 120.268 183.307 117.822 184.17C116.211 185.448 114.265 185.779 112.737 186.318C110.931 188.02 109.625 189.19 108.431 190.676C112.072 192.231 115.741 190.937 119.409 189.643L119.298 189.328C116.907 188.396 116.907 188.396 116.267 187.557ZM282.364 52.3202C284.115 52.4124 284.421 52.3046 284.532 52.6202C284.644 52.9358 283.727 53.2593 282.809 53.5827C278.947 55.3 279.892 56.0312 281.726 55.3843C307.293 46.0122 300.485 49.1232 303.625 47.306C303.514 46.9904 303.485 45.9357 303.568 45.1966C302.54 45.2044 305.597 44.1263 282.364 52.3202ZM133.482 85.3102C135.316 84.6633 136.539 84.2321 137.762 83.8008C144.57 80.6898 151.713 78.5257 159.049 75.9381C160.884 75.2912 162.746 75.699 165.163 73.7818C167.886 71.7568 170.083 73.1115 171.054 70.9943C170.137 71.3177 159.855 75.2991 141.096 81.5601C134.566 83.5086 133.954 83.7243 133.482 85.3102ZM286.87 59.2484C278.199 61.9516 284.925 59.5797 263.943 67.3346L264.054 67.6502C264.666 67.4346 265.388 67.5346 266.305 67.2111C271.614 65.6939 271.419 66.1174 272.948 65.5783C276.616 64.2845 278.978 64.1611 280.367 62.2516C280.562 61.8282 281.173 61.6126 281.479 61.5048C282.619 61.8126 282.619 61.8126 286.87 59.2484ZM171.761 158.758C171.121 157.919 171.121 157.919 153.696 164.065C153.085 164.28 152.779 164.388 152.279 164.919C159.561 164.126 161.367 162.424 163.201 161.777C165.758 161.23 168.398 159.944 170.955 159.397C171.261 159.29 171.455 158.866 171.761 158.758ZM131.12 85.4337C129.786 85.5493 115.112 90.7244 113.584 91.2635C106.247 93.8511 104.913 93.9667 104.219 94.9214C104.524 94.8136 105.247 94.9136 105.553 94.8058C107.693 94.0511 109.721 92.9807 111.972 92.5417C115.141 91.7791 130.62 85.9649 131.12 85.4337ZM64.8207 190.797C70.1288 189.279 72.1573 188.209 81.6338 184.867C81.9395 184.759 82.7453 184.12 82.4396 184.228C81.9113 183.704 81.8 183.389 80.8829 183.712C75.0747 185.761 71.0176 187.901 66.8209 188.672C64.6811 189.426 64.7093 190.481 64.8207 190.797ZM285.502 107.996C282.417 108.02 275.191 110.923 272.246 112.317C271.94 112.424 272.051 112.74 271.746 112.848C274.72 112.509 273.914 113.148 282.89 110.337C283.502 110.121 284.307 109.482 284.919 109.267C285.113 108.843 285.308 108.42 285.502 107.996ZM273.129 99.2289C274.269 99.5367 273.046 99.968 281.411 97.3726C282.328 97.0491 283.246 96.7257 283.746 96.1944C284.051 96.0866 283.94 95.771 284.246 95.6632C283.606 94.8241 282.995 95.0397 276.658 96.5648C275.658 97.6273 274.547 98.3742 273.129 99.2289ZM226.349 157.605C223.486 158.26 222.264 158.691 211.593 163.519C211.287 163.627 211.398 163.943 210.787 164.158C211.704 163.835 212.01 163.727 212.621 163.511C224.96 159.514 223.126 160.161 226.349 157.605ZM222.614 133.37C225.893 132.923 228.616 130.898 231.59 130.559C231.896 130.451 232.202 130.344 234.619 128.426C231.451 129.189 225.642 131.237 223.614 132.308C222.697 132.631 222.808 132.947 222.614 133.37ZM73.7693 125.535C73.8806 125.85 73.4919 126.697 74.5203 126.689C76.5771 126.674 77.9942 125.819 79.7171 124.856C80.3285 124.641 81.189 122.208 73.7693 125.535ZM285.963 82.9911C287.52 83.5067 288.603 81.7051 291.577 81.366C293.94 81.2426 295.968 80.1722 297.997 79.1019L298.191 78.6785C295.523 78.9097 290.437 81.0582 286.575 82.7754C286.158 82.5676 285.963 82.9911 285.963 82.9911ZM243.382 83.1037C242.436 82.3724 240.185 82.8115 239.074 83.5584C236.156 86.0069 229.931 87.8475 243.382 83.1037ZM329.609 38.1417C327.775 38.7886 326.135 39.0121 324.301 39.659C322.521 38.5121 322.938 38.7199 322.744 39.1433C322.967 39.7746 322.995 40.8293 324.023 40.8215C326.08 40.8058 327.914 40.1589 329.526 38.8808C329.526 38.8808 329.415 38.5652 329.609 38.1417ZM250.798 71.9706C251.215 72.1785 249.687 72.7175 260.997 68.7284C260.886 68.4127 262.109 67.9815 250.798 71.9706ZM293.846 58.5625C295.486 58.339 295.486 58.339 297.903 56.4218C297.486 56.214 297.181 56.3218 296.764 56.114C294.901 55.7062 292.984 57.0921 293.846 58.5625ZM51.7236 178.026C52.8634 178.334 53.2521 177.487 55.6977 176.625C59.0603 175.439 59.4773 175.646 59.8661 174.8C53.0295 176.856 52.0011 176.864 51.7236 178.026ZM61.488 196.941C62.0164 197.464 61.822 197.887 62.656 198.303C63.3787 198.403 63.9901 198.187 64.3788 197.341C64.5732 196.917 64.4619 196.601 64.3506 196.286C63.2109 195.978 62.2938 196.301 61.488 196.941ZM284.956 68.4408C283.316 68.6643 280.26 69.7424 281.622 70.6815C285.79 68.8564 285.29 69.3877 284.956 68.4408ZM210.163 137.052C205.772 138.245 205.161 138.461 204.466 139.416C205.801 139.3 206.718 138.977 207.829 138.23C208.44 138.014 209.358 137.691 210.163 137.052ZM102.385 95.5683C100.745 95.7917 97.7709 96.1308 97.4935 97.2933C97.6048 97.609 100.467 96.9543 102.385 95.5683ZM199.604 142.195C200.132 142.719 202.466 141.541 201.827 140.702C201.381 139.439 198.964 141.356 199.604 142.195ZM75.2743 197.047C76.9141 196.823 78.1368 196.392 79.554 195.537C77.9142 195.761 76.2744 195.984 75.2743 197.047ZM131.69 179.634C132.579 178.256 130.55 179.326 128.41 180.081C128.244 181.559 129.967 180.596 131.69 179.634ZM85.0565 193.597C83.7224 193.712 82.694 193.72 81.5825 194.467C82.3052 194.567 81.6938 194.783 85.0565 193.597ZM299.343 106.309C300.177 106.724 301.4 106.293 301.789 105.446C301.983 105.023 300.009 104.299 299.343 106.309ZM94.7422 98.2637C92.3797 98.3871 92.3797 98.3871 90.7682 99.6653C92.408 99.4418 93.6308 99.0106 94.7422 98.2637ZM240.04 69.7316C239.206 69.3159 237.984 69.7472 237.178 70.3863C237.289 70.7019 237.289 70.7019 237.401 71.0175C240.457 69.9394 239.846 70.155 240.04 69.7316ZM93.6159 190.578C92.6988 190.901 91.6704 190.909 90.559 191.656C91.8931 191.54 92.6988 190.901 93.6159 190.578ZM198.306 162.882C198.807 162.351 196.333 162.158 196.055 163.321C195.861 163.744 197.612 163.836 198.306 162.882ZM305.823 52.5639C303.572 53.003 303.572 53.003 303.183 53.8499C304.1 53.5264 304.712 53.3108 305.823 52.5639ZM90.5277 121.398C89.388 121.091 88.9992 121.938 88.0822 122.261C88.9992 121.938 89.6106 121.722 90.5277 121.398ZM229.716 102.829C231.244 102.29 231.355 102.606 232.161 101.967C231.133 101.974 230.521 102.19 229.716 102.829ZM123.219 193.623C122.385 193.208 121.885 193.739 121.079 194.378C121.996 194.054 122.302 193.947 123.219 193.623ZM254.519 64.9799C255.548 64.9721 254.936 65.1877 256.659 64.2252C255.02 64.4486 255.631 64.233 254.519 64.9799ZM159.149 175.627C158.315 175.212 157.398 175.535 156.704 176.49C157.538 176.906 158.455 176.582 159.149 175.627ZM109.956 182.331C110.678 182.431 111.29 182.215 112.095 181.576C111.373 181.476 110.456 181.8 109.956 182.331ZM71.2442 134.943C72.1613 134.619 73.4954 134.503 72.8557 133.664C72.6331 133.033 71.9386 133.988 71.2442 134.943ZM102.727 116.031C101.699 116.039 101.087 116.255 100.587 116.786C101.616 116.778 101.004 116.994 102.727 116.031ZM206.73 166.299C206.007 166.199 205.396 166.415 204.896 166.946C205.618 167.046 206.118 166.515 206.73 166.299ZM108.284 173.693C107.256 173.701 107.561 173.593 107.061 174.124C107.478 174.332 107.173 174.44 108.284 173.693ZM49.9795 193.547C49.7568 192.915 48.8398 193.239 48.6454 193.662C48.451 194.086 49.1737 194.186 49.4794 194.078C49.7851 193.97 49.7851 193.97 49.9795 193.547ZM269.572 100.838C269.878 100.73 270.072 100.307 270.072 100.307C269.655 100.099 269.238 99.8914 268.433 100.53C268.544 100.846 269.267 100.946 269.572 100.838ZM71.3659 158.677C71.2546 158.362 71.6716 158.57 70.3375 158.685C70.1431 159.109 70.1431 159.109 71.3659 158.677ZM272.25 58.7266C272.361 59.0422 271.944 58.8344 273.278 58.7188C273.167 58.4032 273.472 58.2953 272.25 58.7266ZM76.0418 110.537C75.0134 110.545 75.3191 110.437 74.819 110.969C75.5417 111.069 75.236 111.176 76.0418 110.537ZM100.923 121.636C101.34 121.844 101.951 121.628 102.452 121.097C102.035 120.889 101.423 121.105 100.923 121.636ZM88.4809 206.23C88.1752 206.338 87.7582 206.13 87.8695 206.445C87.0637 207.084 88.3147 207.708 88.4809 206.23ZM138.698 187.809C138.809 188.125 138.698 187.809 139.615 187.485C139.309 187.593 139.615 187.485 138.698 187.809ZM229.529 57.4689C229.417 57.1532 229.417 57.1532 229.223 57.5767L229.529 57.4689ZM237.477 54.6657C237.171 54.7735 237.171 54.7735 237.171 54.7735L237.477 54.6657ZM240.422 53.2719C240.534 53.5875 240.534 53.5875 240.728 53.1641L240.422 53.2719ZM323.85 26.6868C324.156 26.579 324.045 26.2634 323.85 26.6868C323.739 26.3712 323.433 26.479 323.85 26.6868C323.545 26.7947 323.545 26.7947 323.85 26.6868ZM236.316 68.9159C236.427 69.2316 236.316 68.9159 236.621 68.8081L236.316 68.9159ZM261.856 62.3923C261.856 62.3923 261.55 62.5001 261.856 62.3923V62.3923ZM62.6847 137.961C61.7677 138.285 63.0187 138.908 62.6847 137.961C62.7961 138.277 62.6847 137.961 62.6847 137.961ZM315.022 50.3842C315.022 50.3842 314.828 50.8076 315.022 50.3842C315.356 51.3311 315.745 50.4842 315.022 50.3842C315.022 50.3842 315.328 50.2763 315.022 50.3842ZM284.981 61.6891C285.092 62.0048 285.092 62.0048 285.287 61.5813L284.981 61.6891ZM317.385 50.2607C316.968 50.0529 317.079 50.3685 317.385 50.2607C317.69 50.1529 317.385 50.2607 317.385 50.2607ZM315.19 52.8092C315.607 53.017 315.301 53.1248 315.801 52.5936C315.384 52.3858 315.384 52.3858 315.19 52.8092ZM320.92 63.2094C321.532 62.9937 321.226 63.1016 321.532 62.9937C320.809 62.8937 320.809 62.8937 320.92 63.2094ZM65.5577 160.726C65.252 160.834 65.252 160.834 65.252 160.834C65.5577 160.726 65.252 160.834 65.5577 160.726ZM67.5863 159.655C67.3919 160.079 67.3919 160.079 67.5863 159.655V159.655ZM302.582 77.4847L302.888 77.3769L302.471 77.169C302.165 77.2769 301.859 77.3847 302.276 77.5925C302.165 77.2769 302.165 77.2769 302.582 77.4847ZM250.174 106.26C250.591 106.468 250.285 106.576 251.091 105.937C250.674 105.729 250.98 105.621 250.174 106.26ZM61.9246 178.687C61.9246 178.687 61.5076 178.479 61.3132 178.903C61.0075 179.011 61.4245 179.218 61.7302 179.111C61.6189 178.795 61.9246 178.687 61.9246 178.687ZM285.028 105.679C285.334 105.571 285.334 105.571 285.028 105.679C285.223 105.256 284.917 105.363 284.917 105.363C284.611 105.471 284.611 105.471 284.723 105.787C285.028 105.679 285.028 105.679 285.028 105.679ZM111.035 172.723C110.618 172.515 110.618 172.515 110.424 172.938C110.841 173.146 110.535 173.254 111.035 172.723ZM197.552 153.921C197.246 154.028 197.246 154.028 197.552 153.921C197.858 153.813 197.552 153.921 197.552 153.921ZM134.747 178.556C134.33 178.348 134.33 178.348 134.135 178.771C134.441 178.663 134.441 178.663 134.747 178.556ZM180.491 165.971C180.491 165.971 180.797 165.863 180.686 165.547L180.269 165.34C179.963 165.447 179.657 165.555 180.074 165.763C180.186 166.079 180.186 166.079 180.491 165.971ZM203.618 169.171C204.035 169.379 204.035 169.379 203.924 169.063L203.618 169.171ZM50.6404 179.828C50.7518 180.143 50.3347 179.936 50.6404 179.828V179.828Z" fill="#97BC59"/>
<path d="M261.678 36.5481C260.427 35.9246 260.149 37.0872 259.344 37.7262C257.509 38.3731 255.953 37.8575 254.007 38.1888C251.062 39.5825 247.699 40.7685 244.225 41.6389C243.614 41.8545 240.057 43.4639 238.111 43.7952C233.72 44.9889 229.44 46.4984 224.966 48.4312C222.021 49.825 211.988 51.5891 211.016 53.7063C211.21 53.2829 210.099 54.0298 210.099 54.0298C209.876 53.3985 209.07 54.0376 209.07 54.0376C209.793 54.1376 209.987 53.7142 210.599 53.4985C209.599 54.561 211.127 54.022 204.402 56.3939C202.262 57.1486 203.456 55.6626 198.26 57.4955C134.064 80.1367 159.936 70.6568 153.628 73.2365C148.126 75.1772 153.545 73.9756 145.597 76.7788C140.4 78.6116 142.012 77.3335 136.204 79.382C127.227 82.193 129.784 81.6461 112.971 87.5759C73.3137 100.853 72.8701 103.494 72.0626 100.229C76.8141 97.134 74.3686 97.9965 140.093 74.8163C315.784 13.5616 312.618 18.2273 313.729 17.4804C316.063 16.3023 317.092 16.2945 324.345 14.446C324.151 14.8694 324.262 15.1851 324.262 15.1851C293.693 25.9666 318.954 16.7023 286.022 27.6073C281.131 29.3323 281.408 28.1698 273.794 31.9199C272.46 32.0355 271.043 32.8902 269.709 33.0058C267.346 33.1293 265.541 34.8309 264.624 35.1543C263.706 35.4778 262.678 35.4856 262.067 35.7012C261.872 36.1246 261.567 36.2325 261.678 36.5481ZM204.068 55.447C204.79 55.547 205.402 55.3314 205.902 54.8001C205.291 55.0158 204.568 54.9158 204.068 55.447Z" fill="#97BC59"/>
<path d="M196.506 176.293C197.2 175.338 196.172 175.346 200.869 174.044C206.065 172.212 210.956 170.487 216.265 168.969C218.599 167.791 220.933 166.613 223.379 165.751C229.909 163.802 244.638 156.833 245.86 156.402C251.669 154.353 250.306 153.414 254.197 152.752C254.337 154.122 252.391 154.453 254.642 154.014C254.948 153.906 255.56 153.691 255.782 154.322C254.171 155.6 252.142 156.671 250.197 157.002C247.945 157.441 246.862 159.243 245.639 159.674C240.748 161.399 243.417 161.168 243.639 161.799C242.445 163.285 240.748 161.399 239.748 162.461C237.637 164.271 234.08 165.88 231.217 166.535C227.437 167.513 226.549 168.891 222.38 170.716C222.38 170.716 178.917 187.82 177.36 187.304C177.554 186.881 177.749 186.457 177.943 186.034C176.109 186.681 174.469 186.904 173.275 188.39C172.663 188.606 171.941 188.506 171.329 188.721C165.798 189.607 165.855 191.717 164.687 190.354C167.882 186.743 167.41 188.329 180.027 183.17C178.275 183.078 176.97 184.248 175.524 184.048C175.83 183.94 175.719 183.624 176.024 183.517C191.198 177.81 192.587 175.901 196.506 176.293C196.923 176.501 197.034 176.816 197.534 176.285C196.811 176.185 196.811 176.185 196.506 176.293Z" fill="#97BC59"/>
<path d="M268.89 129.115C268.807 129.854 268.613 130.278 268.53 131.017C271.615 130.993 271.198 130.786 271.226 131.84C272.671 132.04 274.589 130.654 276.062 131.909C274.757 133.079 275.257 132.548 273.839 133.403C275.479 133.179 276.813 133.064 277.564 134.218C278.093 134.742 279.01 134.418 279.344 135.365C279.344 135.365 279.455 135.681 279.149 135.789C274.12 140.047 275.843 139.084 273.592 139.523C272.118 138.269 271.979 136.898 269.199 136.814C268.477 136.714 267.643 136.298 266.92 136.198C267.114 135.775 267.42 135.667 267.42 135.667C267.92 135.136 267.392 134.612 266.669 134.512C265.64 134.52 266.78 134.828 264.612 134.528C264.389 133.897 265.918 133.358 265.084 132.942C263.555 133.481 261.944 134.759 260.081 134.351C259.331 133.197 258.385 132.465 261.025 131.179L261.331 131.072C264.305 130.733 266.639 129.554 268.89 129.115Z" fill="#97BC59"/>
<path d="M143.482 70.7818C144.539 71.8287 142.065 71.6365 140.036 72.7068C139.425 72.9224 131.783 75.6178 131.783 75.6178C129.031 76.5882 126.391 77.8741 123.529 78.5288C120.889 79.8148 118.026 80.4695 115.275 81.4398C66.5866 99.3215 76.4802 96.1871 73.2006 96.634C73.7007 96.1027 73.895 95.6793 74.2007 95.5714C84.4547 90.5354 88.9571 89.6572 104.548 84.1587C121.778 78.4366 106.382 83.5118 143.482 70.7818Z" fill="#97BC59"/>
<path d="M84.1994 203.836C83.8937 203.944 83.6994 204.367 83.3937 204.475C80.6424 205.445 77.5855 206.523 74.7229 207.178C73.3888 207.294 68.192 209.127 67.4976 210.081C65.9974 211.675 64.6633 211.791 58.8551 213.839C58.1324 213.739 57.521 213.955 57.2983 213.324C57.8532 210.999 65.9143 212.414 66.2465 209.458C65.6069 208.619 64.1897 209.474 63.3557 209.058C61.9103 208.858 63.4105 207.264 64.7446 207.148C67.4128 206.917 70.2753 206.263 72.9435 206.031C80.7537 205.761 81.5312 204.067 84.1994 203.836Z" fill="#97BC59"/>
<path d="M82.4005 221.15C81.7608 220.311 81.9552 219.888 82.761 219.249C83.261 218.717 104.243 210.963 113.025 208.575C109.579 210.5 102.131 212.772 97.1569 215.236C95.3227 215.883 93.1546 215.583 82.4005 221.15Z" fill="#97BC59"/>
<path d="M284.899 127.728C287.705 124.964 291.236 126.203 291.542 126.095C292.764 125.664 294.293 125.125 295.821 124.586C296.461 125.425 295.461 126.487 294.544 126.811C292.515 127.881 290.904 129.159 289.403 130.753C287.875 131.292 286.847 131.3 285.707 130.992C285.901 130.569 286.096 130.145 286.29 129.722C286.067 129.09 284.511 128.575 284.899 127.728Z" fill="#97BC59"/>
<path d="M301.518 122.222C301.907 121.375 302.184 120.212 302.573 119.365C304.185 118.087 306.213 117.017 307.296 115.215C308.325 115.207 308.936 114.992 309.659 115.092C309.464 115.515 309.576 115.831 309.576 115.831C308.659 116.154 307.853 116.793 307.77 117.532C307.381 118.379 306.853 117.856 306.353 118.387C304.075 121.675 304.352 120.512 304.52 122.937C302.937 125.27 300.38 125.817 297.518 126.472C297.878 124.57 296.878 125.633 301.518 122.222Z" fill="#97BC59"/>
<path d="M308.85 107.924C310.378 107.385 311.489 106.638 312.795 105.468C314.129 105.352 314.463 106.299 315.492 106.291C316.214 106.391 316.715 105.86 317.02 105.752C317.632 105.537 318.66 105.529 319.188 106.052C319.717 106.576 319.522 106.999 319.328 107.423C319.439 107.738 319.856 107.946 320.273 108.154C319.467 108.793 318.884 110.063 317.439 109.863C317.328 109.548 317.216 109.232 316.799 109.024C313.603 108.732 314.743 109.04 314.297 107.777C314.186 107.462 313.658 106.938 313.463 107.362C311.74 108.324 310.212 108.863 308.155 108.879C308.766 108.663 308.544 108.032 308.85 107.924Z" fill="#97BC59"/>
<path d="M323.707 78.9066C324.401 77.9519 325.735 77.8362 326.541 77.1972C326.124 76.9893 325.818 77.0972 325.818 77.0972C325.067 75.9425 325.15 75.2034 327.568 73.2862C327.873 73.1783 328.485 72.9627 328.791 72.8549C329.43 73.694 330.376 74.4252 331.515 74.733C329.904 76.0112 330.404 75.4799 329.626 77.1737C323.818 79.2222 325.347 78.6831 323.707 78.9066Z" fill="#97BC59"/>
<path d="M234.913 39.5998C227.187 43.0343 219.128 45.5218 210.874 48.4328C210.235 47.5938 209.123 48.3407 234.913 39.5998Z" fill="#97BC59"/>
<path d="M190.281 55.3409C188.864 56.1956 172.551 61.5942 171.023 62.1333C170.911 61.8177 170.8 61.502 171.106 61.3942C171.3 60.9708 171.912 60.7551 172.217 60.6473C174.774 60.1004 177.108 58.9223 179.665 58.3754C181.305 58.1519 189.142 55.0331 190.281 55.3409Z" fill="#97BC59"/>
<path d="M309.243 118.787C309.438 118.363 309.215 117.732 309.521 117.624C311.021 116.031 314.772 113.998 315.523 115.152C316.58 116.199 311.912 118.556 309.243 118.787Z" fill="#97BC59"/>
<path d="M274.681 26.6385C270.624 28.7792 271.013 27.9323 265.511 29.8729C262.454 30.9511 261.842 31.1667 261.119 31.0667C262.12 30.0042 265.511 29.8729 269.456 27.4166C270.873 26.5619 272.513 26.3385 274.264 26.4307C274.57 26.3229 274.57 26.3229 274.681 26.6385Z" fill="#97BC59"/>
<path d="M324.709 81.7473C324.82 82.0629 325.237 82.2707 325.237 82.2707C324.988 84.4879 320.014 86.952 319.374 86.113C319.263 85.7973 319.151 85.4817 319.457 85.3739C320.957 83.7801 322.569 82.502 324.709 81.7473Z" fill="#97BC59"/>
<path d="M158.851 191.348C158.962 191.664 158.768 192.087 158.879 192.403C159.602 192.503 160.407 191.864 160.936 192.387C158.101 194.097 157.796 194.204 155.322 194.012C154.488 193.597 155.182 192.642 154.765 192.434C155.154 191.587 155.905 192.742 157.016 191.995C157.628 191.779 158.239 191.564 158.851 191.348Z" fill="#97BC59"/>
<path d="M67.2167 203.438C70.134 200.989 75.8592 199.68 76.3875 200.203C77.7499 201.142 69.3565 202.683 67.2167 203.438Z" fill="#97BC59"/>
<path d="M56.0773 217.658C53.1317 219.052 52.5203 219.268 47.8236 220.569C46.7669 219.522 50.3804 220.022 52.1863 218.321C53.1865 217.258 54.5206 217.143 55.8547 217.027C55.8547 217.027 55.966 217.343 56.0773 217.658Z" fill="#97BC59"/>
<path d="M246.187 141.736C245.161 145.647 239.628 142.63 243.185 141.02C244.297 140.274 245.242 141.005 246.187 141.736Z" fill="#97BC59"/>
<path d="M49.8312 172.66C49.5255 172.768 49.6369 173.084 49.3312 173.192C45.6628 174.486 42.1058 176.095 37.7148 177.289C40.8548 175.471 45.1345 173.962 49.8312 172.66Z" fill="#97BC59"/>
<path d="M306.839 86.6301C311.619 84.5894 309.979 84.8129 313.064 84.7894C314.092 84.7816 314.898 84.1425 315.732 84.5582C314.426 85.7285 312.898 86.2676 311.147 86.1754C309.813 86.291 308.09 87.2535 306.839 86.6301Z" fill="#97BC59"/>
<path d="M162.852 64.3051C164.269 63.4504 162.741 63.9895 168.355 62.3644C168.466 62.68 168.577 62.9957 168.271 63.1035C166.854 63.9582 165.02 64.6051 163.075 64.9363C163.38 64.8285 163.269 64.5129 162.852 64.3051Z" fill="#97BC59"/>
<path d="M264.331 127.884C264.443 128.2 264.748 128.092 264.359 128.939C261.691 129.17 259.051 130.456 255.772 130.903C259.217 128.978 260.746 128.439 264.331 127.884Z" fill="#97BC59"/>
<path d="M203.121 50.8125C201.592 51.3516 193.95 54.047 193.338 54.2626C193.533 53.8392 193.727 53.4157 193.727 53.4157C197.201 52.5454 199.952 51.575 203.121 50.8125Z" fill="#97BC59"/>
<path d="M215.199 148.406C215.699 147.875 214.477 148.306 223.647 145.072C223.953 144.964 224.787 145.38 224.481 145.488C223.981 146.019 224.898 145.695 215.616 148.614C215.616 148.614 215.505 148.299 215.199 148.406Z" fill="#97BC59"/>
<path d="M78.2216 199.556C79.0274 198.917 77.4989 199.456 86.0583 196.437C86.364 196.329 86.9754 196.114 87.6981 196.214C85.1695 197.815 82.307 198.47 79.8614 199.333C79.5557 199.44 79.1387 199.233 78.2216 199.556Z" fill="#97BC59"/>
<path d="M297.624 115.078C298.735 114.331 299.541 113.692 301.069 113.153C302.598 112.613 302.903 112.506 303.96 113.553C303.266 114.507 302.015 113.884 300.792 114.315C299.875 114.638 298.958 114.962 298.346 115.178C298.152 115.601 297.735 115.393 297.624 115.078Z" fill="#97BC59"/>
<path d="M236.709 141.175C239.349 139.889 242.183 138.18 245.157 137.841C244.463 138.795 239.349 139.889 236.709 141.175Z" fill="#97BC59"/>
<path d="M54.2765 231.069C55.0823 230.43 53.8595 230.861 61.8076 228.058C61.8076 228.058 62.1133 227.95 62.2246 228.266C61.7245 228.797 61.7245 228.797 54.2765 231.069Z" fill="#97BC59"/>
<path d="M344.844 46.2544C343.872 48.3716 341.732 49.1263 340.787 48.3951C339.953 47.9794 342.259 45.7466 344.844 46.2544Z" fill="#97BC59"/>
<path d="M338.991 73.5159C333.795 75.3487 334.406 75.1331 334.295 74.8175C338.157 73.1002 339.269 72.3533 338.991 73.5159Z" fill="#97BC59"/>
<path d="M316.564 81.0708C315.87 82.0255 316.981 81.2786 311.479 83.2192C311.562 82.4802 311.256 82.588 316.564 81.0708Z" fill="#97BC59"/>
<path d="M279.869 128.083C281.091 127.651 281.425 128.598 280.203 129.029C280.203 129.029 279.591 129.245 279.285 129.353C278.98 129.461 278.563 129.253 278.868 129.145C278.534 128.198 279.869 128.083 279.869 128.083Z" fill="#97BC59"/>
<path d="M38.3988 152.915C38.982 151.645 40.2047 151.213 40.3161 151.529C40.3161 151.529 40.3443 152.584 38.3988 152.915Z" fill="#97BC59"/>
<path d="M75.9271 102.415C78.2613 101.237 78.8727 101.022 79.5954 101.122C79.0953 101.653 79.0953 101.653 75.9271 102.415Z" fill="#97BC59"/>
<path d="M337.877 66.4564C336.237 66.6798 336.237 66.6798 337.543 65.5095C337.848 65.4017 337.737 65.0861 338.043 64.9783C338.848 64.3392 339.182 65.2861 338.988 65.7095C338.794 66.133 338.182 66.3486 337.877 66.4564Z" fill="#97BC59"/>
<path d="M211.225 149.808C209.614 151.086 208.697 151.41 207.362 151.525C208.251 150.147 209.28 150.139 211.225 149.808Z" fill="#97BC59"/>
<path d="M295.818 116.779C295.012 117.418 294.095 117.742 292.872 118.173C292.566 118.281 292.455 117.965 292.344 117.65C291.927 117.442 294.789 116.787 295.095 116.679C295.401 116.571 295.818 116.779 295.818 116.779Z" fill="#97BC59"/>
<path d="M34.7057 160.96C34.3169 161.807 33.6225 162.762 33.0942 162.239C32.9828 161.923 32.9546 160.868 34.7057 160.96Z" fill="#97BC59"/>
<path d="M53.0521 227.597C53.7748 227.697 54.8032 227.69 55.6372 228.105C55.0541 229.376 52.1915 230.03 52.6633 228.444C52.7464 227.705 53.3578 227.49 53.0521 227.597Z" fill="#97BC59"/>
<path d="M258.98 31.8216C257.257 32.7841 258.174 32.4606 256.228 32.7919C257.34 32.045 257.34 32.045 258.98 31.8216Z" fill="#97BC59"/>
<path d="M259.868 153.236C260.062 152.813 260.256 152.389 260.562 152.281C260.868 152.174 261.59 152.274 261.702 152.589C261.619 153.328 260.896 153.228 259.868 153.236Z" fill="#97BC59"/>
<path d="M227.073 161.608C225.962 162.355 225.351 162.571 224.017 162.686C225.239 162.255 225.851 162.04 227.073 161.608Z" fill="#97BC59"/>
<path d="M34.8875 194.611C34.193 195.566 33.1646 195.573 32.1362 195.581C33.0533 195.258 33.8591 194.619 34.8875 194.611Z" fill="#97BC59"/>
<path d="M121.278 205.664C120.778 206.195 120.167 206.411 119.139 206.419C119.833 205.464 120.556 205.564 121.278 205.664Z" fill="#97BC59"/>
<path d="M227.18 150.214C227.985 149.575 228.791 148.936 229.625 149.352C229.125 149.883 228.514 150.099 227.18 150.214Z" fill="#97BC59"/>
<path d="M284.899 127.728C284.288 127.943 283.259 127.951 283.037 127.32C283.037 127.32 283.231 126.897 283.537 126.789C284.76 126.357 284.594 127.836 284.899 127.728Z" fill="#97BC59"/>
<path d="M308.349 108.456C308.378 109.51 306.543 110.157 305.709 109.742C307.627 108.356 308.766 108.663 308.349 108.456Z" fill="#97BC59"/>
<path d="M334.461 73.3392C335.072 73.1236 335.684 72.908 336.295 72.6923C335.795 73.2236 335.184 73.4392 334.461 73.3392Z" fill="#97BC59"/>
<path d="M327.594 70.4376C328.094 69.9064 328.594 69.3751 329.206 69.1595C329.512 69.0517 329.623 69.3673 329.929 69.2595C327.177 70.2298 327.483 70.122 327.594 70.4376Z" fill="#97BC59"/>
<path d="M35.8771 170.129C35.2657 170.345 34.7657 170.876 34.043 170.776C34.543 170.245 35.1544 170.029 35.8771 170.129Z" fill="#97BC59"/>
<path d="M296.933 123.839C297.35 124.047 296.738 124.262 295.516 124.693C295.516 124.693 296.516 123.631 296.933 123.839Z" fill="#97BC59"/>
<path d="M253.273 137.462C254.079 136.823 253.773 136.931 254.496 137.031C253.996 137.562 254.302 137.455 253.273 137.462Z" fill="#97BC59"/>
<path d="M301.651 107.979C300.845 108.618 301.151 108.51 300.734 108.302C301.539 107.663 301.234 107.771 301.651 107.979Z" fill="#97BC59"/>
<path d="M35.7445 184.372C36.5503 183.733 36.2446 183.84 36.9673 183.94C36.1615 184.579 36.5785 184.787 35.7445 184.372Z" fill="#97BC59"/>
<path d="M70.3671 225.039C69.867 225.571 69.867 225.571 69.1443 225.471C69.7557 225.255 69.7557 225.255 70.3671 225.039Z" fill="#97BC59"/>
<path d="M68.4295 118.191C67.6237 118.83 67.9294 118.722 66.901 118.73C67.7068 118.091 67.4011 118.198 68.4295 118.191Z" fill="#97BC59"/>
<path d="M339.496 19.3945L339.607 19.7101C339.412 20.1336 338.578 19.718 338.884 19.6102C338.773 19.2945 339.496 19.3945 339.496 19.3945Z" fill="#97BC59"/>
<path d="M161.129 65.2676C161.352 65.8989 160.323 65.9067 160.212 65.5911C160.101 65.2755 160.406 65.1676 161.129 65.2676C160.823 65.3755 160.712 65.0598 161.129 65.2676Z" fill="#97BC59"/>
<path d="M153.376 67.6474C152.57 68.2865 152.875 68.1787 152.458 67.9709C153.264 67.3318 152.959 67.4396 153.376 67.6474Z" fill="#97BC59"/>
<path d="M71.626 118.483C72.5431 118.159 72.2374 118.267 72.8488 118.052C71.7373 118.799 72.043 118.691 71.626 118.483Z" fill="#97BC59"/>
<path d="M146.456 70.4428L146.15 70.5506C146.039 70.235 146.039 70.235 146.345 70.1272C146.345 70.1272 146.65 70.0194 146.762 70.335C146.65 70.0194 146.65 70.0194 146.456 70.4428Z" fill="#97BC59"/>
<path d="M157.767 66.4536C157.461 66.5614 157.572 66.877 157.767 66.4536C156.961 67.0927 157.044 66.3536 157.767 66.4536C157.461 66.5614 157.35 66.2458 157.767 66.4536Z" fill="#97BC59"/>
<path d="M253.588 34.0777C253.477 33.7621 253.171 33.8699 253.588 34.0777C253.171 33.8699 253.477 33.7621 253.588 34.0777C253.783 33.6543 254.089 33.5465 253.588 34.0777Z" fill="#97BC59"/>
<path d="M211.21 53.283C211.516 53.1751 212.127 52.9595 212.544 53.1673L212.238 53.2751C211.21 53.283 211.21 53.283 211.21 53.283Z" fill="#97BC59"/>
<path d="M73.7872 103.17L73.4815 103.278C73.1758 103.386 72.8701 103.494 73.0645 103.07C73.3702 102.962 73.7872 103.17 73.7872 103.17Z" fill="#97BC59"/>
<path d="M277.879 92.2303C277.073 92.8694 277.379 92.7616 276.962 92.5537C277.768 91.9147 277.462 92.0225 277.879 92.2303Z" fill="#97BC59"/>
<path d="M306.839 86.6301C305.616 87.0614 306.227 86.8457 305.505 86.7457C305.505 86.7457 305.699 86.3223 306.116 86.5301C306.533 86.7379 306.95 86.9457 306.839 86.6301Z" fill="#97BC59"/>
<path d="M305.545 115.123L305.239 115.231C304.628 115.446 305.017 114.6 305.545 115.123C305.434 114.807 305.434 114.807 305.545 115.123Z" fill="#97BC59"/>
<path d="M234.681 142.245C234.792 142.561 234.792 142.561 234.375 142.353L234.681 142.245Z" fill="#97BC59"/>
<path d="M195.803 157.732C196.108 157.624 195.997 157.308 196.303 157.2L196.72 157.408C196.525 157.832 196.22 157.939 195.803 157.732C195.803 157.732 195.914 158.047 195.803 157.732Z" fill="#97BC59"/>
<path d="M254.054 143.575C254.249 143.152 254.249 143.152 254.554 143.044L254.86 142.936C254.777 143.675 253.637 143.367 254.054 143.575Z" fill="#97BC59"/>
<path d="M53.3578 227.49C53.0238 226.543 54.3579 226.427 54.4692 226.743C54.6919 227.374 52.9408 227.282 53.3578 227.49Z" fill="#97BC59"/>
<path d="M162.408 189.739C162.102 189.846 162.102 189.846 161.796 189.954C161.991 189.531 161.991 189.531 162.408 189.739Z" fill="#97BC59"/>
<path d="M152.876 194.875C152.488 195.722 152.376 195.406 152.07 195.514C153.182 194.767 152.876 194.875 152.876 194.875Z" fill="#97BC59"/>
<path d="M152.876 194.875C153.071 194.451 153.071 194.451 152.876 194.875V194.875Z" fill="#97BC59"/>
<path d="M253.943 143.259C253.748 143.683 253.748 143.683 253.943 143.259V143.259Z" fill="#97BC59"/>
<path d="M247.188 140.673C247.382 140.25 247.382 140.25 247.188 140.673V140.673Z" fill="#97BC59"/>
<path d="M104.9 189.437C104.594 189.545 104.289 189.653 104.483 189.229C104.483 189.229 104.483 189.229 104.9 189.437C104.594 189.545 104.9 189.437 104.9 189.437Z" fill="#97BC59"/>
<path d="M305.819 106.154C306.236 106.362 306.236 106.362 305.819 106.154V106.154Z" fill="#97BC59"/>
<path d="M305.819 106.154C305.513 106.262 305.513 106.262 305.096 106.054C305.708 105.838 305.625 106.577 305.819 106.154Z" fill="#97BC59"/>
<path d="M327.483 70.122C327.289 70.5455 327.289 70.5455 327.483 70.122V70.122Z" fill="#97BC59"/>
<path d="M70.905 122.286C70.3767 121.763 71.0994 121.863 71.4051 121.755C71.0994 121.863 71.0994 121.863 70.905 122.286Z" fill="#97BC59"/>
<path d="M286.366 51.9733C286.672 51.8655 286.561 51.5499 286.866 51.4421C293.369 48.4389 293.203 49.917 292.897 50.0249C291.174 50.9874 289.34 51.6343 287.395 51.9655C286.895 52.4968 286.478 52.289 286.366 51.9733Z" fill="#97BC59"/>
</g>
<defs>
<clipPath id="clip0_1_164">
<rect width="363.372" height="122.16" fill="white" transform="translate(0 121.031) rotate(-19.4272)"/>
</clipPath>
</defs>
</svg>
