<svg width="377" height="288" viewBox="0 0 377 288" fill="none" xmlns="http://www.w3.org/2000/svg">
<path d="M266.341 46.9128C267.129 45.6848 269.148 45.2921 269.094 44.5503C268.926 44.2604 268.759 43.9706 268.759 43.9706C262.875 43.5033 266.805 41.2342 255.409 47.4274C250.356 50.3447 252.548 48.3063 249.179 50.2512C247.495 51.2237 250.75 49.7307 244.968 52.6824C243.737 51.8471 247.441 50.4819 248.677 49.3817C248.958 49.2196 249.352 48.6056 249.632 48.4436C248.121 47.7704 247.219 49.4503 245.929 49.8088C245.762 49.5189 245.708 48.7771 245.427 48.9392C244.866 49.2634 244.137 49.2977 243.743 49.9117C242.506 51.0119 240.935 51.5324 239.251 52.5049C232.454 57.5884 227.013 59.1842 224.26 61.5468C222.743 62.8091 221.118 62.5878 217.803 65.2745C216.513 65.6329 215.892 67.1508 214.154 67.3815C212.135 67.7742 210.671 69.7783 209.662 69.9747C207.924 70.2053 201.24 74.8369 195.793 78.3682C187.258 83.6824 177.827 88.741 176.143 89.7135C168.336 94.9934 170.755 92.0511 167.721 94.5757C167.046 95.3518 166.204 95.838 165.475 95.8723C163.456 96.2651 161.993 98.2692 159.693 98.824C155.202 101.417 154.36 101.903 151.272 103.686C144.648 107.124 146.273 107.345 144.588 108.318C132.852 115.867 136.728 112.856 129.878 117.198C126.228 119.305 120.781 122.836 120.5 122.998C113.596 126.598 114.832 125.498 96.3582 136.936C74.5698 151.062 16.8005 183.256 15.6182 185.098C16.1797 184.773 16.9084 184.739 17.4699 184.415C18.8735 183.605 20.3905 182.342 21.9615 181.822C24.3746 180.815 27.6893 178.128 29.8217 177.284C30.8312 177.087 31.506 176.311 32.0674 175.987C33.1903 175.339 34.5939 174.528 35.7168 173.88C36.0515 174.46 35.3227 174.494 33.6923 176.208C26.1614 183.262 17.0758 185.029 12.406 191.203C12.1253 191.365 12.2926 191.655 12.46 191.945C12.7946 192.525 13.1888 191.911 22.9006 186.69C23.1219 187.722 21.3837 187.952 22.1664 188.66C22.5011 189.239 21.9396 189.564 20.8707 190.954C21.4861 191.371 22.1015 191.789 22.6036 192.658C19.683 194.731 14.576 196.907 13.3343 199.942C14.8458 200.616 16.1955 199.063 17.6531 198.995C18.7111 201.476 18.6031 199.992 20.282 200.955C20.7301 201.083 20.9514 202.114 20.3899 202.439C16.2331 205.612 17.1886 204.673 16.8485 206.029C18.9809 205.184 20.4979 203.922 22.0688 203.402C22.965 203.657 24.9785 205.2 22.3387 207.11C21.4965 207.597 22.6194 206.948 17.453 210.318C18.3922 215.186 20.1953 211.826 28.9517 207.544C30.0152 208.089 29.4537 208.413 28.6655 209.641C29.8424 209.735 30.5172 208.958 31.5267 208.762C31.4727 208.02 31.0192 209.828 33.6537 209.853C33.7076 210.595 33.0328 211.371 32.4714 211.695C28.6546 213.512 30.4523 212.088 27.0782 215.968C38.6418 210.065 37.6862 211.003 39.7107 208.675C39.376 208.095 39.0413 207.515 38.874 207.225C39.6622 205.997 39.5488 206.449 38.8255 204.548C41.2386 203.541 43.6517 202.535 44.9474 200.241C45.9569 200.044 46.5723 200.462 47.8625 200.103C46.907 201.042 46.3456 201.366 45.9514 201.98C46.7342 202.687 48.1972 200.683 48.4725 202.457C46.8421 204.171 44.2617 204.888 42.464 206.312C42.3506 206.764 42.3506 206.764 42.912 206.44C46.1673 204.947 46.5614 204.333 47.6843 203.685C47.965 203.522 47.4036 203.847 52.7913 201.509C52.9586 201.799 52.9586 201.799 52.9586 201.799C52.4511 202.865 51.9436 203.931 51.2688 204.707C50.0865 206.549 45.9945 206.592 45.4276 208.852C46.7124 210.429 46.6584 209.687 44.9147 211.853C47.8298 211.716 47.3818 211.588 47.8298 211.716C47.155 212.492 46.4802 213.268 45.3573 213.917C43.3922 215.051 41.5945 216.476 39.6295 217.61C37.9452 218.583 36.4282 219.845 35.0785 221.397C36.9841 221.456 37.8317 219.034 40.0181 218.932C41.4217 218.121 42.8254 217.311 44.5097 216.338C48.8339 213.455 51.2415 214.384 51.4683 213.48L51.1876 213.642C51.5223 214.222 52.2511 214.188 53.2606 213.991C54.2755 211.859 54.0488 212.763 53.9408 211.28C55.4578 210.017 58.9399 207.621 59.7766 209.07C58.9884 210.298 57.2501 210.529 56.0678 212.371C56.0678 212.371 56.2352 212.66 56.1218 213.112C58.5349 212.105 60.3326 210.681 62.2976 209.547C61.5743 207.645 62.0763 208.515 61.1802 208.259C60.7322 208.132 60.8455 207.68 61.1262 207.518C61.5743 207.645 61.4069 207.356 61.909 208.225C62.6378 208.191 63.2532 208.608 64.2627 208.412C66.3951 207.567 68.3062 205.691 70.6059 205.136C70.7733 205.426 70.9406 205.716 70.5465 206.33C70.2658 206.492 69.8717 207.106 69.4236 206.978C63.3071 209.35 59.485 213.103 57.0718 214.11C54.9394 214.954 51.2901 217.061 49.4924 218.486C49.881 219.807 52.1807 219.252 53.0229 218.766C55.1013 217.18 59.8736 214.424 59.8736 214.424C63.9116 213.639 72.4521 206.389 74.7464 207.77C73.17 210.226 70.3143 209.169 67.8363 213.305C67.8903 214.047 68.7324 213.561 68.8998 213.851C68.673 214.754 68.3923 214.916 68.3923 214.916C68.5596 215.206 69.0077 215.334 69.4558 215.462C70.3519 215.717 76.0797 212.024 76.4738 211.41C76.7006 210.506 75.9718 210.54 75.3564 210.123C75.9718 210.54 75.0757 210.285 78.8924 208.468C83.9454 205.55 80.798 208.527 89.2197 203.665C97.9221 198.64 94.3266 201.489 100.783 197.761C110.609 192.089 111.003 191.475 113.47 191.21C115.213 189.044 118.075 188.165 120.32 186.868C120.768 186.996 121.217 187.124 121.665 187.251C120.99 188.027 120.428 188.352 120.034 188.966C120.202 189.255 120.369 189.545 120.369 189.545C121.098 189.511 122.501 188.701 122.161 190.056C118.793 192.001 113.005 196.888 110.144 197.767C108.292 198.45 105.426 201.264 102.284 202.305C100.713 202.826 98.4617 206.058 93.2414 208.686C95.0336 209.197 92.5666 209.462 101.604 205.017C102.446 204.531 103.455 204.334 104.017 204.01C104.578 203.686 105.026 203.814 105.528 204.683C94.796 213.971 91.6056 212.335 93.5597 215.072C93.727 215.361 93.781 216.103 93.9484 216.393C95.4599 217.066 95.854 216.452 97.7596 216.511C98.2077 216.639 98.8231 217.057 99.1038 216.895C100.281 216.988 100.902 215.47 101.965 216.016C102.861 216.271 102.305 214.66 106.737 213.26C107.018 213.098 107.353 213.678 107.239 214.13C107.126 214.582 107.126 214.582 107.013 215.034C108.805 215.545 108.643 213.32 112.676 214.47C110.09 217.122 109.307 216.414 104.594 217.976C104.313 218.138 104.2 218.59 103.638 218.914C108.335 223.159 104.81 220.943 110.084 219.057C111.428 219.441 113.28 218.758 114.792 219.431C113.723 220.821 111.704 221.214 110.635 222.604C111.639 224.343 114.057 221.401 116.076 221.008C118.938 220.129 121.129 218.091 122.425 215.797C123.381 214.859 124.671 214.5 125.794 213.852C126.128 214.432 125.848 214.594 126.182 215.174C126.463 215.012 127.192 214.977 127.753 214.653C127.921 214.943 128.201 214.781 128.369 215.071C129.092 216.972 130.388 214.678 132.795 215.607C133.918 214.958 135.155 213.858 136.839 212.886C135.101 213.116 134.539 213.44 134.599 212.247C135.554 211.309 136.79 210.208 138.194 209.398C139.317 208.75 140.888 208.229 142.011 207.581C145.325 204.894 148.241 204.757 157.844 198.053C165.305 196.064 172.275 189.335 178.332 188.157C181.08 187.73 180.637 185.667 182.991 185.853C185.344 186.04 185.965 184.523 187.536 184.002C187.703 184.292 188.152 184.42 188.319 184.709C189.776 184.641 190.732 183.703 191.407 182.927C191.353 182.185 190.791 182.509 190.511 182.671C190.511 182.671 190.343 182.381 190.063 182.543C190.343 182.381 190.176 182.091 190.457 181.929C192.141 180.957 193.825 179.984 195.677 179.302C197.529 178.619 196.017 177.946 201.572 175.898C207.079 171.173 202.247 175.122 213.195 168.801C213.476 168.639 213.757 168.477 214.205 168.605C212.294 170.481 204.887 173.212 209.033 173.91C209.481 174.037 209.816 174.617 209.535 174.779C207.959 177.235 207.791 176.945 208.293 177.815C208.461 178.105 209.864 177.294 212.056 175.256C215.203 172.279 232.387 161.199 233.051 164.294C233.218 164.584 233.105 165.036 232.991 165.488C231.361 167.202 228.78 167.919 226.869 169.795C228.327 169.727 229.169 169.24 228.829 170.596C227.031 172.02 223.101 174.289 220.353 174.717C216.877 175.178 219.965 173.395 213.789 176.961C206.884 180.561 206.096 181.789 198.463 185.423C195.207 186.916 189.706 189.705 186.786 191.778C186.553 194.617 200.989 183.964 204.687 184.535C199.969 188.032 200.643 187.255 200.249 187.869C201.707 187.801 202.776 186.411 204.12 186.794C204.287 187.084 204.622 187.664 204.957 188.243C208.606 186.136 212.758 184.899 216.353 182.05C217.589 180.95 219.047 180.881 220.898 180.199C225.169 176.574 230.108 174.109 235.161 171.191C236.003 170.705 237.013 170.509 237.574 170.184C244.646 166.874 242.627 167.267 251.216 162.695C251.664 162.822 252.113 162.95 252.393 162.788C252.615 163.82 252.22 164.434 251.659 164.758C248.571 166.541 242.109 172.204 234.983 174.772C234.983 174.772 235.545 174.448 221.795 180.454C215.845 183.116 215.953 184.6 210.62 187.679C193.048 197.438 193.328 197.276 192.486 197.762C190.073 198.769 188.275 200.193 186.03 201.49C183.557 203.69 180.302 205.183 177.327 206.514C174.353 207.845 171.265 209.628 168.457 211.249C168.177 211.411 168.063 211.863 167.502 212.187C168.511 211.99 180.075 206.087 183.217 205.046C184.059 204.56 185.517 204.491 186.019 205.361C186.299 205.199 186.747 205.326 187.028 205.164C220.207 186.781 204.373 196.309 208.978 193.264C211.786 191.643 214.479 190.475 217.508 189.885C220.817 189.134 225.816 185.475 229.687 184.4C230.416 184.365 231.091 183.589 231.652 183.265C234.179 181.807 245.963 176.935 258.596 169.642C313.504 138.327 303.511 143.71 309.574 140.596C310.303 140.562 310.751 140.689 311.031 140.527C314.454 139.324 314.006 139.196 318.838 135.247C321.137 134.693 322.876 134.462 323.945 133.072C326.083 130.292 330.515 128.892 332.145 127.178C330.968 127.084 331.643 126.308 326.871 129.064C325.186 130.036 323.783 130.846 321.596 130.949C320.247 132.502 318.562 133.474 316.43 134.319C313.455 135.65 312.781 136.426 305.315 140.35C288.979 149.008 290.717 148.778 289.654 148.232L289.767 147.78C292.968 145.546 291.673 147.839 299.031 142.432C303.074 139.711 316.376 133.577 340.918 117.089C343.277 115.34 347.542 113.651 349.62 112.065C350.182 111.741 350.743 111.416 351.304 111.092C352.595 110.734 353.27 109.958 354.225 109.02C356.077 108.337 357.426 106.785 359.278 106.102C360.12 105.616 361.243 104.968 362.199 104.03C359.786 105.036 357.82 106.171 355.688 107.015C354.398 107.374 353.61 108.602 352.039 109.122C350.3 109.353 351.645 109.736 339.968 116.092C338.845 116.74 337.555 117.098 336.712 117.585C336.432 117.747 335.816 117.329 335.535 117.491C333.851 118.464 329.694 121.637 329.694 121.637C327.897 123.061 325.376 122.584 325.77 121.97C326.05 121.808 326.164 121.356 326.164 121.356C328.971 119.735 331.611 117.825 334.753 116.784C335.87 118.071 335.087 117.363 335.93 116.877C340.648 113.38 339.244 114.191 344.071 112.177C345.193 111.529 345.701 110.463 346.991 110.104C348.001 109.908 349.124 109.26 349.685 108.936C350.587 107.256 348.962 107.034 347.445 108.297C345.814 110.011 343.795 110.404 341.663 111.248C338.067 114.097 336.443 113.876 334.197 115.172C328.021 118.738 331.336 116.051 322.352 121.238C314.773 125.614 317.58 123.993 314.325 125.486C314.778 123.678 313.429 125.231 320.226 120.147C322.196 117.077 321.408 118.305 324.274 115.491C324.107 115.201 324.221 114.749 324.221 114.749C324.053 114.459 323.438 114.041 323.157 114.203C320.463 115.372 314.282 120.873 313.046 121.974C309.618 125.112 309.51 123.629 307.377 124.473C305.693 125.446 303.841 126.128 301.655 126.231C300.478 126.138 299.355 126.786 298.065 127.145C298.292 126.241 298.405 125.789 298.351 125.047C297.228 125.695 295.938 126.054 295.096 126.54C294.54 124.929 296.953 123.922 298.805 123.239C299.42 123.657 299.868 123.785 300.316 123.913C300.764 124.04 301.326 123.716 301.158 123.426C301.272 122.974 301.218 122.233 301.331 121.781C303.69 120.032 304.252 119.708 305.256 121.447C305.758 122.317 305.758 122.317 307.215 122.248C308.057 121.762 309.915 119.144 310.309 118.53C309.299 118.726 308.57 118.76 307.561 118.957C307.62 117.763 308.182 117.439 313.515 114.36C329.517 105.121 317.278 111.801 327.719 106.546C329.403 105.573 329.063 106.929 333.387 104.046C345.798 95.7209 341.237 103.379 346.635 97.1701C346.916 97.0081 346.749 96.7182 347.029 96.5562C344.395 96.5313 341.814 97.2482 339.288 98.7069C340.022 96.7371 341.706 95.7647 343.672 94.6301C343.223 94.5024 343.056 94.2125 342.775 94.3746C341.372 95.185 339.801 95.7055 338.23 96.226C337.388 96.7123 336.94 96.5845 334.419 96.1077C336.443 93.7795 338.349 93.8386 340.487 91.0585C340.881 90.4445 340.713 90.1547 340.659 89.4129C345.826 86.0436 344.141 87.0161 347.397 85.5231C347.958 85.1989 348.072 84.747 348.466 84.133L348.298 83.8432C344.368 86.1122 347.456 84.3294 332.076 92.0498C332.076 92.0498 331.795 92.2119 331.628 91.9221C332.864 90.8219 331.741 91.4702 338.311 87.2905C350.663 80.1592 351.392 80.1249 340.843 83.8964C340.843 83.8964 340.676 83.6065 340.228 83.4788C340.622 82.8648 341.016 82.2508 341.691 81.4747C338.381 82.2259 339.11 82.1916 338.608 81.3221C340.519 79.4458 344.39 78.3704 344.73 77.0146C342.036 78.1835 339.958 79.7699 337.264 80.9387C337.491 80.0349 338.333 79.5487 338.84 78.4828C350.237 72.2896 362.254 64.5786 349.006 71.4544C338.452 77.1613 339.909 77.0927 338.171 77.3234C340.082 75.4471 342.943 74.5681 344.012 73.178C347.219 69.0078 352.153 68.4779 352.045 66.9943C350.755 67.3528 324.313 81.8461 322.348 82.9806C322.181 82.6907 321.787 83.3047 324.88 79.5864C324.713 79.2966 324.545 79.0068 324.378 78.7169C326.008 77.0027 326.505 79.8077 329.652 76.8312C330.046 76.2172 329.431 75.7996 328.983 75.6718C328.535 75.544 328.087 75.4162 327.358 75.4505C328.092 73.4808 325.058 76.0054 343.025 65.6326C343.305 65.4705 343.419 65.0186 343.419 65.0186C343.699 64.8565 343.084 64.4389 342.355 64.4732C334.727 66.172 322.537 75.5286 319.736 75.2139C318.672 74.6685 320.356 73.6961 320.022 73.1164C317.668 72.9294 304.08 81.1609 302.676 81.9713C301.386 82.3298 300.603 81.6223 299.032 82.1428C298.19 82.6291 297.181 82.8254 296.171 83.0218C296.004 82.732 295.837 82.4421 295.669 82.1523C305.44 75.7379 303.529 77.6142 316.275 69.8689C316.389 69.417 316.896 68.351 315.325 68.8716C312.351 70.2025 313.641 69.844 312.464 69.7506C318.473 65.8951 323.245 63.1398 320.384 64.0188C315.277 66.1944 316.286 65.998 315.838 65.8702C316.119 65.7081 316.232 65.2562 316.513 65.0941C318.759 63.7975 320.951 61.7592 323.812 60.8802C326.506 59.7114 327.855 58.1592 334.479 54.7213C335.041 54.3972 335.602 54.073 335.715 53.6211C334.819 53.3656 334.425 53.9796 333.864 54.3037C327.861 56.2238 322.748 60.3348 320.729 60.7275C320.448 60.8896 320.114 60.3099 320.675 59.9858C323.709 57.4612 325.448 57.2305 329.043 54.3818C327.812 53.5465 329.383 53.026 315.908 60.8056C313.943 61.9401 312.259 62.9126 310.073 63.0155C309.403 61.8561 311.422 61.4633 311.201 60.4317C310.753 60.304 310.418 59.7243 307.611 61.345C296.776 67.214 296.944 67.5039 295.599 67.1205C295.151 66.9928 295.205 67.7345 294.871 67.1548C295.151 66.9928 295.319 67.2826 295.599 67.1205C297.062 65.1165 297.343 64.9544 319.52 52.1505C319.634 51.6986 320.028 51.0846 320.141 50.6326C302.801 57.5521 303.973 59.5811 300.442 59.3007C302.693 56.0686 305.722 55.4795 309.711 52.0167C304.437 53.9025 300.053 57.9792 294.725 59.1232C294.444 59.2852 293.829 58.8676 293.381 58.7399C294.396 56.608 293.046 58.1602 296.588 54.5697C296.588 54.5697 296.42 54.2798 296.701 54.1177C294.736 55.2523 292.604 56.0969 290.358 57.3935C289.462 57.138 288.566 56.8825 288.117 56.7547C288.064 56.0129 288.01 55.2711 287.956 54.5294C286.725 53.6941 285.435 54.0526 284.144 54.411C283.302 54.8973 282.179 55.5456 281.056 56.1939C280.608 56.0661 280.835 55.1623 280.106 55.1966C279.826 55.3586 279.772 54.6169 279.324 54.4891C278.541 53.7816 277.137 54.592 273.547 55.5053C265.46 60.9472 267.145 59.9748 264.175 59.3702L264.289 58.9183C264.85 58.5942 265.525 57.8181 266.254 57.7838C268.106 57.1012 268.894 55.8732 269.963 54.4831C269.963 54.4831 270.13 54.773 269.461 53.6136C267.722 53.8443 266.767 54.7824 265.363 55.5928C261.552 55.4745 263.01 55.4058 259.306 56.7711C259.927 55.2532 261.946 54.8605 262.454 53.7945C262.005 53.6668 262.119 53.2148 260.154 54.3494C255.214 56.8148 255.101 57.2667 253.924 57.1733C248.822 57.4134 269.364 48.2591 271.782 45.3169C271.221 45.6411 271.053 45.3512 270.773 45.5133C267.35 46.7164 268.808 46.6478 265.498 47.399C265.612 46.9471 265.164 46.8193 266.341 46.9128ZM212.991 141.867C212.71 142.029 212.877 142.319 212.991 141.867C212.877 142.319 212.877 142.319 212.877 142.319C212.429 142.191 212.71 142.029 212.991 141.867ZM126.265 145.949C125.029 147.049 125.196 147.339 124.748 147.211C124.133 146.794 125.704 146.273 126.265 145.949C126.832 143.689 127.836 145.429 128.349 142.427C129.472 141.779 130.708 140.679 132.279 140.158C131.885 140.772 131.491 141.386 130.93 141.71C131.151 142.742 130.983 142.452 130.87 142.904C128.846 145.232 126.94 145.173 126.265 145.949ZM71.4378 188.425C72.7874 186.872 74.6391 186.19 76.156 184.928C78.4558 184.373 80.2535 182.948 82.3859 182.104L82.834 182.231C82.2725 182.556 82.1591 183.008 81.8784 183.17C71.6051 188.714 72.6146 188.518 71.4378 188.425C70.8763 188.749 70.4822 189.363 69.7534 189.397C69.0246 189.431 69.6455 187.914 71.4378 188.425ZM256.437 160.067C257.058 158.549 256.944 159.001 266.095 154.105C266.262 154.395 266.429 154.684 266.429 154.684C265.528 156.364 260.588 158.83 258.737 159.512C258.008 159.547 257.279 159.581 256.437 160.067ZM268.078 66.7785C268.98 65.0985 274.594 61.857 277.288 60.6882C279.534 59.3916 280.43 59.6472 281.72 59.2887C282.282 58.9646 283.124 58.4783 283.685 58.1542C281.045 60.0648 278.238 61.6855 275.431 63.3063C272.062 65.2512 273.012 66.2485 267.625 68.5861C266.502 69.2344 265.212 69.5929 264.37 70.0791C261.562 71.6999 258.474 73.4827 255.5 74.8136C255.5 74.8136 255.219 74.9757 255.052 74.6858C256.288 73.5856 257.746 73.517 258.701 72.5789C260.105 71.7685 261.06 70.8303 262.297 69.7301C264.483 69.6272 266.167 68.6548 267.965 67.2304C267.852 67.6823 267.965 67.2304 268.078 66.7785C267.63 66.6507 267.63 66.6507 268.078 66.7785ZM252.534 152.659C248.091 157.929 246.412 156.966 242.757 161.009C241.802 161.947 240.679 162.595 239.388 162.954C238.212 162.86 237.035 162.767 235.858 162.673C235.642 159.706 235.529 160.158 239.178 158.051C239.907 158.017 240.128 159.048 240.857 159.014C241.586 158.98 242.201 159.397 242.649 159.525C248.377 155.832 248.102 154.058 252.534 152.659C254.056 149.461 260.232 145.896 263.374 144.854C264.103 144.82 264.832 144.786 265.561 144.752C266.289 144.717 267.412 144.069 267.914 144.938C267.741 146.584 266.619 147.232 259.768 151.574C259.487 151.736 259.039 151.608 258.758 151.771C258.424 151.191 258.089 150.611 257.754 150.031C255.681 149.682 256.41 149.648 252.534 152.659ZM56.0951 202.693C57.0506 201.755 58.6755 201.976 59.631 201.038C61.3693 200.807 63.0537 199.835 64.5707 198.573C66.0877 197.31 70.6332 195.459 68.5602 195.11C68.1121 194.982 67.8314 195.144 64.5167 197.831C60.7594 198.454 59.9172 198.941 59.2479 197.781C63.5181 194.156 59.7014 195.974 68.3443 192.143C71.0382 190.974 72.4958 190.905 74.4068 189.029C75.9238 187.767 76.5393 188.185 79.6272 186.402C84.0054 184.26 83.1092 184.005 85.1228 185.548C82.931 187.586 73.1112 191.323 71.4808 193.037C71.7021 194.069 72.825 193.421 73.4404 193.838C73.6077 194.128 73.6077 194.128 73.7751 194.418C73.381 195.032 72.8195 195.356 72.1447 196.132C72.3121 196.422 72.7601 196.55 72.9275 196.84C72.2527 197.616 71.4105 198.102 70.1202 198.46C69.9529 198.171 70.0663 197.719 69.8989 197.429C66.0282 198.504 65.9688 199.698 63.8365 200.542C62.2655 201.063 60.8619 201.873 59.1776 202.846C58.8968 203.008 59.0642 203.298 58.7834 203.46C58.5027 203.622 59.3989 203.877 59.8469 204.005C61.8659 203.612 61.9793 203.161 62.314 203.74C61.4718 204.226 60.5163 205.165 59.6741 205.651C54.7345 208.116 53.9463 209.344 52.0946 210.027C51.8139 210.189 51.6465 209.899 51.1985 209.771C51.4252 208.867 51.8194 208.253 51.9327 207.802C54.5726 205.891 53.8978 206.667 56.759 205.788L57.1531 205.174C57.0451 203.691 56.149 203.435 56.0951 202.693C55.647 202.565 55.647 202.565 55.9277 202.403L56.0951 202.693ZM290.372 131.973C288.018 131.786 287.171 134.207 280.428 140.033C279.699 140.067 278.97 140.101 278.242 140.135C277.853 138.814 278.641 137.586 278.868 136.682C279.429 136.358 280.271 135.872 280.666 135.258C282.296 133.544 284.542 132.247 286.787 130.95C288.806 130.558 290.323 129.295 291.727 128.485C294.194 128.22 295.932 127.989 297.838 128.048C296.65 131.826 293.282 133.771 289.913 135.716L289.746 135.426C290.593 133.004 290.593 133.004 290.372 131.973ZM79.6169 170.176C78.5479 171.566 78.2672 171.728 78.4345 172.018C78.6019 172.308 79.444 171.822 80.2862 171.336C84.1029 169.519 84.0435 170.712 82.3592 171.685C58.6112 185.009 65.4025 181.861 61.9799 183.064C61.8125 182.774 61.0298 182.067 60.4144 181.649C61.0892 180.873 58.282 182.494 79.6169 170.176ZM201.51 78.5457C199.826 79.5182 198.703 80.1665 197.58 80.8148C190.789 83.9628 184.499 87.9804 177.762 91.8702C176.078 92.8426 175.176 94.5226 172.148 95.1117C168.838 95.8629 168.439 98.4124 166.199 97.7735C167.041 97.2873 176.753 92.0666 193.709 81.8901C199.437 78.1967 199.999 77.8726 201.51 78.5457ZM81.9487 178.105C89.6416 173.277 83.4657 176.843 103.003 165.949L103.17 166.239C102.609 166.563 102.215 167.177 101.373 167.664C96.7676 170.709 97.2157 170.837 95.812 171.647C92.4434 173.592 90.813 175.306 88.4593 175.119C88.0113 174.991 87.4498 175.315 87.1691 175.478C86.6616 176.543 86.6616 176.543 81.9487 178.105ZM232.403 155.393C232.182 154.361 232.182 154.361 248.183 145.123C248.744 144.799 249.025 144.637 249.754 144.602C244.415 149.617 241.948 149.882 240.263 150.855C238.185 152.441 235.491 153.61 233.413 155.196C233.132 155.359 232.684 155.231 232.403 155.393ZM203.141 76.8315C204.096 75.8934 217.571 68.1138 218.974 67.3034C225.712 63.4136 226.667 62.4755 227.844 62.5689C227.563 62.731 227.169 63.345 226.888 63.5071C224.923 64.6416 222.791 65.4863 220.993 66.9107C218.353 68.8212 203.869 76.7972 203.141 76.8315ZM326.294 95.0015C321.689 98.0466 319.557 98.8913 310.854 103.916C310.574 104.078 309.564 104.274 309.845 104.112C309.791 103.37 309.624 103.08 310.466 102.594C315.799 99.5147 320.064 97.8254 323.379 95.1387C325.344 94.0042 326.127 94.7116 326.294 95.0015ZM119.866 208.772C121.891 206.444 128.796 202.844 131.77 201.513C132.051 201.351 132.218 201.641 132.499 201.479C130.307 203.517 131.317 203.321 123.343 208.311C122.782 208.635 121.772 208.831 121.211 209.155C120.762 209.028 120.314 208.9 119.866 208.772ZM121.254 193.672C120.747 194.738 121.87 194.089 114.457 198.755C113.615 199.241 112.773 199.728 112.044 199.762C111.764 199.924 111.596 199.634 111.316 199.796C111.094 198.765 111.656 198.441 116.935 194.619C118.393 194.551 119.683 194.192 121.254 193.672ZM196.022 196.107C198.381 194.358 199.504 193.71 210.112 188.745C210.393 188.583 210.56 188.873 211.122 188.549C210.28 189.035 209.999 189.197 209.437 189.521C198.376 196.294 200.06 195.321 196.022 196.107ZM180.043 177.507C177.571 179.708 174.262 180.459 172.07 182.497C171.789 182.659 171.508 182.821 168.48 183.41C171.12 181.5 176.453 178.42 178.586 177.576C179.428 177.089 179.595 177.379 180.043 177.507ZM270.902 59.3513C271.069 59.6412 271.965 59.8967 271.291 60.6728C269.941 62.2249 268.37 62.7455 266.518 63.4281C265.957 63.7522 263.549 62.8235 270.902 59.3513ZM100.573 192.859C99.952 194.377 97.879 194.028 95.6872 196.066C94.0568 197.78 91.9244 198.625 89.792 199.47L89.344 199.342C91.2551 197.466 96.1947 195 100.011 193.183C100.125 192.731 100.573 192.859 100.573 192.859ZM128.354 160.588C128.413 159.394 130.211 157.97 131.501 157.612C135.259 156.988 140.706 153.457 128.354 160.588ZM38.1185 196.841C39.8028 195.868 41.0391 194.768 42.7234 193.795C43.0096 191.698 42.8962 192.15 43.3443 192.278C43.679 192.857 44.4617 193.565 43.7869 194.341C42.4372 195.893 40.7529 196.865 38.7339 197.258C38.7339 197.258 38.5665 196.968 38.1185 196.841ZM115.074 158.98C114.961 159.432 116.364 158.622 105.977 164.619C105.81 164.329 104.687 164.977 115.074 158.98ZM76.8903 182.958C75.654 184.058 75.654 184.058 72.6255 184.647C72.7389 184.195 73.0196 184.033 73.133 183.581C74.0346 181.901 76.3343 181.347 76.8903 182.958ZM325.112 76.7471C324.605 77.8131 323.709 77.5575 321.463 78.8541C318.375 80.6369 318.262 81.0889 317.365 80.8333C323.374 76.9778 324.049 76.2018 325.112 76.7471ZM333.128 96.4661C333.182 97.2079 333.63 97.3357 333.404 98.2395C333.01 98.8535 332.448 99.1777 331.552 98.9221C331.104 98.7944 330.937 98.5045 330.769 98.2147C331.277 97.1487 332.119 96.6625 333.128 96.4661ZM90.1758 182.63C91.412 181.53 94.2193 179.909 94.0465 181.555C89.949 183.534 90.6778 183.5 90.1758 182.63ZM190.938 170.444C194.7 167.885 195.262 167.561 196.439 167.655C195.483 168.593 194.641 169.079 193.351 169.438C192.789 169.762 191.947 170.248 190.938 170.444ZM229.528 61.5965C230.765 60.4963 232.956 58.4579 234.02 59.0033C234.187 59.2931 231.828 61.0417 229.528 61.5965ZM201.713 165.769C201.767 166.511 199.354 167.518 199.132 166.486C198.463 165.327 201.492 164.737 201.713 165.769ZM324.242 107.007C323.006 108.107 321.883 108.756 320.312 109.276C321.548 108.176 322.785 107.076 324.242 107.007ZM274.322 138.534C272.697 138.312 274.83 137.468 276.795 136.333C278.026 137.168 276.174 137.851 274.322 138.534ZM315.259 112.193C316.215 111.255 316.89 110.479 318.18 110.121C317.786 110.735 318.347 110.411 315.259 112.193ZM109.582 218.188C109.355 219.092 108.232 219.74 107.336 219.484C106.888 219.357 107.623 217.387 109.582 218.188ZM236.546 57.5446C238.177 55.8304 238.177 55.8304 240.196 55.4376C238.96 56.5379 237.837 57.1862 236.546 57.5446ZM120.37 149.353C120.597 148.449 121.72 147.8 122.729 147.604C122.897 147.894 122.897 147.894 123.064 148.184C120.257 149.805 120.818 149.48 120.37 149.353ZM307.399 116.731C308.241 116.245 308.916 115.469 310.206 115.111C309.251 116.049 308.241 116.245 307.399 116.731ZM218.269 178.238C217.541 178.273 219.004 176.269 220.067 176.814C220.515 176.942 219.446 178.332 218.269 178.238ZM64.544 188.154C66.3417 186.729 66.3417 186.729 67.2378 186.985C66.3957 187.471 65.8342 187.795 64.544 188.154ZM256.86 69.3905C257.368 68.3246 258.264 68.5802 259.106 68.0939C258.264 68.5802 257.702 68.9043 256.86 69.3905ZM152.226 163.037C150.822 163.847 150.989 164.137 149.98 164.334C150.655 163.558 151.216 163.233 152.226 163.037ZM290.458 141.198C290.685 140.294 291.414 140.26 292.423 140.063C291.581 140.55 291.3 140.712 290.458 141.198ZM107.343 157.26C106.669 158.036 107.23 157.712 105.378 158.395C106.615 157.294 106.053 157.618 107.343 157.26ZM253.419 156.785C253.646 155.882 254.488 155.395 255.665 155.489C255.438 156.393 254.596 156.879 253.419 156.785ZM290.507 123.779C290.113 124.393 289.552 124.717 288.542 124.913C288.936 124.299 289.778 123.813 290.507 123.779ZM279.69 63.5524C278.848 64.0386 277.893 64.9768 277.671 63.9451C277.337 63.3654 278.514 63.4589 279.69 63.5524ZM244.849 75.1661C245.524 74.39 246.085 74.0659 246.814 74.0316C246.139 74.8076 246.7 74.4835 244.849 75.1661ZM215.386 186.859C215.781 186.245 216.342 185.921 217.071 185.887C216.677 186.501 215.948 186.535 215.386 186.859ZM285.033 116.891C285.708 116.115 285.427 116.277 286.156 116.243C286.043 116.695 286.324 116.533 285.033 116.891ZM338.036 85.5171C337.701 84.9374 338.543 84.4512 338.991 84.579C339.439 84.7067 339.045 85.3207 338.765 85.4828C338.484 85.6449 338.484 85.6449 338.036 85.5171ZM124.79 192.017C124.509 192.179 124.061 192.051 124.061 192.051C124.175 191.599 124.288 191.147 125.298 190.951C125.465 191.241 125.071 191.855 124.79 192.017ZM297.64 79.0823C297.472 78.7924 297.359 79.2444 298.315 78.3062C298.763 78.434 298.763 78.434 297.64 79.0823ZM91.0616 166.66C91.2289 166.95 91.3423 166.498 90.3868 167.436C90.2194 167.147 89.9387 167.309 91.0616 166.66ZM258.032 51.3231C258.707 50.5471 258.426 50.7091 259.155 50.6748C258.761 51.2888 259.042 51.1268 258.032 51.3231ZM250.279 77.4411C250.166 77.893 249.605 78.2172 248.876 78.2515C248.989 77.7996 249.551 77.4754 250.279 77.4411ZM322.628 123.011C322.908 122.849 323.022 122.397 323.189 122.687C324.199 122.491 323.859 123.846 322.628 123.011ZM275.974 149.174C276.141 149.464 275.974 149.174 275.132 149.66C275.412 149.498 275.132 149.66 275.974 149.174ZM117.893 133.392C117.725 133.102 117.725 133.102 118.173 133.23L117.893 133.392ZM110.594 137.606C110.875 137.444 110.875 137.444 110.875 137.444L110.594 137.606ZM107.619 138.937C107.787 139.227 107.787 139.227 107.339 139.099L107.619 138.937ZM33.1631 185.016C32.715 184.888 32.8823 185.178 33.1631 185.016C33.2765 184.564 32.9957 184.726 33.1631 185.016C33.4438 184.854 33.4438 184.854 33.1631 185.016ZM122.173 145.993C122.341 146.283 122.173 145.993 121.892 146.155L122.173 145.993ZM100.606 161.15C100.887 160.988 100.606 161.15 100.606 161.15V161.15ZM287.551 59.0143C288.393 58.5281 288.053 59.8838 287.551 59.0143C287.551 59.0143 287.718 59.3041 287.551 59.0143ZM56.905 193.723C57.3531 193.851 56.905 193.723 56.905 193.723C57.4071 194.593 56.511 194.337 56.905 193.723C56.6243 193.885 56.905 193.723 56.905 193.723ZM85.0312 178.258C85.1986 178.548 85.1986 178.548 84.7505 178.42L85.0312 178.258ZM55.2747 195.438C55.3881 194.986 55.5554 195.276 55.2747 195.438C55.2747 195.438 54.994 195.6 55.2747 195.438ZM58.6379 195.428C58.5245 195.88 58.8053 195.718 58.0765 195.752C58.1898 195.3 58.1898 195.3 58.6379 195.428ZM62.8106 206.545C62.2491 206.869 62.5299 206.707 62.2491 206.869C62.6432 206.255 62.6432 206.255 62.8106 206.545ZM302.973 76.0029C303.254 75.8408 303.254 75.8408 303.254 75.8408C302.973 76.0029 303.254 75.8408 302.973 76.0029ZM300.841 76.8475C301.289 76.9753 301.289 76.9753 300.841 76.8475V76.8475ZM85.5812 201.901L85.3005 202.063L85.4139 201.611C85.6946 201.449 85.9753 201.287 85.8619 201.739C85.6946 201.449 85.6946 201.449 85.5812 201.901ZM141.526 180.809C141.412 181.261 141.693 181.099 140.683 181.295C140.797 180.843 140.516 181.005 141.526 180.809ZM318.979 84.9255C318.979 84.9255 319.093 84.4736 319.541 84.6013C319.822 84.4393 319.708 84.8912 319.428 85.0532C319.26 84.7634 318.979 84.9255 318.979 84.9255ZM118.414 206.905C118.133 207.067 118.133 207.067 118.414 206.905C117.966 206.777 118.247 206.615 118.247 206.615C118.528 206.453 118.528 206.453 118.695 206.743C118.414 206.905 118.414 206.905 118.414 206.905ZM282.507 118.35C282.62 117.898 282.62 117.898 283.068 118.026C282.955 118.477 283.236 118.315 282.507 118.35ZM211.954 171.837C212.234 171.675 212.234 171.675 211.954 171.837C211.954 171.837 211.673 171.999 211.954 171.837ZM271.515 140.154C271.628 139.702 271.628 139.702 272.077 139.83C271.796 139.992 271.796 139.992 271.515 140.154ZM232.203 166.716C232.203 166.716 231.922 166.878 231.755 166.588L231.868 166.136C232.149 165.974 232.43 165.812 232.316 166.264C232.484 166.554 232.484 166.554 232.203 166.716ZM219.592 186.364C219.478 186.815 219.478 186.816 219.311 186.526L219.592 186.364ZM327.185 77.0962C327.466 76.9341 327.353 77.386 327.185 77.0962V77.0962Z" fill="#ECB942"/>
<path d="M81.0913 144.205C81.4315 142.849 82.4949 143.395 83.5044 143.198C85.1888 142.226 85.8096 140.708 87.3266 139.446C90.3012 138.115 93.3891 136.332 96.3097 134.259C96.8712 133.935 100.407 132.28 101.924 131.018C105.687 128.459 109.617 126.19 113.995 124.049C116.97 122.718 124.835 116.244 127.076 116.883C126.628 116.755 127.918 116.397 127.918 116.397C127.583 115.817 128.593 115.621 128.593 115.621C128.199 116.235 127.751 116.107 127.189 116.431C128.647 116.363 127.243 117.173 133.419 113.607C135.384 112.473 133.478 112.414 138.251 109.658C197.202 75.6226 173.174 89.1091 179.236 85.9953C184.289 83.078 179.851 86.413 187.15 82.199C191.923 79.4437 189.904 79.8365 195.237 76.7571C203.211 71.7671 201.132 73.3535 216.572 64.4394C252.451 42.952 254.745 44.3327 252.791 41.5963C247.349 43.1922 249.595 41.8956 189.24 76.7417C28.4399 170.352 34.0434 170.982 32.7532 171.34C30.3401 172.347 29.6652 173.123 23.5433 177.43C23.9914 177.558 24.1587 177.848 24.1587 177.848C52.2309 161.641 28.7637 174.803 58.4662 156.881C62.9578 154.288 61.8943 153.743 69.6951 150.398C70.6506 149.46 72.2216 148.94 73.1772 148.001C74.8075 146.287 77.2746 146.022 78.1168 145.536C78.9589 145.05 79.6338 144.274 80.1952 143.95C80.6433 144.077 80.924 143.915 81.0913 144.205ZM132.917 112.738C132.523 113.352 131.961 113.676 131.233 113.71C131.794 113.386 132.188 112.772 132.917 112.738Z" fill="#ECB942"/>
<path d="M229.628 185.594C228.451 185.5 229.126 184.724 225.082 187.445C220.31 190.2 215.818 192.793 211.213 195.839C208.8 196.845 206.387 197.852 204.141 199.149C198.413 202.842 183.541 209.497 182.418 210.145C177.084 213.224 177.257 211.579 174.223 214.103C175.173 215.101 176.69 213.838 174.892 215.263C174.612 215.425 174.05 215.749 174.385 216.329C176.404 215.936 178.536 215.091 180.053 213.829C181.851 212.405 183.924 212.754 185.047 212.105C189.538 209.512 187.627 211.388 187.962 211.968C189.868 212.027 189.538 209.512 190.996 209.443C193.744 209.016 197.28 207.361 199.639 205.613C202.84 203.378 204.465 203.599 208.563 201.62C208.563 201.62 249.823 179.731 250.444 178.213C249.996 178.085 249.548 177.957 249.1 177.829C250.784 176.857 252.02 175.757 253.926 175.816C254.488 175.492 254.882 174.878 255.443 174.554C259.713 170.929 261.279 172.344 261.004 170.57C256.183 170.648 257.694 171.322 245.569 177.549C246.638 176.159 248.377 175.928 249.165 174.7C248.884 174.862 248.717 174.572 248.436 174.735C234.233 182.548 231.879 182.361 229.628 185.594C229.514 186.045 229.682 186.335 228.953 186.37C229.347 185.756 229.347 185.756 229.628 185.594Z" fill="#ECB942"/>
<path d="M146.713 209.89C147.328 210.308 147.776 210.436 148.392 210.853C146.367 213.181 146.48 212.73 147.263 213.437C146.475 214.665 144.175 215.22 144.17 217.155C145.908 216.925 145.179 216.959 146.75 216.438C145.514 217.539 144.558 218.477 144.947 219.798C145.001 220.54 144.159 221.026 144.661 221.896C144.661 221.896 144.828 222.186 145.109 222.024C151.614 220.973 149.762 221.656 151.56 220.231C151.566 218.296 150.615 217.298 152.359 215.132C152.753 214.518 152.98 213.614 153.374 213C152.926 212.873 152.645 213.035 152.645 213.035C151.917 213.069 151.863 212.327 152.257 211.713C152.932 210.937 152.424 212.003 153.606 210.161C153.272 209.582 151.868 210.392 152.095 209.488C153.498 208.678 155.517 208.285 156.419 206.605C156.03 205.284 156.09 204.09 153.396 205.259L153.115 205.421C150.923 207.459 148.51 208.466 146.713 209.89Z" fill="#ECB942"/>
<path d="M183.971 76.692C184.079 78.1755 185.542 76.1714 187.674 75.3267C188.236 75.0026 195.254 70.9507 195.254 70.9507C197.78 69.492 200.474 68.3232 202.833 66.5747C205.527 65.4059 207.886 63.6573 210.413 62.1987C255.663 36.8464 246.847 42.3226 249.32 40.1222C248.591 40.1565 248.143 40.0287 247.862 40.1908C237.367 44.704 233.772 47.5528 219.455 55.8186C203.902 65.1846 217.771 56.791 183.971 76.692Z" fill="#ECB942"/>
<path d="M323.594 118.202C323.875 118.04 324.323 118.168 324.604 118.006C327.13 116.547 329.937 114.926 332.297 113.178C333.252 112.24 338.024 109.485 339.201 109.578C341.388 109.475 342.343 108.537 347.677 105.458C348.071 104.844 348.632 104.519 348.298 103.94C346.171 102.849 342.003 109.893 339.541 108.222C339.32 107.191 340.891 106.67 341.118 105.766C341.906 104.538 339.72 104.641 338.764 105.579C336.853 107.456 334.494 109.204 332.583 111.08C327.298 116.837 325.505 116.326 323.594 118.202Z" fill="#ECB942"/>
<path d="M337.916 128.097C337.695 127.066 337.247 126.938 336.237 127.134C335.508 127.169 315.971 138.062 308.446 143.18C312.149 141.814 318.719 137.635 323.826 135.459C325.51 134.487 326.693 132.645 337.916 128.097Z" fill="#ECB942"/>
<path d="M135.246 221.148C131.321 221.482 129.966 224.969 129.686 225.131C128.563 225.78 127.159 226.59 125.756 227.4C125.977 228.432 127.434 228.363 128.277 227.877C130.409 227.032 132.428 226.64 134.614 226.537C136.018 225.726 136.693 224.95 137.2 223.884C136.752 223.757 136.304 223.629 135.856 223.501C135.521 222.921 136.142 221.404 135.246 221.148Z" fill="#ECB942"/>
<path d="M120.255 230.19C119.358 229.934 118.295 229.389 117.399 229.134C115.38 229.526 113.247 230.371 111.174 230.022C110.5 230.798 109.938 231.122 109.544 231.736C109.992 231.864 110.159 232.154 110.159 232.154C111.002 231.668 112.011 231.471 112.627 231.889C113.523 232.144 113.469 231.403 114.197 231.368C118.176 231.776 117.113 231.231 118.845 232.936C121.647 233.251 123.726 231.664 126.085 229.916C124.406 228.953 125.864 228.884 120.255 230.19Z" fill="#ECB942"/>
<path d="M104.626 226.46C103.223 227.27 101.932 227.629 100.194 227.859C99.2385 228.797 99.7405 229.667 99.0657 230.443C98.6716 231.057 97.9428 231.091 97.6621 231.253C97.1006 231.578 96.4258 232.354 96.4798 233.095C96.5338 233.837 96.9818 233.965 97.4299 234.093C97.5972 234.383 97.4839 234.834 97.3705 235.286C98.38 235.09 99.7242 235.473 100.512 234.245C100.345 233.955 100.178 233.666 100.291 233.214C102.148 230.596 101.641 231.662 100.971 230.502C100.804 230.212 100.75 229.471 101.198 229.598C103.05 228.916 104.453 228.105 105.803 226.553C105.242 226.877 104.907 226.298 104.626 226.46Z" fill="#ECB942"/>
<path d="M72.9216 218.872C71.7447 218.778 70.7892 219.716 69.7797 219.913C69.893 219.461 70.1737 219.299 70.1737 219.299C69.7851 217.977 69.1697 217.56 66.1412 218.149C65.8605 218.311 65.299 218.635 65.0183 218.797C65.2396 219.829 65.1802 221.022 64.6727 222.088C66.6917 221.695 65.9629 221.73 67.7552 222.241C73.0889 219.161 71.6853 219.972 72.9216 218.872Z" fill="#ECB942"/>
<path d="M100.818 125.86C108.451 122.225 115.582 117.722 123.162 113.346C122.941 112.314 124.231 111.956 100.818 125.86Z" fill="#ECB942"/>
<path d="M141.803 102.197C143.374 101.676 158.085 92.7965 159.489 91.9861C159.321 91.6963 159.154 91.4064 158.873 91.5685C158.425 91.4407 157.864 91.7649 157.583 91.927C155.505 93.5134 153.091 94.5202 151.013 96.1066C149.777 97.2068 142.311 101.131 141.803 102.197Z" fill="#ECB942"/>
<path d="M112.621 233.824C112.173 233.696 111.838 233.117 111.558 233.279C109.371 233.382 105.387 234.909 105.776 236.231C105.884 237.714 110.71 235.701 112.621 233.824Z" fill="#ECB942"/>
<path d="M65.1066 147.637C69.3713 145.948 68.4752 145.692 73.5282 142.775C76.3354 141.154 76.8969 140.83 77.291 140.216C75.8334 140.284 73.5282 142.775 69.0961 144.174C67.5251 144.695 66.2888 145.795 65.2199 147.185C64.9392 147.347 64.9392 147.347 65.1066 147.637Z" fill="#ECB942"/>
<path d="M74.4276 221.48C74.595 221.77 74.4816 222.222 74.4816 222.222C76.3278 223.475 81.4348 221.299 81.2135 220.268C81.0461 219.978 80.8788 219.688 80.5981 219.85C78.4117 219.953 76.3927 220.346 74.4276 221.48Z" fill="#ECB942"/>
<path d="M265.555 166.783C265.722 167.073 266.17 167.201 266.337 167.491C265.943 168.105 264.934 168.301 264.988 169.043C268.13 168.002 268.41 167.84 269.873 165.836C270.1 164.932 268.923 164.839 269.037 164.387C268.14 164.131 268.529 165.453 267.239 165.811C266.677 166.135 266.116 166.459 265.555 166.783Z" fill="#ECB942"/>
<path d="M334.337 105.043C330.58 105.667 325.862 109.164 325.916 109.906C325.743 111.551 332.372 106.178 334.337 105.043Z" fill="#ECB942"/>
<path d="M352.384 105.831C355.359 104.5 355.92 104.176 359.964 101.455C359.856 99.9718 357.885 103.042 355.418 103.307C353.961 103.375 353.005 104.314 352.05 105.252C352.05 105.252 352.217 105.541 352.384 105.831Z" fill="#ECB942"/>
<path d="M171.065 200.854C174.704 202.618 176.01 196.453 172.474 198.109C171.184 198.467 171.125 199.661 171.065 200.854Z" fill="#ECB942"/>
<path d="M322.267 71.8199C322.548 71.6578 322.716 71.9476 322.996 71.7856C326.365 69.8407 329.901 68.1856 333.664 65.6267C330.241 66.8298 326.311 69.0989 322.267 71.8199Z" fill="#ECB942"/>
<path d="M89.7593 211.082C85.1004 213.386 86.3367 212.286 84.3122 214.614C83.6374 215.39 82.6279 215.586 82.4012 216.49C84.1394 216.259 85.5431 215.449 86.612 214.059C87.5675 213.121 89.4192 212.438 89.7593 211.082Z" fill="#ECB942"/>
<path d="M166.453 87.1925C164.882 87.713 166.285 86.9026 161.4 90.1098C161.567 90.3997 161.734 90.6895 162.015 90.5274C163.586 90.0069 165.27 89.0345 166.787 87.7722C166.507 87.9342 166.339 87.6444 166.453 87.1925Z" fill="#ECB942"/>
<path d="M148.743 205.627C148.91 205.917 148.629 206.079 149.525 206.334C151.436 204.458 154.13 203.289 156.603 201.089C152.899 202.454 151.496 203.264 148.743 205.627Z" fill="#ECB942"/>
<path d="M130.013 109.004C131.416 108.194 138.434 104.142 138.996 103.818C138.548 103.69 138.1 103.562 138.1 103.562C135.179 105.635 132.653 107.093 130.013 109.004Z" fill="#ECB942"/>
<path d="M196.287 181.655C195.558 181.689 196.681 181.041 188.26 185.903C187.979 186.065 187.752 186.969 188.033 186.807C188.762 186.773 187.919 187.259 196.174 182.107C196.174 182.107 196.006 181.817 196.287 181.655Z" fill="#ECB942"/>
<path d="M324.231 110.878C323.222 111.074 324.626 110.264 316.765 114.802C316.485 114.964 315.923 115.288 315.529 115.902C318.39 115.023 320.749 113.275 322.995 111.978C323.276 111.816 323.389 111.364 324.231 110.878Z" fill="#ECB942"/>
<path d="M117.361 222.585C116.071 222.944 115.061 223.14 113.658 223.951C112.254 224.761 111.973 224.923 112.081 226.406C113.258 226.5 113.598 225.144 114.721 224.496C115.563 224.01 116.406 223.523 116.967 223.199C117.415 223.327 117.528 222.875 117.361 222.585Z" fill="#ECB942"/>
<path d="M176.804 193.29C174.11 194.459 170.968 195.5 168.776 197.538C169.953 197.632 174.11 194.459 176.804 193.29Z" fill="#ECB942"/>
<path d="M363.742 113.186C362.733 113.383 363.856 112.734 356.557 116.948C356.557 116.948 356.276 117.11 356.444 117.4C357.172 117.366 357.172 117.366 363.742 113.186Z" fill="#ECB942"/>
<path d="M34.3716 213.689C36.6119 214.328 38.577 213.194 38.6364 212C38.8632 211.096 35.6673 211.396 34.3716 213.689Z" fill="#ECB942"/>
<path d="M58.8855 226.975C63.6577 224.22 63.0963 224.544 62.929 224.254C59.1122 226.071 57.822 226.43 58.8855 226.975Z" fill="#ECB942"/>
<path d="M79.2108 214.854C80.3877 214.947 79.0974 215.306 84.1504 212.389C83.535 211.971 83.8158 211.809 79.2108 214.854Z" fill="#ECB942"/>
<path d="M138.788 217.558C137.665 218.206 138.167 219.075 139.29 218.427C139.29 218.427 139.851 218.103 140.132 217.941C140.412 217.779 140.526 217.327 140.245 217.489C139.743 216.619 138.788 217.558 138.788 217.558Z" fill="#ECB942"/>
<path d="M314.705 50.2932C313.361 49.9099 312.238 50.5582 312.405 50.848C312.405 50.848 313.188 51.5555 314.705 50.2932Z" fill="#ECB942"/>
<path d="M251.938 45.9535C249.525 46.9602 248.963 47.2844 248.569 47.8984C249.298 47.8641 249.298 47.8641 251.938 45.9535Z" fill="#ECB942"/>
<path d="M54.2483 221.537C55.4846 220.437 55.4846 220.437 53.7463 220.667C53.4656 220.829 53.2982 220.539 53.0175 220.702C52.008 220.898 52.51 221.767 52.9581 221.895C53.4062 222.023 53.9676 221.699 54.2483 221.537Z" fill="#ECB942"/>
<path d="M199.936 179.548C201.955 179.155 202.798 178.669 203.753 177.731C202.128 177.51 201.453 178.286 199.936 179.548Z" fill="#ECB942"/>
<path d="M119.828 222.32C120.838 222.124 121.68 221.638 122.803 220.989C123.083 220.827 122.916 220.538 122.749 220.248C122.862 219.796 120.503 221.544 120.222 221.706C119.942 221.868 119.828 222.32 119.828 222.32Z" fill="#ECB942"/>
<path d="M323.218 52.7209C324.114 52.9765 325.291 53.0699 325.237 52.3282C325.07 52.0383 324.287 51.3308 323.218 52.7209Z" fill="#ECB942"/>
<path d="M361.902 109.998C361.507 110.612 360.833 111.388 360.606 112.292C361.95 112.675 364.309 110.927 362.798 110.254C362.182 109.836 361.621 110.16 361.902 109.998Z" fill="#ECB942"/>
<path d="M79.256 139.081C81.1077 138.399 80.2655 138.885 81.7825 137.623C80.4923 137.981 80.4923 137.981 79.256 139.081Z" fill="#ECB942"/>
<path d="M170.903 218.725C170.455 218.598 170.007 218.47 169.726 218.632C169.445 218.794 169.051 219.408 169.218 219.698C169.834 220.115 170.228 219.502 170.903 218.725Z" fill="#ECB942"/>
<path d="M198.592 199.261C199.882 198.903 200.443 198.578 201.399 197.64C200.276 198.289 199.715 198.613 198.592 199.261Z" fill="#ECB942"/>
<path d="M348.66 74.7457C349.837 74.8392 350.512 74.0631 351.187 73.287C350.345 73.7732 349.335 73.9696 348.66 74.7457Z" fill="#ECB942"/>
<path d="M300.866 147.556C301.595 147.521 302.156 147.197 302.831 146.421C301.654 146.328 301.26 146.942 300.866 147.556Z" fill="#ECB942"/>
<path d="M189.868 191.931C188.859 192.127 187.849 192.324 187.622 193.227C188.351 193.193 188.913 192.869 189.868 191.931Z" fill="#ECB942"/>
<path d="M135.246 221.148C135.808 220.824 136.482 220.048 136.148 219.468C136.148 219.468 135.7 219.34 135.419 219.502C134.296 220.151 135.527 220.986 135.246 221.148Z" fill="#ECB942"/>
<path d="M105.355 226.425C106.138 227.133 107.822 226.16 108.049 225.257C105.749 225.811 105.242 226.877 105.355 226.425Z" fill="#ECB942"/>
<path d="M61.6981 223.419C61.1366 223.743 60.5751 224.067 60.0137 224.391C60.7425 224.357 61.304 224.033 61.6981 223.419Z" fill="#ECB942"/>
<path d="M63.9602 216.316C63.2314 216.35 62.5026 216.385 61.9412 216.709C61.6604 216.871 61.8278 217.161 61.5471 217.323C64.0735 215.864 63.7928 216.026 63.9602 216.316Z" fill="#ECB942"/>
<path d="M329.421 59.5742C329.982 59.2501 330.711 59.2158 331.105 58.6018C330.376 58.6361 329.815 58.9602 329.421 59.5742Z" fill="#ECB942"/>
<path d="M124.465 227.759C124.352 228.211 124.913 227.887 126.036 227.238C126.036 227.238 124.579 227.307 124.465 227.759Z" fill="#ECB942"/>
<path d="M163.21 203.457C162.201 203.653 162.482 203.491 162.088 204.105C162.816 204.071 162.536 204.233 163.21 203.457Z" fill="#ECB942"/>
<path d="M109.35 221.027C110.359 220.831 110.079 220.993 110.192 220.541C109.183 220.737 109.463 220.575 109.35 221.027Z" fill="#ECB942"/>
<path d="M340.325 68.7369C339.316 68.9333 339.596 68.7712 339.202 69.3852C340.212 69.1888 340.098 69.6408 340.325 68.7369Z" fill="#ECB942"/>
<path d="M348.697 121.486C349.426 121.452 349.426 121.452 349.82 120.838C349.258 121.162 349.258 121.162 348.697 121.486Z" fill="#ECB942"/>
<path d="M268.797 50.5187C269.806 50.3223 269.526 50.4844 270.2 49.7084C269.191 49.9047 269.472 49.7427 268.797 50.5187Z" fill="#ECB942"/>
<path d="M17.4481 192.157L17.6154 192.447C18.0635 192.574 18.2903 191.671 18.0096 191.833C17.8422 191.543 17.4481 192.157 17.4481 192.157Z" fill="#ECB942"/>
<path d="M168.304 86.5099C168.639 87.0896 169.314 86.3135 169.146 86.0237C168.979 85.7338 168.698 85.8959 168.304 86.5099C168.585 86.3478 168.418 86.058 168.304 86.5099Z" fill="#ECB942"/>
<path d="M175.155 82.1681C176.165 81.9717 175.884 82.1338 175.997 81.6819C174.988 81.8782 175.268 81.7162 175.155 82.1681Z" fill="#ECB942"/>
<path d="M266.94 53.137C266.097 53.6232 266.378 53.4611 265.817 53.7853C267.107 53.4268 266.826 53.5889 266.94 53.137Z" fill="#ECB942"/>
<path d="M181.779 78.7302L182.06 78.5682C181.892 78.2783 181.892 78.2783 181.612 78.4404C181.612 78.4404 181.331 78.6025 181.498 78.8923C181.331 78.6025 181.331 78.6025 181.779 78.7302Z" fill="#ECB942"/>
<path d="M171.392 84.727C171.673 84.5649 171.84 84.8547 171.392 84.727C172.402 84.5306 171.786 84.113 171.392 84.727C171.673 84.5649 171.506 84.275 171.392 84.727Z" fill="#ECB942"/>
<path d="M84.4763 136.454C84.5897 136.002 84.309 136.164 84.4763 136.454C84.5897 136.002 84.309 136.164 84.4763 136.454C83.7475 136.488 84.0283 136.326 84.4763 136.454Z" fill="#ECB942"/>
<path d="M126.628 116.755C126.347 116.917 125.786 117.241 125.672 117.693L125.953 117.531C126.628 116.755 126.628 116.755 126.628 116.755Z" fill="#ECB942"/>
<path d="M253.903 44.8188L254.183 44.6568C254.464 44.4947 254.745 44.3326 254.297 44.2048C254.016 44.3669 253.903 44.8188 253.903 44.8188Z" fill="#ECB942"/>
<path d="M112.849 192.728C113.858 192.531 113.578 192.693 113.691 192.241C112.682 192.438 112.962 192.276 112.849 192.728Z" fill="#ECB942"/>
<path d="M89.7593 211.082C90.8822 210.434 90.3208 210.758 90.7149 210.144C90.7149 210.144 90.2668 210.017 90.1534 210.468C90.0401 210.92 89.9267 211.372 89.7593 211.082Z" fill="#ECB942"/>
<path d="M112.243 228.632L112.524 228.47C113.085 228.146 112.189 227.89 112.243 228.632C112.076 228.342 112.076 228.342 112.243 228.632Z" fill="#ECB942"/>
<path d="M178.936 192.445C179.104 192.735 179.104 192.735 179.217 192.283L178.936 192.445Z" fill="#ECB942"/>
<path d="M215.986 172.987C215.705 173.149 215.538 172.859 215.257 173.021L215.144 173.473C215.592 173.601 215.873 173.439 215.986 172.987C216.153 173.277 215.986 172.987 215.986 172.987Z" fill="#ECB942"/>
<path d="M167.345 208.026C166.897 207.898 166.897 207.898 166.617 208.06L166.336 208.222C166.951 208.64 167.459 207.574 167.345 208.026Z" fill="#ECB942"/>
<path d="M361.621 110.16C361.119 109.291 360.163 110.229 360.331 110.519C360.665 111.098 361.734 109.708 361.621 110.16Z" fill="#ECB942"/>
<path d="M262.019 168.439C262.299 168.276 262.299 168.276 262.58 168.114C262.132 167.987 262.132 167.987 262.019 168.439Z" fill="#ECB942"/>
<path d="M272.119 164.539C273.015 164.795 272.848 164.505 273.129 164.343C271.838 164.701 272.119 164.539 272.119 164.539Z" fill="#ECB942"/>
<path d="M272.119 164.539C271.671 164.411 271.671 164.411 272.119 164.539V164.539Z" fill="#ECB942"/>
<path d="M167.178 207.736C167.626 207.864 167.626 207.864 167.178 207.736V207.736Z" fill="#ECB942"/>
<path d="M169.608 200.923C169.16 200.795 169.16 200.795 169.608 200.923V200.923Z" fill="#ECB942"/>
<path d="M299.193 124.561C299.474 124.399 299.755 124.237 299.307 124.109C299.307 124.109 299.307 124.109 299.193 124.561C299.193 124.561 299.474 124.399 299.193 124.561Z" fill="#ECB942"/>
<path d="M105.253 223.006C105.139 223.458 105.139 223.458 105.253 223.006V223.006Z" fill="#ECB942"/>
<path d="M105.252 223.006C105.533 222.844 105.533 222.844 105.647 222.392C105.085 222.717 105.701 223.134 105.252 223.006Z" fill="#ECB942"/>
<path d="M63.7929 216.026C64.2409 216.154 64.2409 216.154 63.7929 216.026V216.026Z" fill="#ECB942"/>
<path d="M270.297 55.0629C270.243 54.3211 269.849 54.9351 269.569 55.0972C269.849 54.9351 269.849 54.9351 270.297 55.0629Z" fill="#ECB942"/>
<path d="M76.7502 172.991C76.4695 173.153 76.3021 172.863 76.0214 173.025C69.5108 176.011 70.7417 176.846 71.0224 176.684C72.8741 176.002 74.5584 175.029 76.0754 173.767C76.8042 173.732 76.9175 173.281 76.7502 172.991Z" fill="#ECB942"/>
</svg>
