<svg width="49" height="38" viewBox="0 0 49 38" fill="none" xmlns="http://www.w3.org/2000/svg">
<path d="M7.49553 0.171677C7.49421 0.171677 7.49273 0.171677 7.49141 0.171677C7.02797 0.171677 6.59208 0.352334 6.26294 0.680651C5.93017 1.0126 5.74687 1.45459 5.74687 1.92512V28.2178C5.74687 29.1819 6.53434 29.9682 7.50246 29.9707C11.5838 29.9804 18.4217 30.8311 23.139 35.7676V8.25159C23.139 7.92476 23.0555 7.61772 22.8979 7.36365C19.0262 1.12858 11.5861 0.181246 7.49553 0.171677Z" fill="#97BC59"/>
<path d="M43.2533 28.2178V1.92496C43.2533 1.45442 43.07 1.01243 42.7372 0.680484C42.4081 0.352166 41.9718 0.171509 41.5089 0.171509C41.5074 0.171509 41.5059 0.171509 41.5046 0.171509C37.4142 0.181243 29.9741 1.12858 26.1022 7.36365C25.9447 7.61772 25.8614 7.92476 25.8614 8.25159V35.7674C30.5786 30.8309 37.4165 29.9803 41.4978 29.9705C42.4658 29.9681 43.2533 29.1818 43.2533 28.2178Z" fill="#97BC59"/>
<path d="M47.2469 6.23517H45.9755V28.2178C45.9755 30.6795 43.9698 32.6868 41.5043 32.6929C38.0424 32.7012 32.3343 33.3781 28.2917 37.2043C35.2834 35.4924 42.6539 36.6052 46.8544 37.5624C47.3789 37.6819 47.9208 37.5585 48.3411 37.2236C48.7598 36.8895 49 36.3901 49 35.854V7.98829C49.0002 7.02165 48.2135 6.23517 47.2469 6.23517Z" fill="#97BC59"/>
<path d="M3.02448 28.2178V6.23517H1.75312C0.786643 6.23517 0 7.02165 0 7.98829V35.8535C0 36.3897 0.240216 36.889 0.658945 37.2231C1.07883 37.5578 1.62031 37.6817 2.14561 37.5619C6.3461 36.6045 13.7167 35.4919 20.7081 37.2038C16.6657 33.3778 10.9576 32.701 7.49571 32.6928C5.03035 32.6868 3.02448 30.6795 3.02448 28.2178Z" fill="#97BC59"/>
</svg>
