<svg width="43" height="52" viewBox="0 0 43 52" fill="none" xmlns="http://www.w3.org/2000/svg">
<path d="M42.0128 11.7826C41.4389 12.1648 40.6124 12.7495 39.6941 13.4241C37.2376 14.8857 34.9418 16.5273 32.7838 18.4162C32.4394 18.731 32.095 19.0683 31.7736 19.3831L31.7507 19.4056C30.3043 20.5299 27.9397 24.3077 26.654 26.4214C26.4933 26.6913 26.3097 26.9611 26.149 27.2535C26.149 27.2535 27.1821 23.2733 25.9423 18.1463C25.9194 18.0789 25.9194 18.0114 25.8964 17.9439C25.8735 17.899 25.8735 17.8315 25.8505 17.7865C25.8046 17.6066 25.7587 17.4267 25.6898 17.2468C25.6209 17.022 25.5521 16.8196 25.4832 16.6172C25.4143 16.4373 25.3684 16.2349 25.2995 16.055C25.2766 15.9651 25.2306 15.8751 25.2077 15.8077C24.519 13.9413 23.5088 12.0074 22.0395 10.0736C20.4784 7.98229 18.6418 6.07092 16.6903 4.24949C16.2771 3.84473 15.8868 3.50742 15.5424 3.2151C15.5424 3.2151 15.5195 3.2151 15.5195 3.19261C15.1522 2.87779 14.8308 2.60795 14.5553 2.40557C13.4074 1.37118 13.1778 0.764038 13.1778 0.764038C12.7645 1.61854 12.4891 2.33811 12.2595 2.90028C12.1447 3.14764 12.0529 3.46245 11.961 3.79975C11.8922 4.00213 11.8692 4.11457 11.8692 4.11457C11.7314 4.58679 11.5937 5.14896 11.456 5.80107C9.64229 13.5365 14.9226 20.8447 22.8201 21.3619C22.338 18.641 20.5013 16.5498 19.4453 14.1212C19.4453 14.1212 23.1415 16.055 24.0828 21.5418C24.1975 22.2389 24.2894 22.981 24.3582 23.7905V23.768C24.3812 23.858 24.3812 23.9704 24.3812 24.0603C24.3812 24.1503 24.4042 24.2627 24.4042 24.3527C24.4042 25.522 24.4042 26.8037 24.4501 27.1185C24.4501 27.5008 24.4271 27.9056 24.4042 28.3103C24.3123 30.1992 24.1746 32.1556 24.0598 34.5617C21.213 29.6146 17.6086 26.1291 13.2696 23.813C13.2696 23.813 4.77523 19.1132 0 20.0127C0 20.0127 0.73465 36.3381 14.5553 34.2019C16.0016 34.0894 17.4479 33.7521 18.7106 33.1225C17.9071 32.4479 17.1725 31.7958 16.3919 31.2111C14.2338 29.682 11.961 28.4003 9.48158 27.4333C9.82595 27.2984 10.1703 27.1635 10.4917 27.0511C11.7774 27.5008 13.086 27.9056 14.3716 28.4003C18.1596 29.8844 20.7539 32.8527 23.1415 35.8209C24.2435 37.1926 23.2104 38.9241 22.6594 40.6106C22.2461 40.4082 21.9018 40.1159 21.6033 39.7561C21.1212 39.4638 20.7998 38.9691 20.4784 38.5193C20.157 38.0696 19.8356 37.6423 19.606 37.1701C19.5601 37.1251 19.5371 37.0577 19.4912 37.0127C19.2387 36.6529 18.9172 36.2032 18.2974 36.0008C17.5168 35.7535 16.7363 36.2257 16.1853 36.518C15.1751 37.0352 14.1879 37.6873 14.0043 38.4968C13.8436 39.149 14.4864 39.8011 14.142 40.4307C13.8206 41.0154 12.8564 41.0603 11.961 41.1503C10.7443 41.2627 9.61933 41.6225 8.74693 42.1397C7.7827 42.7019 7.20876 43.4214 7.09397 44.231C6.95622 45.018 7.09397 45.805 6.61185 46.5471C6.24453 47.1318 5.64762 47.649 4.8441 48.0537C4.29311 48.3236 3.76508 48.5259 3.48959 48.9082C7.82862 50.7296 13.1548 51.809 18.9172 51.809C27.228 51.809 34.6434 49.5603 39.4875 46.0749C39.4645 46.0524 39.4415 46.0524 39.4186 46.0524C38.3625 45.5577 37.4442 44.9281 36.7555 44.2535C36.1127 43.6013 35.7453 42.9042 35.378 42.1847C34.9648 41.3077 34.276 40.2958 32.3935 40.3857C30.9701 40.4532 30.0977 41.0828 29.0416 41.555C28.1233 41.9598 27.1132 42.0498 26.0112 41.8474C25.2995 41.7124 24.6567 41.5101 24.0598 41.2627C24.5649 39.3064 25.047 37.35 25.4832 35.3712C26.6311 30.4016 30.8324 24.645 34.5515 23.2283C32.5771 25.9042 30.0747 28.018 29.0416 31.1886C36.4341 30.8064 41.3241 26.8487 42.5638 21.0696V21.0471C42.5868 20.9122 42.6327 20.7773 42.6556 20.6423C42.6556 20.6199 42.6556 20.5974 42.6786 20.5749C42.7015 20.4625 42.7015 20.3725 42.7245 20.2601C42.7475 20.1476 42.7704 20.0352 42.7704 19.9228C43.528 14.6833 42.0128 11.7826 42.0128 11.7826Z" fill="#97BC59"/>
</svg>
