<svg width="409" height="251" viewBox="0 0 409 251" fill="none" xmlns="http://www.w3.org/2000/svg">
<g clip-path="url(#clip0_1_1272)">
<path d="M383.195 172.785C382.214 172.473 381.236 172.484 380.268 173.462C379.946 173.788 379.953 174.433 379.637 175.404C382.744 176.338 390.069 175.292 391.245 178.504C391.11 181.086 390.454 180.77 387.527 181.447C387.534 182.092 387.204 181.773 389.334 182.717C389.837 184.002 389.511 184.006 385.435 184.049C383.479 184.07 382.966 181.818 380.851 182.163C379.713 182.498 378.718 180.896 377.583 181.553C370.391 179.695 368.93 180.356 368.896 177.131C368.709 174.876 374.268 176.429 375.069 175.13C374.733 174.166 374.716 172.554 373.092 173.216C369.194 174.548 370.311 172.278 367.221 172.957C364.294 173.633 364.467 174.599 362.181 174.301C354.666 172.769 353.695 173.424 352.061 173.119C350.098 172.495 347.983 172.84 346.037 173.829C347.532 176.393 347.032 175.43 347.549 178.005C346.737 178.336 345.926 178.667 345.111 178.676C345.114 178.999 344.955 179.323 345.447 179.64C359.514 184.004 353.108 179.558 358.321 179.18C360.114 179.16 361.557 176.887 361.918 180.109C362.282 183.652 363.579 182.993 366.187 182.965C371.57 183.23 366.693 184.573 379.9 184.754C381.856 184.733 380.386 184.426 386.275 186.298C386.937 187.258 387.117 188.869 387.294 190.157C387.148 191.771 386.666 192.421 386.181 192.749C380.975 193.772 380.312 192.812 383.59 194.389C383.767 195.678 383.607 196.002 383.281 196.005C380.673 196.033 378.062 195.739 375.603 194.475C373.178 196.436 375.453 195.767 363.561 196.539C363.901 197.825 364.386 197.498 364.716 197.817C368.975 199.706 368.815 200.03 368.982 200.351C360.235 205.605 361.14 198.823 353.506 201.484C353.34 201.164 353.336 200.841 353.17 200.52C353.004 200.2 352.844 200.524 352.688 201.171C352.691 201.493 353.506 201.484 353.506 201.484C353.673 201.805 353.683 202.773 353.846 202.771C368.919 209.705 367.75 207.137 368.281 211.001C364.053 212.014 363.064 211.057 360.956 212.047C357.193 210.798 353.964 213.735 350.024 211.197C349.861 211.199 349.691 210.556 349.684 209.911C351.613 207.31 350.804 207.964 352.591 207.299C348.12 200.897 346.264 210.27 341.215 210.646C337.955 210.681 334.875 212.327 331.608 211.717C329.322 211.419 324.768 212.435 324.279 212.44C322.812 212.456 321.331 211.182 320.041 212.486C318.265 214.117 316.791 213.488 315.671 215.435C315.186 215.763 315.186 215.763 315.668 215.113C317.631 215.737 316.993 217.034 316.389 221.555L316.392 221.878C316.385 221.233 316.059 221.236 318.841 222.174C319.524 225.069 319.351 224.104 319.534 226.037C317.263 227.029 315.137 226.406 312.865 227.398C313.042 228.686 313.031 227.719 316.787 228.324C316.95 228.322 317.12 228.965 317.287 229.286C316.964 229.612 316.642 229.938 316.316 229.941C310.118 229.685 310.444 229.682 307.659 228.421C299.8 225.281 303.265 229.114 291.65 225.368C290.832 225.054 290.173 224.416 289.663 222.487C291.928 220.85 294.55 222.112 301.219 220.75C301.219 220.75 301.528 219.134 301.039 219.14C299.409 219.157 299.263 220.771 297.456 219.5C295.157 217.913 294.546 221.789 292.236 219.234C292.07 218.913 291.747 219.239 291.584 219.241C289.639 220.229 288.331 219.921 283.281 220.297C282.813 222.237 283.472 222.875 283.808 223.839C283.822 225.129 283.17 225.136 283.184 226.426C283.84 226.742 284.498 227.38 285.809 228.011C275.221 228.769 274.739 229.419 271.295 227.521C265.718 224.356 263.138 226.963 260.02 225.062C256.243 222.522 235.704 222.742 235.052 222.749C234.407 223.401 233.925 224.051 233.273 224.058C229.191 223.457 228.55 224.431 224.301 223.509C217.271 221.65 206.523 222.732 205.226 223.391C205.399 224.357 205.573 225.323 205.749 226.611C199.399 227.324 200.707 227.632 199.215 225.391C194.963 224.146 196.115 225.101 189.106 225.176C188.623 225.827 187.985 227.124 187.333 227.13C186.033 227.467 185.103 231.992 183.258 227.174C182.44 226.86 181.625 226.869 180.806 226.555C180.657 227.847 180.816 227.523 181.645 228.804C181.004 229.778 180.341 228.818 179.856 229.146C179.204 229.153 178.552 229.16 177.896 228.844C176.571 226.923 176.897 226.92 175.944 229.188C173.499 229.214 174.157 229.852 173.478 227.279C172.996 227.929 172.354 228.904 171.712 229.878C170.731 229.566 169.579 228.611 168.452 229.913C159.66 230.975 160.462 229.676 156.397 230.687C155.585 231.018 154.611 231.351 153.785 230.393C152.963 229.756 152.329 231.376 151.51 231.062C150.688 230.426 150.046 231.4 149.231 231.409C148.898 230.767 148.406 230.45 148.073 229.809C147.095 229.819 146.301 231.763 144.997 231.777C144.012 231.142 142.694 229.866 141.234 230.527L141.23 230.205L141.397 230.525C141.4 230.848 141.241 231.172 141.241 231.172C135.886 233.487 132.095 229.657 133.409 230.611C132.938 232.228 132.452 232.556 130.659 232.575C124.139 232.645 123.976 232.647 123.317 232.009C121.673 230.737 121.867 233.637 119.405 232.051C116.124 230.151 115.992 233.055 114.518 232.426C113.537 232.114 111.563 230.522 110.599 231.823C108.83 234.099 107.183 232.504 105.057 231.882C102.636 234.166 98.2175 232.6 95.4568 233.598C94.9713 233.925 94.3123 233.287 93.9759 232.323C93.9483 229.744 94.753 228.767 95.3877 227.148C95.0583 226.829 94.8849 225.863 94.5589 225.867C91.9404 224.927 91.9611 226.862 91.2953 225.579C90.6329 224.619 90.4526 223.008 90.4354 221.396C90.425 220.428 90.5845 220.104 91.2262 219.13C91.7256 220.092 92.225 221.054 92.7278 222.339C93.7127 222.973 94.5174 221.997 94.9822 219.735C94.5036 220.707 95.7696 217.146 97.7395 218.415C98.232 218.732 98.5649 219.374 99.047 218.724C99.2066 218.399 99.3661 218.075 99.1927 217.109C96.2448 215.851 97.2298 216.485 95.2461 213.927C96.3767 212.947 100.459 213.548 100.622 213.547C100.948 213.543 101.118 214.186 101.451 214.828C101.135 215.799 100.982 216.768 100.83 217.737C101.988 219.337 103.136 219.97 104.083 217.057C103.077 214.488 103.41 215.129 103.237 214.164C103.379 212.227 104.204 213.186 104.683 212.213C104.669 210.923 104.815 209.309 104.798 207.697C104.468 207.378 104.135 206.736 103.972 206.738C100.057 206.457 101.201 206.768 100.081 208.715C99.6023 209.687 98.7873 209.696 98.6104 208.408C97.9342 206.158 96.9493 205.523 95.9713 205.534C97.1019 204.554 97.2684 204.875 97.5771 203.259C97.8859 201.643 96.4016 200.046 95.9125 200.052C91.1785 199.457 91.6744 200.097 90.5437 201.077C86.2848 199.187 84.6341 197.27 80.7392 198.924C79.6189 200.871 80.2709 200.864 77.9646 198.631C77.3126 198.638 76.664 198.968 76.012 198.975C75.0098 196.728 76.9659 196.707 77.7775 196.376C77.9405 196.374 78.0965 195.727 78.2561 195.403C76.4527 194.455 76.4527 194.455 73.3659 195.455C73.8653 196.418 74.5242 197.056 74.3751 198.347C74.2259 199.639 73.4108 199.648 72.9218 199.653C69.0028 199.05 69.6583 199.365 71.5971 197.732C71.7428 196.118 70.7648 196.128 70.9105 194.514L70.9139 194.837C71.2365 194.511 71.7255 194.505 71.7151 193.538C71.5314 191.605 72.18 191.275 72.4991 190.627C72.4784 188.692 72.6552 189.98 72.2843 185.792C70.7965 183.873 54.6693 185.013 50.934 186.343C47.1987 187.673 41.1502 186.125 38.5663 188.41C36.2807 188.112 33.8495 189.429 31.5536 188.163C29.9131 187.213 21.2911 188.918 16.2276 188.005C15.2461 187.693 14.7778 189.633 13.6195 188.033C13.453 187.712 13.4461 187.067 13.4427 186.745C11.7919 184.827 12.2913 185.789 42.926 184.494C48.6104 182.498 58.4011 183.36 59.6948 182.379C61.6371 181.068 64.5953 183.294 67.3319 180.04C66.4961 178.113 67.4811 178.748 63.8811 177.496C63.8708 176.529 63.8604 175.562 63.85 174.594C62.8617 173.637 60.9159 174.626 60.784 177.53C60.6556 180.756 55.7412 178.551 54.4268 177.598C54.5967 178.241 54.2569 176.955 53.9309 176.958C47.3865 174.771 42.6904 177.723 36.1702 177.793C36.1702 177.793 11.7193 178.055 10.5748 177.745C10.7344 177.421 10.7275 176.776 10.8905 176.774C10.8905 176.774 29.1437 176.256 32.7298 176.218C36.8049 176.174 34.346 174.91 37.6061 174.875C47.22 174.45 46.4084 174.781 49.6651 174.424C51.9437 174.077 50.2964 172.482 56.3311 172.74C56.8201 172.734 57.1426 172.408 57.7947 172.401C57.6247 171.758 57.4583 171.438 57.2953 171.439C55.9843 170.808 53.5289 169.867 52.2317 170.526C49.797 171.52 48.9682 170.238 47.834 170.896C43.7831 173.197 39.8295 169.369 37.5681 171.328C34.634 171.36 31.5542 173.005 28.6063 171.747C27.2988 171.438 25.9982 171.775 24.5311 171.79C14.2687 172.545 18.33 171.212 17.1959 171.869C15.4166 173.178 13.4468 171.909 11.5011 172.897C8.5324 169.704 9.2017 171.31 8.33139 166.159C10.9118 163.551 36.0423 165.862 41.2343 163.549C44.6402 161.9 43.1904 163.528 49.2147 162.818C49.5407 162.815 49.7003 162.49 50.6576 160.545C50.0021 160.23 49.3466 159.914 48.5247 159.278C47.1757 155.1 47.0024 154.134 46.3469 153.818C39.3031 150.669 39.1435 150.993 39.761 147.761C40.746 148.396 41.7275 148.708 42.7124 149.342C43.0384 149.339 43.6732 147.719 42.8512 147.083C42.5217 146.764 41.8594 145.804 40.2258 145.499C38.4293 145.196 38.7243 142.29 35.4607 142.002C8.54748 140.678 10.6976 143.558 9.5186 140.023C10.9615 137.75 18.6504 140.247 28.084 138.211C28.2124 134.985 25.7846 136.623 24.2796 133.092C23.7767 131.807 23.1213 131.492 22.6219 130.529C22.4554 130.209 22.4485 129.564 22.282 129.243C23.5619 126.972 24.897 129.86 26.2045 130.168C28.3029 128.211 27.1653 128.546 30.9213 129.15C31.9097 130.107 31.2854 132.694 31.9477 133.655C32.4471 134.617 31.9754 136.234 32.3152 137.521C34.1255 139.114 34.1255 139.114 36.7164 137.474C35.6692 131.035 36.831 132.957 40.2438 131.953C40.5698 131.95 40.8889 131.301 41.0484 130.977C41.0104 127.43 41.3537 129.039 39.3493 124.545C38.3643 123.911 38.229 126.492 37.2544 126.825C36.6058 127.154 35.9227 124.259 34.7851 124.594C34.303 125.244 33.8278 126.539 33.0128 126.548C26.9816 126.613 22.119 129.245 22.5424 123.112C22.9692 117.303 28.4106 123.05 32.7669 118.81C34.7333 119.757 36.8627 120.701 38.9783 120.356C39.9529 120.023 39.7657 117.768 39.419 115.836C38.2538 113.591 36.9359 112.315 35.3128 112.978C35.1428 112.335 34.9729 111.691 34.7996 110.726C32.3441 109.785 29.899 109.811 27.4608 110.482C27.1348 110.485 26.9787 111.132 26.8261 112.101C26.9857 111.777 27.1487 111.775 24.87 112.122L24.8735 112.445C23.3546 107.623 12.6619 113.866 8.202 108.431C8.51419 107.137 8.51073 106.815 8.83329 106.489C18.4368 105.096 19.7685 107.662 22.8414 105.371C22.831 104.404 22.8241 103.759 22.6508 102.793C23.778 101.491 25.0924 102.444 26.2369 102.755C27.5409 102.741 28.6958 104.018 29.6946 105.943C30.5096 105.934 31.3246 105.925 32.1431 106.239C36.8772 106.833 36.8184 101.351 38.6357 103.589C38.8021 103.91 39.2773 102.615 39.2739 102.293C39.267 101.648 38.9306 100.684 38.6011 100.365C38.4381 100.366 38.6011 100.365 37.7861 100.373C37.4532 99.732 36.777 97.4816 35.3099 97.4973C31.4013 97.8617 27.4684 95.9688 23.5701 97.3006C21.9435 97.6405 21.5933 95.3867 18.6903 98.3204C15.0696 95.1341 11.1644 95.821 6.92968 96.1888C6.44066 96.1941 6.27765 96.1958 5.11243 93.9507C6.3992 92.3244 8.04653 93.9193 9.17721 92.9397C10.1276 90.3494 8.62255 86.8179 10.7347 86.1502C11.3833 85.8208 10.5717 86.152 14.9659 85.4599C15.7568 83.1938 15.3859 79.0052 14.0784 78.6967C10.6449 77.7659 14.2483 79.3399 2.31778 76.5651C1.4993 76.2514 1.14565 73.6751 1.79421 73.3456C3.2509 72.3625 3.74337 72.6797 6.84048 72.6465C6.66365 71.3584 6.01509 71.6878 5.68217 71.0464C5.34925 70.4049 5.34234 69.76 5.65798 68.7891C13.139 67.0963 10.687 66.4776 15.9032 66.4217C18.3482 66.3955 20.7761 64.757 23.2108 63.7633C28.0768 61.4536 27.1333 64.6888 29.0755 63.378C31.0178 62.0671 31.8743 65.9281 33.9588 62.6807L34.1252 63.0014C33.6328 62.6842 33.4594 61.7185 33.1299 61.3995C32.3114 61.0858 30.0432 62.4001 27.0884 60.4967C24.4595 58.5898 22.6872 60.5438 21.8549 58.9402C22.6561 57.6416 23.6445 58.5985 24.4561 58.2673C25.2677 57.9361 25.9162 57.6067 26.7313 57.5979C27.165 52.4331 24.0817 53.7562 23.4228 53.1182C20.7905 50.8888 19.3373 52.1945 15.4286 52.5588C14.2634 50.3137 15.0853 50.95 11.3327 50.6677C10.0287 50.6816 10.6496 47.7724 11.1352 47.4447C14.3711 45.1524 13.1016 48.3911 14.5237 44.1833C16.2822 40.9393 32.7976 45.6 36.1758 41.3712C36.9805 40.3951 37.4764 41.0348 45.4706 41.5941C48.7342 41.8817 48.7515 43.494 51.5191 43.1419C58.681 42.0976 57.5503 43.0773 58.3343 40.1663C62.5309 36.2512 64.6846 39.4532 70.3552 36.1674C71.0038 35.8379 71.6558 35.8309 72.3044 35.5015C72.2906 34.2116 71.9645 34.2151 71.8015 34.2168C65.264 32.6743 52.2512 35.3938 49.7854 33.4851C49.9415 32.8384 49.9346 32.1935 50.0976 32.1917C51.2317 31.5346 52.5254 30.5532 53.6699 30.8634C56.7774 31.7977 56.7705 31.1527 70.13 30.3646C74.3682 30.3192 72.7105 27.7568 76.796 28.6806C83.167 29.9024 104.493 27.0938 109.903 29.9385C110.722 30.2522 111.703 30.5642 112.515 30.233C113.49 29.9 114.474 30.5345 115.782 30.843C118.695 28.8767 119.826 27.8971 121.144 29.173C121.803 29.811 122.438 28.1916 124.075 28.8191C130.775 30.3599 132.71 28.4041 133.692 28.7161C135.825 29.9833 137.767 28.6724 138.096 28.9914C139.914 31.2295 144.922 26.9832 150.828 30.4676C166.55 21.9138 133.824 25.8121 60.8076 27.5619C58.5255 27.5863 52.1821 28.9443 49.0816 28.655C45.981 28.3657 34.4076 28.4897 30.3497 30.1457C30.0306 30.7942 29.7081 31.1201 29.5485 31.4444C26.4272 29.2202 21.7243 31.5282 18.4503 30.2732C18.6099 29.949 18.766 29.3023 18.766 29.3023C21.5405 29.5951 24.2909 27.6306 27.062 27.6009C28.692 27.5834 28.5048 25.3278 32.2574 25.6102C36.1765 26.2132 36.1592 24.6008 43.6609 24.843C48.0655 25.1183 47.0909 25.4512 50.3027 20.9017C52.2588 20.8807 51.7628 20.241 52.9384 23.4535C59.4656 24.0286 151.377 20.7864 151.377 20.7864C153.822 20.7602 152.986 18.8341 156.898 18.7921C164.885 18.7066 180.371 18.5407 192.759 18.4079C193.9 18.3957 195.031 17.4161 196.012 17.7281C197.157 18.0383 198.295 17.7036 199.269 17.3707C201.707 16.6995 201.725 18.3119 204.333 18.2839C224.545 18.0674 223.9 18.7193 224.032 15.8153C223.044 14.8584 222.073 15.5138 221.095 15.5243C217.502 14.9178 220.3 17.4679 215.06 15.2664C214.897 15.2682 214.727 14.625 214.401 14.6285C214.561 14.3042 214.557 13.9818 214.72 13.98C224.324 12.5871 225 14.8374 230.868 14.7746C237.551 14.703 237.548 14.3805 238.391 16.9515C241.658 17.5616 240.19 17.5773 241.831 18.5272C245.441 20.7461 244.942 19.7839 249.509 20.0575C252.77 20.0226 252.291 20.9953 254.417 21.6175C255.398 21.9295 256.373 21.5965 257.354 21.9085C261.946 24.4394 263.216 21.2007 271.227 23.3725C272.354 22.0704 273.648 21.089 274.973 23.0098C274.803 22.3666 275.143 23.653 275.15 24.298C275.531 29.4541 283.453 23.2415 286.425 26.7573C288.242 28.9954 290.174 26.7171 293.257 25.394C294.721 25.0558 297.662 25.6694 297.044 28.9011C295.594 30.5292 294.762 28.9255 285.641 29.6683C286.147 31.2754 285.481 29.9925 297.391 30.8324C310.279 31.6619 310.428 30.3702 313.865 31.6235C314.683 31.9372 312.072 31.6427 324.623 31.5082C339.949 31.6665 343.92 37.1067 359.052 34.3645C360.637 30.1548 360.807 30.798 363.415 30.7701C365.076 33.6549 365.076 33.6549 366.71 33.9599C368.673 34.5839 374.697 33.8743 374.697 33.8743C377.624 33.1979 376.338 34.8243 387.745 34.3796C396.706 33.961 395.08 34.301 396.391 34.932C396.401 35.8994 396.411 36.8668 396.085 36.8703C393.973 37.5379 383.381 37.9739 380.78 38.6468C380.454 38.6503 380.302 39.6195 380.142 39.9437C380.336 42.8442 381.477 42.832 382.795 44.1079C362.426 44.9712 368.613 44.2599 368.159 47.4898C366.546 49.1197 364.413 47.8525 364.965 53.6518C365.457 53.969 365.953 54.6087 366.445 54.9259C366.959 57.178 365.162 56.8748 364.694 58.8148C365.842 59.4476 366.83 60.4045 367.666 62.3306C368.335 63.936 369.639 63.922 369.84 67.4675C370.152 66.1741 370.468 65.2032 370.621 64.234C371.311 67.7742 370.638 65.8464 373.447 69.3639C373.943 70.0036 374.279 70.9675 374.297 72.5799C374.456 72.2557 374.945 72.2505 371.047 73.5823C370.565 74.2324 369.92 74.8844 369.944 77.1417C371.598 79.3815 370.783 79.3903 375.996 79.0119C376.322 79.0084 376.481 78.6842 376.964 78.034C376.783 76.4234 376.606 75.1352 376.433 74.1696C376.433 74.1696 384.098 74.41 385.083 75.0444C385.409 75.0409 385.745 76.0049 385.589 76.6516C385.28 78.2674 385.277 77.945 381.538 78.9525C380.074 79.2907 380.234 78.9665 380.275 82.8362C379.478 84.4573 378.475 82.2105 377.511 83.5108C377.681 84.154 377.851 84.7972 378.018 85.118C379.835 87.3561 379.325 85.4265 379.845 88.3235C376.606 90.2933 374.119 86.4498 373.998 90.3212C374.029 93.2235 374.029 93.2235 372.902 94.5256C370.082 90.0406 371.067 90.6751 368.792 91.3445C368.178 94.8987 368.192 96.1886 366.558 95.8836C354.139 93.114 358.356 91.1338 352.675 93.4522C352.363 94.7456 352.533 95.3888 353.029 96.0285L353.025 95.7061C351.794 102.492 353.206 97.3167 357.173 102.434C358.498 104.355 359.472 104.022 366.176 105.886C366.832 106.201 368.146 107.154 371.247 107.444C382.498 107.646 382.328 107.003 383.316 107.959C383.34 110.217 374.028 108.381 369.478 109.72C368.843 111.34 369.349 112.947 369.041 114.563C368.728 115.856 368.42 117.472 368.107 118.765C369.259 119.72 368.947 121.014 369.002 126.173C369.342 127.46 369.678 128.424 370.018 129.71C368.592 133.596 369.078 133.268 371.846 132.916C372.661 132.907 373.472 132.576 374.124 132.569C378.536 133.489 382.767 132.799 387.175 133.396C388.646 133.703 388.483 133.705 388.347 136.287C391.475 139.156 398.793 137.465 403.215 139.352C401.589 139.692 400.621 140.67 399.803 140.356C398.492 139.725 397.361 140.705 396.57 142.971C393.962 142.999 392.97 141.72 390.532 142.391C390.206 142.394 389.88 142.398 389.55 142.079C387.078 139.525 382.205 141.19 380.564 140.24C378.431 138.973 376.323 139.963 374.2 139.663C372.73 139.356 371.11 140.341 369.657 141.647C369.334 141.973 369.178 142.62 368.863 143.59C371.984 145.815 372.143 145.49 370.055 148.415C370.78 155.18 370.926 153.566 382.017 154.092C382.506 154.087 382.829 153.761 383.168 155.048C383.172 155.37 383.012 155.694 382.849 155.696C374.231 157.723 375.986 154.157 370 158.414C369.347 158.421 368.515 156.817 367.71 157.793C367.065 158.445 366.41 158.13 365.761 158.459C365.765 158.782 365.775 159.749 365.938 159.747C370.703 163.244 370.357 161.313 372.843 165.156C372.198 165.808 371.549 166.137 370.904 166.789C371.9 168.391 372.722 169.027 373.863 169.015C380.865 168.295 380.563 170.556 382.835 169.564C383.161 169.561 383.494 170.202 383.501 170.847C384.146 170.195 382.88 173.756 383.195 172.785ZM107.208 37.0626C107.375 37.3833 107.541 37.704 107.704 37.7023C108.682 37.6918 108.505 36.4037 108.828 36.0777C108.512 37.0486 107.85 36.0882 107.208 37.0626ZM78.8588 129.927C78.519 128.64 79.1917 130.568 79.5177 130.565C79.8438 130.561 80.0033 130.237 79.8334 129.594C79.6635 128.951 79.0184 129.603 78.8588 129.927ZM336.949 132C337.93 132.312 338.905 131.979 339.713 131.325C336.116 130.396 338.409 131.339 336.307 132.974C336.633 132.97 336.473 133.295 336.949 132ZM226.165 17.0825L226.158 16.4376C226.997 18.6862 228.943 17.6978 229.755 17.3666C228.447 17.0581 227.303 16.7478 226.165 17.0825ZM25.7802 75.3462C25.2878 75.029 24.9479 73.7426 24.3097 75.0394C24.9687 75.6774 25.4542 75.3497 25.7802 75.3462C25.6621 79.5401 30.2228 79.1687 30.247 81.426C30.2643 83.0384 30.6041 84.3248 31.2561 84.3178C33.5451 84.9383 35.6711 85.5606 37.9428 84.5687C38.1058 84.567 38.2619 83.9203 38.4215 83.596C36.9233 80.7095 37.0967 81.6752 37.7349 80.3783C38.5361 79.0797 38.5327 78.7572 38.016 76.1826C30.3306 74.0074 28.3676 73.3834 25.7802 75.3462ZM349.467 98.3243L349.47 98.6467C348.801 97.0414 350.258 96.0582 350.077 94.4476C348.926 93.4924 347.934 92.213 346.946 91.256C345.312 90.951 342.884 92.5896 340.256 90.6827C339.763 90.3655 335.851 90.4074 332.917 90.4388C332.754 90.4406 332.594 90.7648 332.435 91.089C332.608 92.0547 332.618 93.0221 332.795 94.3102C329.719 96.2783 329.018 91.7706 322.498 91.8405C318.423 91.8841 314.192 92.5745 310.096 90.6833C307.162 90.7147 304.228 90.7462 301.464 91.4208C304.568 92.0326 307.006 91.3614 307.831 92.3201C309.479 93.915 310.616 93.5803 318.118 93.8225C321.378 93.7875 319.113 95.4244 324.163 95.0477C328.235 94.6816 327.78 97.9116 331.37 98.1956C332.022 98.1887 335.618 99.1177 335.92 96.8568C336.364 92.6595 337.672 92.968 339.312 93.9179C338.688 96.5047 338.844 95.858 338.202 96.8324C338.043 97.1566 337.717 97.1601 337.727 98.1275C338.379 98.1205 339.034 98.436 339.849 98.4273C344.903 98.3732 346.907 102.867 349.467 98.3243ZM164.468 208.025C163.442 203.521 162.186 208.049 159.887 206.461C158.735 205.506 157.594 205.518 156.62 205.851C150.769 207.527 130.352 203.875 126.141 206.5C124.199 207.811 115.733 208.869 125.673 208.44C138.221 207.984 154.698 209.097 164.468 208.025ZM223.941 129.018C225.914 130.609 232.101 129.898 260.627 129.592C261.116 129.587 261.772 129.902 262.247 128.607C249.522 127.776 238.466 130.475 237.12 126.619C237.273 125.65 237.262 124.682 237.415 123.713C235.931 122.116 236.749 122.43 234.803 123.419C234.318 123.746 233.659 123.108 233.343 124.079C233.354 125.047 233.361 125.692 233.371 126.659C232.889 127.309 232.57 127.958 232.081 127.963C228.664 128.644 226.206 127.381 223.941 129.018ZM162.145 36.7965C162.297 35.8274 161.964 35.1859 161.638 35.1894C160.82 34.8757 159.838 34.5637 159.027 34.8949C157.567 35.5555 152.007 34.0025 148.268 35.0101C143.066 36.3559 141.585 35.0817 138.505 36.7273C144.235 38.9235 145.192 36.9782 147.821 38.8851C149.954 40.1522 153.037 38.8292 157.442 39.1045C159.235 39.0853 160.695 38.4246 162.145 36.7965ZM324.154 48.6063C338.02 49.4253 323.173 48.2943 343.393 48.7227C348.286 48.9928 346.316 47.7238 349.243 47.0475C349.569 47.044 349.569 47.044 350.045 45.7488C349.556 45.7541 349.063 45.4368 348.737 45.4403C329.995 45.9636 330.148 44.9945 324.154 48.6063ZM359.936 116.918C358.799 117.252 357.488 116.621 356.357 117.601C356.038 118.25 355.886 119.219 355.566 119.867C353.784 120.854 354.266 120.204 353.957 121.819C356.447 125.985 356.721 121.145 358.528 122.415C358.542 123.705 357.734 124.359 358.244 126.289C362.166 127.214 361.677 127.219 362.125 123.345C364.244 123.322 362.777 123.338 365.884 124.272C366.21 124.268 366.678 122.328 365.853 121.369C363.411 121.718 364.722 122.349 359.936 116.918ZM57.0443 117.583C59.8431 120.133 62.4373 118.815 65.2119 119.108C65.6905 118.135 66.3357 117.483 66.8143 116.51C68.9368 116.81 68.2779 116.172 69.7795 119.381C70.924 119.692 70.924 119.692 71.5657 118.717C71.5587 118.072 71.5553 117.75 71.3854 117.107C71.1913 114.206 73.501 116.761 74.7774 114.168C72.974 113.219 71.5104 113.558 65.3127 113.301C62.2156 113.335 61.605 117.211 58.1785 116.925C58.012 116.605 57.6929 117.253 57.0443 117.583ZM355.225 72.7842C356.404 76.3192 358.013 74.3669 359.501 76.286C360.677 79.4985 359.855 78.8623 363.288 79.7931C364.086 78.172 364.728 77.1976 365.529 75.8989C365.522 75.254 365.168 72.6777 364.35 72.364C361.242 71.4297 358.312 71.7836 355.225 72.7842ZM354.331 50.2181C353.842 50.2233 353.37 51.8409 353.547 53.1291C353.731 55.0621 353.728 54.7397 361.881 54.9748C362.044 54.9731 362.204 54.6489 362.526 54.3229C361.823 49.4928 362.807 50.1272 354.331 50.2181ZM354.435 151.163C358.191 151.768 361.61 151.408 365.033 151.372C365.522 151.367 365.845 151.041 366.33 150.713C366.473 148.776 366.14 148.135 364.669 147.828C355.048 147.609 356.03 147.921 354.435 151.163ZM349.961 53.1675C349.625 52.2035 349.288 51.2396 348.799 51.2449C346.514 50.9468 344.395 50.9695 342.286 51.9597C341.8 52.2874 341.644 52.9341 341.495 54.2257C341.349 55.8398 349.323 54.4644 349.323 54.4644C349.486 54.4626 349.805 53.8142 349.961 53.1675ZM82.6117 38.9386C79.0187 38.3321 75.6128 39.9812 72.1897 40.0178C58.9863 40.1593 66.037 43.9539 81.8071 39.9148C82.1331 39.9113 82.2892 39.2646 82.6117 38.9386ZM80.6905 118.297C80.694 118.619 80.6974 118.942 80.5379 119.266C81.0269 119.261 81.3564 119.58 81.8454 119.575C100.102 119.379 98.8014 119.715 99.1136 118.422C99.1136 118.422 81.3425 118.29 80.6905 118.297ZM371.16 190.652C373.778 191.592 373.931 190.623 375.079 191.255C377.045 192.202 378.832 191.538 380.618 190.874C380.781 190.872 380.777 190.549 380.937 190.225C377.823 188.646 374.708 187.067 371.448 187.102C370.831 190.333 370.983 189.364 371.16 190.652ZM125.628 36.8652C123.332 35.5998 123.02 36.8932 120.079 36.2797C115.834 35.6801 115.685 36.9718 113.389 35.7063C112.407 35.3943 111.429 35.4048 110.458 36.0602C110.458 36.0602 110.298 36.3844 110.302 36.7069C110.808 38.3141 110.316 37.9968 124.494 37.5224C124.82 37.5189 125.142 37.193 125.628 36.8652ZM123.585 211.365C125.874 211.986 139.74 212.805 140.211 211.187C137.107 210.576 128.142 210.672 123.585 211.365ZM355.688 192.108C352.425 191.821 353.732 192.129 351.103 190.222C350.281 189.586 349.321 191.209 345.544 188.669C344.722 188.033 343.577 187.723 342.776 189.021C342.957 190.632 343.449 190.949 343.938 190.944C346.224 191.242 349.158 191.211 350.469 191.842C352.765 193.107 352.765 193.107 355.688 192.108ZM331.529 113.029C337.577 114.577 339.041 114.239 340.327 112.613C339.995 111.971 339.825 111.328 339.499 111.331C337.206 110.389 334.928 110.735 332.489 111.407C332 111.412 331.678 111.738 331.529 113.029ZM268.601 219.487C270.238 220.115 279.078 223.567 280.847 221.291C275.44 218.769 278.055 219.386 268.601 219.487ZM72.0091 129.678C72.0057 129.355 71.9988 128.71 71.9988 128.71C71.3364 127.75 70.5179 127.436 69.8659 127.443C64.6531 127.822 65.281 125.557 62.052 128.494C62.052 128.494 61.8924 128.819 61.8993 129.464C65.3363 130.717 68.586 129.714 72.0091 129.678ZM59.7608 97.2354C58.6163 96.9251 57.4683 96.2924 56.8474 99.2017C56.5352 100.495 56.0358 99.5329 56.0635 102.113C56.0738 103.08 58.6819 103.052 59.9825 102.716C59.9376 98.5235 59.9549 100.136 59.7608 97.2354ZM165.301 118.358C163.501 117.732 154.525 116.861 153.072 118.166C153.571 119.129 161.236 119.369 165.301 118.358ZM67.292 54.5833C71.2111 55.1863 75.2897 55.4651 79.188 54.1333C75.1059 53.532 71.1938 53.574 67.292 54.5833ZM317.673 113.178C307.556 112.319 307.556 112.319 306.589 113.297C309.207 114.236 311.163 114.215 317.673 113.178ZM333.145 187.835C333.315 188.478 333.322 189.123 333.325 189.445C335.951 191.03 338.528 188.099 339.846 189.375C340.009 189.374 340.165 188.727 340.328 188.725C340.161 188.404 339.988 187.439 339.988 187.439C337.22 187.791 336.884 186.827 333.145 187.835ZM260.714 213.766C262.022 214.075 263.329 214.383 264.63 214.047C266.093 213.709 267.415 215.307 268.878 214.969C270.016 214.634 270.019 214.957 269.686 214.315C266.572 212.736 263.794 212.121 260.714 213.766ZM57.1106 108.552C57.1175 109.197 56.958 109.521 56.9614 109.843L57.1313 110.486C60.0516 109.165 62.6701 110.105 64.4562 109.44C64.6192 109.439 64.765 107.825 64.2725 107.507C61.8136 106.244 65.0944 108.144 57.1106 108.552ZM200.184 209.255C206.218 209.513 203.936 209.537 209.146 208.836C206.042 208.224 203.111 208.578 200.184 209.255ZM36.5012 56.5257C34.5244 54.6118 33.3627 52.6892 31.5834 53.9983C31.0979 54.326 30.7822 55.297 30.7926 56.2644C30.8064 57.5543 30.9694 57.5525 35.5301 57.1811C35.8561 57.1777 36.0157 56.8534 36.5012 56.5257ZM224.717 216.732C222.758 216.431 219.328 215.822 217.205 215.523C216.553 215.53 214.968 219.739 224.717 216.732ZM353.157 168.915C354.964 170.185 354.149 170.194 359.372 170.783C360.024 170.776 360.174 169.484 360.167 168.839C359.022 168.529 359.341 167.881 354.618 168.254C354.455 168.256 353.969 168.583 353.157 168.915ZM161.582 212.571C153.432 212.658 154.407 212.325 154.417 213.293C158.329 213.251 160.146 215.489 161.582 212.571ZM36.6429 69.7471C35.9839 69.1092 37.125 69.097 30.4348 68.5236C27.8233 68.2291 28.829 70.7984 28.829 70.7984C30.4625 71.1034 34.5342 70.7373 36.6429 69.7471ZM179.947 207.214C179.115 205.61 179.288 206.576 171.956 206.977C173.267 207.608 178.82 208.516 179.947 207.214ZM123.307 139.771C120.858 139.475 118.406 138.856 115.975 140.172C118.427 140.791 120.872 140.765 123.307 139.771ZM313.02 74.5264C313.395 79.0376 315.493 77.08 317.279 76.4159C317.605 76.4124 317.262 74.8035 317.096 74.4828C315.625 74.176 314.321 74.19 313.02 74.5264ZM336.406 172.642C332.799 170.745 330.565 175.284 331.866 174.948C333.333 174.932 334.8 174.916 336.406 172.642ZM66.76 172.305C65.7647 170.704 64.7901 171.036 63.9681 170.4C62.0293 172.034 62.8409 171.702 60.7253 172.048C62.6848 172.349 64.6616 174.263 66.76 172.305ZM38.1347 56.8307C39.7613 56.4908 41.7243 57.1148 40.5349 52.6124C39.2309 52.6263 40.039 51.9727 38.1347 56.8307ZM105.741 37.0783C97.5875 36.8431 97.5979 37.8106 104.611 38.0579C104.774 38.0562 105.096 37.7302 105.741 37.0783ZM212.045 129.468C212.711 130.75 213.352 129.776 214.004 129.769C214.823 130.083 215.797 129.75 216.612 129.741C217.101 129.736 216.935 129.415 217.254 128.767C213.658 127.838 213.495 127.839 212.045 129.468ZM86.8398 114.038C89.1357 115.304 89.1357 115.304 91.567 113.988C91.4005 113.667 91.2341 113.346 90.9081 113.35C86.6699 113.395 87.3219 113.388 86.8398 114.038ZM57.4476 94.3576C59.2476 94.9833 59.2476 94.9833 60.2152 94.0054C59.546 92.4 58.7275 92.0863 57.7563 92.7417C57.5933 92.7435 57.6037 93.7109 57.4476 94.3576ZM152.454 212.669C150.817 212.041 149.51 211.733 147.893 213.04C149.53 213.668 150.838 213.976 152.454 212.669ZM318.449 48.6674C317.145 48.6814 315.994 47.7262 314.863 48.7058C316.004 48.6936 317.145 48.6814 318.449 48.6674ZM214.958 203.614C214.802 204.26 214.473 203.941 218.874 203.894C218.867 203.249 219.197 203.568 214.958 203.614ZM176.524 24.7096C176.691 25.0303 176.365 25.0338 179.462 25.0006C179.458 24.6781 179.947 24.6729 176.524 24.7096ZM262.626 27.0122C263.611 27.6467 264.748 27.312 265.726 27.3015C265.56 26.9808 265.886 26.9773 262.626 27.0122ZM51.553 61.5246C52.701 62.1574 53.6825 62.4694 54.8166 61.8122C54.9796 61.8104 54.9727 61.1655 55.1322 60.8413C55.2883 60.1946 53.6514 59.5671 52.0317 60.552C51.8687 60.5537 51.7091 60.8779 51.553 61.5246ZM64.4568 94.2825C64.2731 92.3494 64.1067 92.0287 63.4512 91.7132C63.1252 91.7167 62.7992 91.7202 62.6465 92.6893C62.3343 93.9827 63.6556 95.5811 64.4568 94.2825ZM366.67 167.157C367.831 169.08 370.124 170.023 369.763 166.802C368.778 166.167 367.8 166.178 366.67 167.157ZM315.073 174.805C316.873 175.431 316.873 175.431 317.348 174.136C315.545 173.188 315.212 172.546 314.896 173.517C314.896 173.517 315.066 174.16 315.073 174.805ZM73.2692 186.426C73.2796 187.394 72.9536 187.397 74.431 188.349C75.0864 188.664 75.9015 188.656 76.0472 187.041C75.8773 186.398 76.3663 186.393 73.2692 186.426ZM173.322 212.768C174.463 212.755 175.441 212.745 176.582 212.733C175.601 212.421 174.623 212.431 173.645 212.442C173.482 212.443 173.482 212.443 173.322 212.768ZM278.659 214.864C281.291 217.094 280.965 217.097 281.447 216.447C280.611 214.521 280.611 214.521 278.659 214.864ZM229.868 119.279C230.846 119.268 231.668 119.904 232.636 118.927C231.651 118.292 230.836 118.301 229.868 119.279ZM372.125 82.9235C375.063 83.2146 374.577 83.5423 374.893 82.5714C373.908 81.9369 372.926 81.6249 372.125 82.9235ZM237.814 24.0529C238.633 24.3667 239.465 25.9703 240.097 24.0285C239.282 24.0372 238.466 24.046 237.814 24.0529ZM181.958 212.353C181.14 212.039 179.662 211.087 179.028 212.707C180.019 213.986 180.827 213.332 181.958 212.353ZM146.097 212.737C146.09 212.092 146.419 212.411 144.137 212.435C144.307 213.078 143.978 212.759 146.097 212.737ZM276.523 30.7335C277.334 30.4023 277.997 31.3627 278.798 30.0641C278.146 30.0711 277.491 29.7556 276.523 30.7335ZM107.94 211.856C108.592 211.849 109.577 212.483 109.892 211.512C109.237 211.197 108.581 210.881 107.94 211.856ZM191.017 129.693C191.014 129.37 191.177 129.369 189.058 129.391C189.061 129.714 188.898 129.716 191.017 129.693ZM168.536 207.336C167.714 206.7 167.066 207.029 166.58 207.357C167.236 207.673 167.732 208.312 168.536 207.336ZM295.827 113.089C295.83 113.412 295.667 113.414 297.623 113.393C297.783 113.068 297.946 113.067 295.827 113.089ZM100.369 113.893C99.2179 112.938 99.2179 112.938 98.2502 113.916C98.9126 114.877 99.7311 115.19 100.369 113.893ZM184.04 26.2416C183.364 23.9913 182.899 26.2538 183.065 26.5746C183.721 26.8901 183.717 26.5676 184.04 26.2416ZM332.931 76.5707C332.598 75.9292 332.106 75.612 331.627 76.5847C332.116 76.5794 332.605 76.5742 332.931 76.5707ZM330.113 133.04C331.098 133.675 331.098 133.675 331.576 132.702C331.084 132.385 330.588 131.745 330.113 133.04ZM70.483 48.0989C70.1467 47.135 69.6542 46.8177 69.0125 47.7921C69.668 48.1076 70.157 48.1024 70.483 48.0989ZM22.1354 69.9026C22.1319 69.5801 21.9585 68.6144 21.3065 68.6214C20.488 68.3077 20.6683 69.9183 21.1573 69.913C21.4834 69.9095 21.8094 69.9061 22.1354 69.9026ZM115.366 113.733C116.84 114.362 116.351 114.367 117.159 113.714C116.496 112.753 116.985 112.748 115.366 113.733ZM107.212 113.498C106.397 113.506 106.071 113.51 106.074 113.832C106.078 114.155 106.081 114.477 106.244 114.475C106.581 115.439 106.581 115.439 107.212 113.498ZM339.743 73.2726C340.235 73.5898 340.728 73.9071 341.21 73.2569C340.714 72.6172 340.225 72.6224 339.743 73.2726ZM171.037 212.47C170.218 212.156 170.544 212.152 170.385 212.477C170.548 212.475 170.874 212.471 171.037 212.47ZM269.458 208.19C269.125 207.549 268.799 207.552 268.317 208.202C268.653 209.166 269.142 209.161 269.458 208.19ZM214.036 208.784C213.384 208.791 213.384 208.791 213.387 209.113C214.202 209.105 214.039 209.106 214.036 208.784ZM366.851 153.61C366.688 153.612 366.355 152.97 366.202 153.939C366.857 154.255 366.857 154.255 366.851 153.61ZM56.5126 144.034C57.1715 144.672 57.0085 144.674 57.4872 143.701C57.1612 143.705 57.3242 143.703 56.5126 144.034ZM128.364 140.039C129.022 140.677 128.859 140.679 129.179 140.031C129.012 139.71 129.172 139.386 128.364 140.039ZM115.747 118.889C115.414 118.247 115.088 118.251 114.769 118.899C115.258 118.894 115.421 118.892 115.747 118.889ZM76.73 113.824C76.7335 114.147 76.567 113.826 77.382 113.817C77.382 113.817 77.382 113.817 76.73 113.824ZM85.3863 39.2314C84.5678 38.9177 84.7308 38.9159 84.4048 38.9194C84.7377 39.5609 84.9042 39.8816 85.3863 39.2314ZM49.4588 48.6466C49.4622 48.9691 49.2992 48.9709 49.3027 49.2933C49.1708 52.1973 49.9685 50.5762 49.4588 48.6466ZM309.686 98.1054C308.868 97.7917 309.194 97.7882 308.871 98.1142C309.197 98.1107 309.523 98.1072 309.686 98.1054ZM174.572 25.053C174.246 25.0565 174.246 25.0565 174.572 25.053V25.053ZM75.2281 34.5026C74.8986 34.1836 75.0616 34.1819 75.0651 34.5043L75.2281 34.5026ZM93.1933 37.5352C93.0303 37.537 93.0303 37.537 93.1933 37.5352V37.5352ZM279.346 35.5409C279.672 35.5374 279.672 35.5374 279.346 35.5409V35.5409ZM45.7925 56.4262L45.7891 56.1037C45.4631 56.1072 45.4665 56.4297 45.633 56.7504C45.633 56.7504 45.6295 56.4279 45.7925 56.4262ZM23.762 69.5626C23.4394 69.8886 23.4394 69.8886 23.7654 69.8851L23.762 69.5626ZM68.1513 73.9247C67.8253 73.9282 67.8288 74.2507 67.9952 74.5714C67.9952 74.5714 68.1582 74.5697 68.3212 74.5679C68.3178 74.2455 68.3178 74.2454 68.1513 73.9247ZM70.5964 73.8985L70.5999 74.221C70.9293 74.54 71.2484 73.8915 70.756 73.5743C70.7594 73.8968 70.7594 73.8968 70.5964 73.8985ZM351.805 73.1434C352.128 72.8174 352.131 73.1399 351.805 73.1434V73.1434ZM322.971 75.0649C322.971 75.0649 322.967 74.7424 322.804 74.7441C322.478 74.7476 322.482 75.0701 322.645 75.0683C322.808 75.0666 322.971 75.0649 322.971 75.0649ZM327.878 76.6248C327.549 76.3058 327.549 76.3058 327.552 76.6283L327.878 76.6248ZM352.977 76.0334C353.307 76.3524 353.307 76.3524 353.304 76.0299L352.977 76.0334ZM364.391 91.3917C364.387 91.0692 364.384 90.7467 364.058 90.7502L363.898 91.0744C364.061 91.0727 364.224 91.0709 364.391 91.3917ZM103.792 113.857C103.463 113.538 103.626 113.536 103.303 113.862C103.633 114.181 103.47 114.183 103.792 113.857ZM74.0142 119.013C74.3402 119.01 74.3367 118.687 74.0107 118.691C74.0107 118.691 73.8477 118.693 73.6847 118.694C73.8512 119.015 73.8512 119.015 74.0142 119.013ZM191.555 119.044C191.559 119.367 191.559 119.367 191.885 119.363L191.555 119.044ZM237.363 118.876C237.363 118.876 237.36 118.553 237.197 118.555C236.871 118.559 236.874 118.881 237.041 119.202C237.204 119.2 237.367 119.198 237.363 118.876ZM361.41 132.705C361.08 132.386 361.08 132.386 361.084 132.708L361.41 132.705ZM125.752 139.745C125.925 140.711 126.567 139.736 126.078 139.741C125.915 139.743 125.915 139.743 125.752 139.745ZM366.587 144.26C367.083 144.9 367.073 143.932 366.747 143.936L366.587 144.26ZM175.322 155.984C174.996 155.988 174.996 155.988 175.163 156.309C175.163 156.309 175.326 156.307 175.322 155.984ZM53.7547 160.512C53.4321 160.838 53.4287 160.515 53.7581 160.834L53.7547 160.512ZM326.969 159.197C327.139 159.841 326.976 159.842 327.299 159.516C327.292 158.871 327.458 159.192 326.969 159.197ZM338.182 171.01C338.178 170.688 338.178 170.688 337.852 170.691L338.182 171.01ZM342.76 172.251C342.434 172.255 342.437 172.577 342.604 172.898C342.604 172.898 342.767 172.896 342.93 172.894C342.926 172.572 342.76 172.251 342.76 172.251ZM79.1968 176.687C79.2002 177.01 79.2002 177.01 79.3632 177.008L79.1968 176.687ZM359.833 198.514C359.839 199.159 359.673 198.838 360.162 198.833L359.833 198.514ZM104.961 207.695C105.276 206.724 104.784 206.407 104.794 207.374C104.635 207.698 104.798 207.697 104.961 207.695ZM264.731 208.241C264.401 207.922 264.401 207.922 264.408 208.567C264.734 208.563 264.571 208.565 264.731 208.241ZM311.603 216.124C311.925 215.798 311.929 216.12 311.603 216.124V216.124ZM266.644 219.508C266.651 220.153 266.485 219.832 266.974 219.827L266.644 219.508ZM126.39 229.718C126.556 230.039 126.556 230.039 126.553 229.717L126.39 229.718ZM304.087 214.592C303.921 214.271 303.921 214.271 303.924 214.594L304.087 214.592ZM356.197 133.083C356.353 132.437 356.357 132.759 356.19 132.438L356.197 133.083ZM368.859 67.1555C368.703 67.8022 368.699 67.4797 369.025 67.4762L368.859 67.1555ZM50.7697 49.2776C50.6136 49.9243 50.6102 49.6018 50.7732 49.6001L50.7697 49.2776Z" fill="#ECB942"/>
<path d="M32.6555 214.92C33.1238 212.98 33.2868 212.978 44.2081 212.861C45.6752 212.845 49.5908 213.126 49.5908 213.126C53.8566 215.66 59.378 213.666 61.8404 215.252C61.6981 217.189 60.7063 215.909 60.3975 217.525C60.727 217.844 60.8934 218.165 61.2195 218.161C65.1281 217.797 66.2588 216.817 67.0946 218.743C66.4564 220.04 65.6379 219.727 64.8229 219.735C61.8818 219.122 58.7986 220.445 55.8575 219.831C52.4241 218.901 51.1511 221.817 46.2609 221.869C42.5118 221.909 41.2078 221.923 39.4389 224.2C39.1232 225.171 38.9844 227.43 38.0029 227.118C33.914 225.872 29.8665 228.495 29.0411 227.536C28.6943 225.605 29.3291 223.986 29.6344 222.047C30.113 221.075 30.7512 219.778 31.3929 218.803C31.8715 217.831 32.1768 215.892 32.6555 214.92C32.8288 215.885 32.6762 216.855 33.1721 217.494C33.6611 217.489 34.1571 218.129 34.6392 217.479C33.9768 216.518 33.3144 215.558 32.6555 214.92ZM36.9212 217.454C39.5259 217.104 40.1986 219.032 43.2681 216.419C43.4311 216.417 43.4242 215.772 43.4173 215.127C36.4046 214.88 37.3861 215.192 36.9212 217.454Z" fill="#ECB942"/>
<path d="M349.559 228.618C353.131 227.289 352.989 229.226 354.452 228.888C356.401 228.222 359.849 230.442 360.66 230.111C361.631 229.456 362.627 231.058 363.598 230.402C364.569 229.747 366.383 231.662 367.853 231.969C368.831 231.959 369.82 232.916 370.805 233.55C370.971 233.871 371.141 234.514 371.314 235.48C368.425 239.703 364.947 234.58 360.07 235.923C352.593 237.938 329.245 234.64 325.968 233.063C325.961 232.418 325.954 231.773 326.11 231.126C327.893 230.14 333.92 229.753 338.828 231.313C344.065 233.192 345.528 232.853 347.297 230.577C347.127 229.934 347.474 231.865 348.129 232.181C350.904 232.473 349.427 231.522 350.418 232.801C350.418 232.801 350.581 232.799 350.578 232.477C349.916 231.516 350.249 232.158 349.559 228.618Z" fill="#ECB942"/>
<path d="M57.4612 19.5349C58.1029 18.5605 58.9214 18.8743 59.7364 18.8655C66.2635 19.4406 91.3249 15.302 105.992 14.8224C106.644 14.8154 107.296 14.8084 107.958 15.7688C107.799 16.093 107.799 16.093 107.639 16.4173C96.1143 21.0559 95.2544 16.8725 92.3479 19.4837C56.3513 22.4494 58.3074 22.4285 57.4612 19.5349Z" fill="#ECB942"/>
<path d="M141.697 15.0849C141.545 16.054 141.392 17.0232 141.229 17.0249C140.743 17.3527 140.098 18.0046 139.606 17.6874C136.658 16.4289 133.738 17.7502 130.963 17.4574C128.188 17.1647 125.421 17.5168 122.65 17.5465C120.694 17.5675 119.209 15.9708 114.988 17.6286C114.662 17.6321 113.192 17.3253 113.185 16.6804C113.133 11.8433 114.94 13.114 132.548 13.2478C137.768 13.5144 139.224 12.5313 141.697 15.0849Z" fill="#ECB942"/>
<path d="M371.738 229.348C375.005 229.958 378.442 231.211 381.722 233.111C382.048 233.107 382.222 234.073 382.551 234.392C382.711 234.068 383.037 234.064 380.113 235.063C381.122 237.955 382.419 237.296 383.571 238.251C384.722 239.206 385.863 239.194 387.008 239.504C387.188 241.115 386.869 241.763 386.55 242.412C385.617 246.614 388.568 248.195 377.082 241.223C376.097 240.589 375.108 239.632 374.123 238.997C373.763 235.776 374.099 236.74 372.778 235.142C372.767 234.174 372.282 234.502 375.535 233.822C374.529 231.253 373.555 231.586 371.911 230.313C371.748 230.315 371.894 228.701 371.738 229.348Z" fill="#ECB942"/>
<path d="M372.624 22.9312C371.337 24.5575 364.827 25.5948 364.827 25.5948C364.348 26.5674 364.029 27.2159 363.71 27.8643C363.058 27.8713 362.715 26.2624 361.893 25.6262C356.021 25.3666 354.891 26.3463 351.27 23.1599C351.253 21.5476 351.412 21.2234 351.901 21.2181C352.553 21.2111 367.876 21.047 367.876 21.047C371.625 21.0068 372.294 22.6122 372.624 22.9312Z" fill="#ECB942"/>
<path d="M388.777 145.957C387.15 146.297 385.524 146.637 383.734 146.979C383.932 150.202 387.66 148.227 388.992 150.793C387.056 152.748 379.222 151.865 376.433 150.282C373.975 149.018 374.158 150.951 372.986 148.061C371.648 144.851 377.19 144.791 379.142 144.448C382.399 144.09 385.659 144.056 388.777 145.957ZM377.543 147.368C378.213 148.973 379.021 148.319 379.666 147.667C378.837 146.386 378.182 146.071 377.543 147.368Z" fill="#ECB942"/>
<path d="M379.219 60.2718C378.556 59.3113 377.89 58.0284 377.235 57.7129C376.253 57.4009 375.799 60.6309 374.814 59.9965C374.485 59.6775 374.485 59.6775 374.46 57.4202C373.153 57.1117 372.012 57.1239 371.055 59.0692C369.244 57.476 368.429 57.4848 369.057 55.2205C375.078 54.1884 382.583 54.753 384.217 55.0581C384.386 55.7013 384.553 56.022 384.56 56.6669C384.74 58.2776 382.451 57.6571 383.96 61.511C383.627 60.8696 384.293 62.1525 382.68 63.7823C381.372 63.4738 379.898 62.8446 378.591 62.5361C379.066 61.2409 379.527 58.6559 379.219 60.2718Z" fill="#ECB942"/>
<path d="M181.502 17.561C180.184 16.2851 180.184 16.2851 179.837 14.3537C181.464 14.0138 204.281 13.4468 207.714 14.3776C203.178 17.0063 205.613 16.0126 202.023 15.7286C191.584 15.1954 188.99 16.5132 184.581 15.9154C183.444 16.2501 182.469 16.5831 181.502 17.561Z" fill="#ECB942"/>
<path d="M33.9221 196.201C33.3986 192.981 31.5951 192.033 47.0979 193.479C47.4343 194.443 47.1152 195.092 46.7892 195.095C44.3545 196.089 35.8886 197.147 33.9221 196.201Z" fill="#ECB942"/>
<path d="M333.844 222.658C337.243 220.364 337.767 223.584 338.571 222.608C340.507 220.652 343.947 222.228 348.036 223.474C348.199 223.472 348.206 224.117 348.376 224.76C347.897 225.733 337.132 225.203 334.181 223.622C334.018 223.624 334.011 222.979 333.844 222.658Z" fill="#ECB942"/>
<path d="M32.7528 208.791C33.5644 208.46 34.213 208.13 35.0245 207.799C35.0245 207.799 36.2699 202.303 37.1367 207.131C38.2847 207.764 39.4222 207.429 40.3968 207.096C42.9945 206.101 48.3703 205.721 49.8511 206.995C44.3331 209.312 38.4788 210.665 32.7528 208.791Z" fill="#ECB942"/>
<path d="M216.389 2.35175C221.307 4.87915 226.197 4.82676 201.257 5.09395C201.895 3.79707 202.391 4.43678 202.88 4.43154C214.613 3.98333 211.852 4.98044 216.389 2.35175Z" fill="#ECB942"/>
<path d="M391.327 216.56C391.198 219.786 390.539 219.148 385.791 217.264C381.21 215.701 380.877 215.059 380.374 213.775C380.842 211.834 380.86 213.447 387.879 214.339C389.02 214.327 390.168 214.96 391.327 216.56Z" fill="#ECB942"/>
<path d="M143.348 17.0022C144.153 16.0261 144.975 16.6623 145.949 16.3293C146.594 15.6774 147.562 14.6995 148.204 13.7251C155.712 14.6122 155.709 14.2897 155.563 15.9038C155.566 16.2263 154.921 16.8782 154.758 16.88C150.35 16.2822 150.381 19.1844 147.274 18.2502C146.126 17.6175 144.822 17.6314 143.348 17.0022Z" fill="#ECB942"/>
<path d="M332.388 223.641C331.437 226.232 330.754 223.336 328.479 224.006C327.667 224.337 326.696 224.992 325.878 224.679C324.241 224.051 322.614 224.391 320.974 223.441C318.675 221.853 326.006 221.452 332.211 222.353C332.377 222.674 332.381 222.996 332.388 223.641Z" fill="#ECB942"/>
<path d="M400.652 158.73C405.035 157.071 405.691 157.386 407.501 158.98C407.508 159.624 407.518 160.592 407.362 161.239C407.061 163.499 405.583 162.548 405.417 162.227C404.248 159.659 402.781 159.675 400.652 158.73Z" fill="#ECB942"/>
<path d="M189.521 5.21967C190.287 0.696307 191.137 3.91231 198.805 4.47518C195.392 5.47928 191.647 5.84192 189.521 5.21967Z" fill="#ECB942"/>
<path d="M285.416 23.8655C284.458 25.8108 283.446 22.5966 282.156 23.9004C281.51 24.5523 280.685 23.5937 279.877 24.2473C279.877 24.2473 279.374 22.9627 279.86 22.635C281.157 21.9761 285.381 20.6408 285.416 23.8655Z" fill="#ECB942"/>
<path d="M70.0149 217.422C70.9652 214.832 74.5859 218.018 77.6519 215.083C77.9745 214.757 78.1617 217.012 77.1906 217.668C75.8934 218.327 74.5756 217.051 71.4923 218.374C71.1663 218.377 70.5142 218.384 70.0149 217.422Z" fill="#ECB942"/>
<path d="M292.255 23.1472C293.212 21.2019 295.661 21.4981 296.975 22.4516C297.138 22.4498 297.475 23.4138 297.645 24.057C296.84 25.0331 296.018 24.3969 295.369 24.7264C294.721 25.0558 294.055 23.7729 293.563 23.4557C293.067 22.816 292.578 22.8212 292.255 23.1472Z" fill="#ECB942"/>
<path d="M33.5531 146.538C32.5923 148.161 29.9704 146.899 28.4861 145.302C28.3231 145.304 27.9833 144.017 28.4688 143.69C29.603 143.033 30.9277 144.953 32.0584 143.974C32.5543 144.613 33.3694 144.605 33.5531 146.538Z" fill="#ECB942"/>
<path d="M233.043 4.75341C235.582 -1.724 238.412 3.72836 237.441 4.38379C236.473 5.36169 237.285 5.03048 233.043 4.75341Z" fill="#ECB942"/>
<path d="M26.1035 227.245C25.1358 228.223 24.3105 227.265 23.3186 225.985C25.0978 224.676 25.4239 224.672 26.1035 227.245Z" fill="#ECB942"/>
<path d="M384.351 235.018C386.793 234.669 386.956 234.667 387.958 236.914C386.661 237.573 386.661 237.573 384.351 235.018Z" fill="#ECB942"/>
<path d="M91.4383 208.485C89.6729 211.084 89.8393 211.404 89.0001 209.156C88.9898 208.188 89.1424 207.219 89.1286 205.929C89.1182 204.962 89.6038 204.634 89.7702 204.955C90.4361 206.238 90.9355 207.2 91.4383 208.485Z" fill="#ECB942"/>
<path d="M383.834 171.489C384.964 170.509 384.468 169.869 386.795 174.037C385.661 174.694 384.683 174.705 383.698 174.07C383.535 174.072 383.365 173.429 383.199 173.108C383.199 173.108 382.88 173.756 383.834 171.489Z" fill="#ECB942"/>
<path d="M21.1995 226.008C21.0572 227.944 21.0572 227.944 20.5717 228.272C19.7567 228.281 19.0943 227.32 18.751 225.712C19.5626 225.38 20.3707 224.727 21.1995 226.008Z" fill="#ECB942"/>
<path d="M39.6792 200.976C35.6075 201.343 36.0999 201.66 35.9231 200.372C35.7532 199.728 36.7347 200.04 39.6722 200.332C39.6722 200.332 39.6757 200.654 39.6792 200.976Z" fill="#ECB942"/>
<path d="M275.299 23.0063C276.749 21.3782 276.912 21.3765 277.914 23.6233C276.471 25.8964 274.963 22.0424 275.299 23.0063Z" fill="#ECB942"/>
<path d="M334.304 22.0516C335.268 20.7513 336.908 21.7012 336.263 22.3532C335.941 22.6791 335.625 23.65 335.136 23.6553C334.81 23.6588 334.317 23.3415 334.304 22.0516Z" fill="#ECB942"/>
<path d="M30.7453 112.704C31.3835 111.407 32.2054 112.044 32.8643 112.681C33.0688 116.549 32.0769 115.27 30.7453 112.704Z" fill="#ECB942"/>
<path d="M344.225 217.709C340.802 217.746 341.454 217.739 341.124 217.42C341.443 216.772 340.791 216.779 344.221 217.387C344.384 217.385 344.384 217.385 344.225 217.709Z" fill="#ECB942"/>
<path d="M371.734 229.025C370.61 230.65 371.262 230.643 367.815 228.422C369.445 228.405 370.576 227.425 371.734 229.025Z" fill="#ECB942"/>
<path d="M69.4401 194.207C68.1533 195.834 67.8377 196.805 67.1511 193.587C68.9165 190.988 69.2874 195.177 69.4401 194.207Z" fill="#ECB942"/>
<path d="M88.5595 213.676C89.0347 212.381 89.6867 212.374 90.1792 212.691C90.3422 212.689 90.3491 213.334 90.5156 213.655C90.6855 214.298 89.3814 214.312 89.0554 214.315C88.8924 214.317 88.7225 213.674 88.5595 213.676Z" fill="#ECB942"/>
<path d="M46.848 33.1941C46.0329 33.2028 44.8988 33.86 45.2075 32.2442C45.5197 30.9508 46.5012 31.2628 46.848 33.1941Z" fill="#ECB942"/>
<path d="M53.4621 194.056C53.1534 195.672 51.8528 196.008 51.8424 195.041C51.8389 194.719 51.8355 194.396 51.9985 194.394C52.4771 193.422 52.4771 193.422 53.4621 194.056Z" fill="#ECB942"/>
<path d="M386.917 170.165C387.222 168.227 388.041 168.541 388.048 169.186C388.051 169.508 388.058 170.153 387.898 170.477C387.739 170.802 387.253 171.129 386.917 170.165Z" fill="#ECB942"/>
<path d="M372.848 211.275C372.196 211.282 371.544 211.289 370.892 211.296C370.715 210.008 371.204 210.003 371.367 210.001C373.164 210.304 372.529 211.923 372.848 211.275Z" fill="#ECB942"/>
<path d="M335.226 16.8816C334.581 17.5335 334.092 17.5388 333.433 16.9008C334.078 16.2489 334.73 16.2419 335.226 16.8816Z" fill="#ECB942"/>
<path d="M91.2015 232.031C89.731 231.724 89.8974 232.045 89.8905 231.4C91.3576 231.384 91.0316 231.387 91.2015 232.031Z" fill="#ECB942"/>
<path d="M226.523 4.82324C225.215 4.51474 225.378 4.51299 225.378 4.51299C226.683 4.49902 226.52 4.50077 226.523 4.82324Z" fill="#ECB942"/>
<path d="M350.336 225.062C350.828 225.379 350.675 226.348 350.346 226.029C350.02 226.033 349.853 225.712 350.01 225.065C350.173 225.063 350.336 225.062 350.336 225.062Z" fill="#ECB942"/>
<path d="M190.607 228.385C190.593 227.096 190.43 227.097 191.083 227.09L191.089 227.735C190.93 228.06 190.77 228.384 190.607 228.385Z" fill="#ECB942"/>
<path d="M388.288 222.075C388.285 221.753 388.281 221.43 388.444 221.428C388.767 221.102 388.93 221.101 389.259 221.42C389.592 222.061 388.958 223.68 388.288 222.075Z" fill="#ECB942"/>
<path d="M391.134 183.343C391.456 183.017 391.293 183.019 391.952 183.657C391.637 184.628 391.467 183.985 391.134 183.343Z" fill="#ECB942"/>
<path d="M376.769 75.1335C376.926 74.4868 375.632 75.4682 374.793 73.2196C374.314 74.1923 376.093 72.8832 376.769 75.1335Z" fill="#ECB942"/>
<path d="M319.976 23.8177C319.65 23.8212 319.474 22.5331 319.966 22.8503C320.129 22.8486 320.295 23.1693 320.462 23.49C320.462 23.49 320.139 23.816 319.976 23.8177Z" fill="#ECB942"/>
<path d="M31.4149 23.0391C30.9328 23.6893 31.2622 24.0083 30.5998 23.0478C31.2484 22.7184 31.0854 22.7201 31.4149 23.0391Z" fill="#ECB942"/>
<path d="M337.352 17.5039C338.503 18.4591 336.718 19.1232 337.03 17.8299C337.193 17.8281 337.356 17.8264 337.352 17.5039Z" fill="#ECB942"/>
<path d="M170.057 14.4586C170.386 14.7775 170.716 15.0965 170.556 15.4207C170.084 17.0384 169.089 15.4365 169.408 14.788C169.571 14.7863 169.894 14.4603 170.057 14.4586Z" fill="#ECB942"/>
<path d="M324.813 231.785C324.823 232.753 324.501 233.079 324.157 231.47C324.157 231.47 324.317 231.146 324.313 230.823C324.48 231.144 324.646 231.465 324.813 231.785Z" fill="#ECB942"/>
<path d="M172.349 15.4015L172.183 15.0808C172.346 15.079 172.342 14.7566 172.505 14.7548C172.672 15.0755 172.675 15.398 172.349 15.4015Z" fill="#ECB942"/>
<path d="M8.49955 44.8928C8.66255 44.891 8.6591 44.5686 8.8221 44.5668C9.31458 44.8841 8.99893 45.855 8.66601 45.2135C8.503 45.2153 8.503 45.2153 8.49955 44.8928Z" fill="#ECB942"/>
<path d="M381.113 130.559C381.439 130.555 381.435 130.233 381.442 130.878L381.113 130.559Z" fill="#ECB942"/>
<path d="M383.398 130.857C383.235 130.859 383.239 131.181 383.072 130.86C382.906 130.54 382.906 130.54 383.232 130.536C383.395 130.534 383.395 130.534 383.398 130.857Z" fill="#ECB942"/>
<path d="M391.596 150.442C391.6 150.765 391.6 150.765 391.274 150.768L391.596 150.442Z" fill="#ECB942"/>
<path d="M54.4338 178.243C53.4731 179.866 53.7956 179.54 53.2963 178.577C53.6188 178.251 53.2928 178.255 54.4338 178.243Z" fill="#ECB942"/>
<path d="M49.8725 193.772C49.8725 193.772 49.876 194.094 50.039 194.093C49.876 194.094 49.8794 194.417 49.7164 194.419C49.5499 194.098 49.7095 193.774 49.8725 193.772Z" fill="#ECB942"/>
<path d="M92.5451 205.248C92.2186 205.251 92.3818 205.249 92.3784 204.927L92.5451 205.248Z" fill="#ECB942"/>
<path d="M79.7582 213.771C79.4274 213.451 79.4274 213.451 79.7582 213.771V213.771Z" fill="#ECB942"/>
<path d="M375.467 212.215C375.137 211.895 375.3 211.893 375.467 212.215V212.215Z" fill="#ECB942"/>
<path d="M323.336 215.676L323.339 215.998C323.017 216.324 323.013 216.002 322.847 215.681C323.17 215.355 323.007 215.357 323.336 215.676Z" fill="#ECB942"/>
<path d="M299.048 231.094C298.718 230.775 298.718 230.775 299.044 230.771L299.048 231.094Z" fill="#ECB942"/>
<path d="M307.541 232.615C307.697 231.969 307.534 231.971 307.864 232.289C307.871 232.934 308.034 232.933 307.541 232.615Z" fill="#ECB942"/>
<path d="M382.388 234.394C382.551 234.392 382.555 234.714 382.718 234.713C382.229 234.718 382.548 234.069 382.388 234.394Z" fill="#ECB942"/>
<path d="M347.453 229.93C347.61 229.283 347.61 229.283 347.453 229.93V229.93Z" fill="#ECB942"/>
<path d="M90.3415 227.847C90.5115 228.49 90.5115 228.49 90.1854 228.494L90.3415 227.847Z" fill="#ECB942"/>
<path d="M93.8349 219.103C93.6678 218.781 93.6678 218.781 93.8349 219.103V219.103Z" fill="#ECB942"/>
<path d="M372.685 211.277C373.016 211.597 373.016 211.597 372.685 211.277V211.277Z" fill="#ECB942"/>
<path d="M349.192 209.593C348.866 209.597 348.703 209.599 348.859 208.952L349.022 208.95C349.192 209.593 349.199 210.238 349.192 209.593Z" fill="#ECB942"/>
<path d="M27.5205 207.234C27.5274 207.879 27.6881 207.555 27.3598 207.559L27.5205 207.234Z" fill="#ECB942"/>
<path d="M26.8262 112.101C26.9934 112.422 26.9968 112.744 26.8262 112.101V112.101Z" fill="#ECB942"/>
<path d="M24.8672 111.8C24.7104 112.446 24.7104 112.446 24.8672 111.8V111.8Z" fill="#ECB942"/>
<path d="M353.365 96.9924C353.362 96.6699 353.521 96.3457 353.521 96.3457C353.684 96.344 353.688 96.6665 353.365 96.9924Z" fill="#ECB942"/>
<path d="M383.963 61.8344C384.123 61.5089 384.123 61.5089 383.963 61.8344V61.8344Z" fill="#ECB942"/>
<path d="M292.088 22.8265C291.933 23.4731 292.251 22.8247 292.088 22.8265V22.8265Z" fill="#ECB942"/>
<path d="M288.35 23.834C288.343 23.1891 288.18 23.1908 288.51 23.5098L288.35 23.834Z" fill="#ECB942"/>
<path d="M235.168 126.962C235.327 126.638 235.32 125.993 235.48 125.669C235.958 124.696 236.312 127.272 235.66 127.279C235.5 127.604 235.334 127.283 235.168 126.962Z" fill="#ECB942"/>
</g>
<defs>
<clipPath id="clip0_1_1272">
<rect width="405.255" height="246.062" fill="white" transform="translate(0.565979 4.34143) rotate(-0.613813)"/>
</clipPath>
</defs>
</svg>
