<svg width="141" height="35" viewBox="0 0 141 35" fill="none" xmlns="http://www.w3.org/2000/svg">
<path d="M105.679 23.5623C108.177 23.3402 108.061 24.1174 108.874 23.7843C108.991 23.7843 109.107 24.0064 109.107 24.2284C109.223 23.8953 108.816 25.0055 108.874 24.7835C108.526 24.6725 108.177 24.6725 107.829 25.0055C107.713 25.1166 107.713 25.3386 107.596 25.6717C108.7 26.0047 111.314 25.6717 111.721 26.7819C111.663 27.67 111.43 27.559 110.385 27.781C110.385 28.0031 110.269 27.8921 111.024 28.2251C111.198 28.6692 111.082 28.6692 109.63 28.6692C108.932 28.6692 108.758 27.8921 108.003 28.0031C107.596 28.1141 107.248 27.559 106.841 27.781L105.679 23.5623ZM108.7 18.5664C108.874 18.5664 108.991 18.4554 109.107 18.8994C109.107 19.0105 109.049 19.1215 108.991 19.1215L108.7 18.5664ZM105.97 11.2391C107.538 11.5721 109.049 11.3501 110.617 11.5721C111.14 11.6831 111.082 11.6831 111.024 12.5713C112.128 13.5705 114.742 13.0154 116.31 13.6815C115.729 13.7925 115.381 14.1256 115.09 14.0146C114.626 13.7925 114.219 14.1256 113.928 14.9027C112.999 14.9027 112.65 14.4586 111.779 14.6807C111.663 14.6807 111.547 14.6807 111.43 14.5697C110.559 13.6815 108.816 14.2366 108.235 13.9035C107.48 13.4595 106.725 13.7925 105.97 13.6815V11.2391ZM13.1365 30.1125C13.1946 30.2235 13.3689 29.7794 13.3689 29.6684C13.3689 29.4463 13.2527 29.1133 13.1365 29.0023C13.0784 29.0023 13.1365 29.0023 12.8461 29.0023C12.7299 28.7802 12.4975 28.0031 11.9747 28.0031C10.5804 28.1141 9.18618 27.448 7.79194 27.8921C7.21101 28.0031 7.09482 27.2259 6.04914 28.2251C4.77108 27.1149 3.37684 27.337 1.86642 27.448C1.69214 27.448 1.63404 27.448 1.22739 26.6708C1.69214 26.1157 2.27307 26.6708 2.67972 26.3378C3.02828 25.4496 2.50544 24.2284 3.26066 24.0064C3.49303 23.8953 3.20256 24.0064 4.77108 23.7843C5.06155 23.0072 4.94536 21.5639 4.48062 21.4529C3.26066 21.1198 4.53871 21.6749 0.297896 20.6758C0.0074296 20.5647 -0.108757 19.6766 0.123616 19.5656C0.646456 19.2325 0.820737 19.3435 1.92451 19.3435C1.86642 18.8994 1.63404 19.0105 1.51786 18.7884C1.40167 18.5664 1.40167 18.3443 1.51786 18.0113C4.19015 17.4562 3.31875 17.2341 5.17774 17.2341C6.04914 17.2341 6.92054 16.679 7.79194 16.346C9.53474 15.5688 9.18618 16.679 9.8833 16.235C10.5804 15.7909 10.8709 17.1231 11.6261 16.0129L11.6842 16.1239C11.5099 16.0129 11.4518 15.6799 11.3356 15.5688C11.0452 15.4578 10.2319 15.9019 9.18618 15.2358C8.25669 14.5697 7.61766 15.2358 7.32719 14.6807C7.61766 14.2366 7.96622 14.5697 8.25669 14.4586C8.54715 14.3476 8.77953 14.2366 9.06999 14.2366C9.24427 12.4603 8.1405 12.9044 7.90813 12.6823C6.97863 11.9052 6.45579 12.3493 5.06155 12.4603C4.6549 11.6831 4.94536 11.9052 3.60922 11.7942C3.14447 11.7942 3.37684 10.795 3.55112 10.684C4.71299 9.90682 4.24824 11.017 4.77108 9.57376C5.41011 8.46356 11.2775 10.1289 12.4975 8.6856C12.788 8.35254 12.9622 8.57458 15.8088 8.79662C16.9707 8.90764 16.9707 9.46274 17.9583 9.35172C20.5144 9.01866 20.1077 9.35172 20.3982 8.35254C21.9086 7.0203 22.6638 8.1305 24.6971 7.0203C24.9295 6.90928 25.1618 6.90928 25.3942 6.79826C25.3942 6.35418 25.278 6.35418 25.2199 6.35418C23.0124 6.02112 18.3649 6.90928 17.4935 6.24316C17.5516 6.02112 17.5516 5.79908 17.6097 5.79908C18.0164 5.57704 18.4811 5.24398 18.8878 5.355C19.9915 5.68806 19.9915 5.46602 24.7552 5.24398C26.2656 5.24398 25.6847 4.35582 27.137 4.68888C29.4027 5.13296 37.0129 4.2448 38.93 5.24398C39.2204 5.355 39.569 5.46602 39.8595 5.355C40.208 5.24398 40.5566 5.46602 41.0213 5.57704C42.067 4.91092 42.4737 4.57786 42.9384 5.02194C43.1708 5.24398 43.4032 4.68888 43.9841 4.91092C46.3659 5.46602 47.063 4.7999 47.4116 4.91092C48.1668 5.355 48.8639 4.91092 48.9801 5.02194C49.6191 5.79908 51.42 4.35582 53.5114 5.57704C59.1465 2.69052 47.4697 3.91174 21.4439 4.2448C20.6306 4.2448 18.3649 4.68888 17.2612 4.57786C16.1574 4.46684 12.0328 4.46684 10.5804 5.02194C10.4642 5.24398 10.348 5.355 10.29 5.46602C9.18618 4.68888 7.50147 5.46602 6.33961 5.02194C6.3977 4.91092 6.45579 4.68888 6.45579 4.68888C7.44338 4.7999 8.43097 4.13378 9.41855 4.13378C9.99949 4.13378 9.94139 3.35664 11.2775 3.46766C12.6718 3.6897 12.6718 3.1346 15.3441 3.24562C16.9126 3.35664 16.564 3.46766 17.7259 1.91338C18.423 1.91338 18.2487 1.69134 18.6554 2.80154C20.9791 3.02358 53.7438 2.24644 53.7438 2.24644C54.6152 2.24644 54.3247 1.58032 55.719 1.58032C58.5655 1.58032 64.0844 1.58032 68.4995 1.58032C68.9061 1.58032 69.3128 1.24726 69.6614 1.35828C70.068 1.4693 70.4747 1.35828 70.8232 1.24726C71.6946 1.02522 71.6946 1.58032 72.6241 1.58032C79.8277 1.58032 79.5953 1.80236 79.6534 0.803182C79.3049 0.470122 78.9563 0.692161 78.6077 0.692161C77.3297 0.470121 78.3173 1.35828 76.4583 0.581141C76.4002 0.581141 76.3421 0.359102 76.2259 0.359102C76.284 0.248082 76.284 0.137062 76.3421 0.137062C79.7696 -0.307018 80.002 0.470122 82.0933 0.470122C84.4752 0.470122 84.4752 0.359101 84.7656 1.24726C85.9275 1.4693 85.4047 1.4693 85.9856 1.80236C87.2636 2.5795 87.0894 2.24644 88.716 2.35746C89.8778 2.35746 89.7036 2.69052 90.4588 2.91256C90.8073 3.02358 91.1559 2.91256 91.5045 3.02358C93.1311 3.91174 93.5958 2.80154 96.4424 3.57868C96.849 3.1346 97.3138 2.80154 97.7785 3.46766C97.7204 3.24562 97.8366 3.6897 97.8366 3.91174C97.9528 5.68806 100.799 3.57868 101.845 4.7999C102.484 5.57704 103.181 4.7999 104.285 4.35582C104.808 4.2448 105.854 4.46684 105.621 5.57704C105.098 6.13214 104.808 5.57704 101.555 5.79908C101.729 6.35418 101.497 5.9101 105.737 6.24316C110.327 6.57622 110.385 6.13214 111.605 6.57622C111.895 6.68724 110.966 6.57622 115.439 6.57622C120.9 6.68724 122.294 8.57458 127.697 7.68642C128.278 6.24316 128.336 6.4652 129.265 6.4652C129.846 7.46438 129.846 7.46438 130.427 7.5754C131.124 7.79744 133.274 7.5754 133.274 7.5754C134.319 7.35336 133.855 7.90846 137.921 7.79744C141.116 7.68642 140.535 7.79744 141 8.01948C141 8.35254 141 8.6856 140.884 8.6856C140.129 8.90764 136.353 9.01866 135.423 9.2407C135.307 9.2407 135.249 9.57376 135.191 9.68478C135.249 10.684 135.655 10.684 136.12 11.128C128.858 11.3501 131.066 11.128 130.892 12.2382C130.311 12.7933 129.556 12.3493 129.73 14.3476C129.904 14.4586 130.078 14.6807 130.253 14.7917C130.427 15.5688 129.788 15.4578 129.614 16.1239C130.02 16.346 130.369 16.679 130.659 17.3452C130.892 17.9003 131.357 17.9003 131.415 19.1215C131.531 18.6774 131.647 18.3443 131.705 18.0113C131.937 19.2325 131.705 18.5664 132.693 19.7876C132.867 20.0096 132.983 20.3427 132.983 20.8978C133.041 20.7868 133.215 20.7868 131.821 21.2309C131.647 21.4529 131.415 21.6749 131.415 22.4521C131.996 23.2292 131.705 23.2292 133.564 23.1182C133.68 23.1182 133.738 23.0072 133.913 22.7851C133.855 22.23 133.796 21.786 133.738 21.4529C133.738 21.4529 136.469 21.5639 136.817 21.786C136.933 21.786 137.05 22.119 136.992 22.3411C136.875 22.8962 136.875 22.7851 135.539 23.1182C135.016 23.2292 135.074 23.1182 135.074 24.4504C134.784 25.0055 134.435 24.2284 134.087 24.6725C134.145 24.8945 134.203 25.1166 134.261 25.2276C134.9 26.0047 134.726 25.3386 134.9 26.3378C133.738 27.0039 132.867 25.6717 132.809 27.0039C132.809 28.0031 132.809 28.0031 132.402 28.4472C131.415 26.8929 131.763 27.1149 130.95 27.337C130.717 28.5582 130.717 29.0023 130.137 28.8912C125.721 27.8921 127.232 27.2259 125.199 28.0031C125.082 28.4472 125.141 28.6692 125.315 28.8912V28.7802L13.1365 30.1125ZM9.0119 33.221C9.06999 33.11 9.12809 33.11 8.31478 33.221V33.332C7.79194 31.6667 3.95778 33.7761 2.38926 31.8888C2.50544 31.4447 2.50544 31.3337 2.62163 31.2227C6.04914 30.7786 6.51388 31.6667 7.61766 30.8896C7.61766 30.5565 7.61766 30.3345 7.55957 30.0014C7.96622 29.5574 8.43097 29.8904 8.83762 30.0014L9.0119 33.221ZM107.654 28.8912C108.352 28.8912 107.829 28.7802 109.92 29.4463C110.152 29.7794 110.211 30.3345 110.269 30.7786C110.211 31.3337 110.036 31.5557 109.862 31.6667C108.003 31.9998 107.771 31.6667 108.932 32.2218C108.991 32.6659 108.932 32.7769 108.816 32.7769C107.887 32.7769 106.957 32.6659 106.086 32.2218C105.214 32.888 106.028 32.6659 101.787 32.888C101.903 33.332 102.077 33.221 102.194 33.332C103.704 33.9982 103.646 34.1092 103.704 34.2202L107.654 28.8912ZM37.9424 7.68642C38.0005 7.79744 38.0586 7.90846 38.1167 7.90846C38.4652 7.90846 38.4071 7.46438 38.5233 7.35336C38.4071 7.68642 38.1748 7.35336 37.9424 7.68642ZM80.4086 1.24726V1.02522C80.6991 1.80236 81.3962 1.4693 81.6867 1.35828C81.2219 1.24726 80.8153 1.13624 80.4086 1.24726ZM8.77953 20.5647C8.60525 20.4537 8.48906 20.0096 8.25669 20.4537C8.48906 20.6758 8.66334 20.5647 8.77953 20.5647C8.72143 22.008 10.348 21.897 10.348 22.6741C10.348 23.2292 10.4642 23.6733 10.6966 23.6733C11.5099 23.8953 12.2651 24.1174 13.0784 23.7843C13.1365 23.7843 13.1946 23.5623 13.2527 23.4513C12.7299 22.4521 12.788 22.7851 13.0203 22.3411C13.3108 21.897 13.3108 21.786 13.1365 20.8978C10.4061 20.1207 9.70902 19.8986 8.77953 20.5647ZM124.037 29.6684V29.7794C123.804 29.2243 124.327 28.8912 124.269 28.3361C123.862 28.0031 123.514 27.559 123.165 27.2259C122.584 27.1149 121.713 27.67 120.784 27.0039C120.609 26.8929 119.215 26.8929 118.169 26.8929C118.111 26.8929 118.053 27.0039 117.995 27.1149C118.053 27.448 118.053 27.781 118.111 28.2251C117.007 28.8912 116.775 27.337 114.451 27.337C112.999 27.337 111.489 27.559 110.036 26.8929C108.991 26.8929 107.945 26.8929 106.957 27.1149C108.061 27.337 108.932 27.1149 109.223 27.448C109.804 28.0031 110.211 27.8921 112.883 28.0031C114.045 28.0031 113.231 28.5582 115.032 28.4472C116.485 28.3361 116.31 29.4463 117.588 29.5574C117.821 29.5574 119.099 29.8904 119.215 29.1133C119.389 27.67 119.854 27.781 120.435 28.1141C120.203 29.0023 120.261 28.7802 120.028 29.1133C119.97 29.2243 119.854 29.2243 119.854 29.5574C120.086 29.5574 120.319 29.6684 120.609 29.6684C122.41 29.6684 123.107 31.2227 124.037 29.6684ZM57.5198 7.79744C57.5779 7.46438 57.4618 7.24234 57.3456 7.24234C57.0551 7.13132 56.7065 7.0203 56.4161 7.13132C55.8932 7.35336 53.9181 6.79826 52.5819 7.13132C50.7229 7.5754 50.2001 7.13132 49.0963 7.68642C51.1296 8.46356 51.4781 7.79744 52.4076 8.46356C53.1628 8.90764 54.2666 8.46356 55.8351 8.57458C56.4742 8.57458 56.997 8.35254 57.5198 7.79744ZM115.207 12.4603C120.144 12.7933 114.858 12.3493 122.062 12.5713C123.804 12.6823 123.107 12.2382 124.153 12.0162C124.269 12.0162 124.269 12.0162 124.443 11.5721C124.269 11.5721 124.095 11.4611 123.979 11.4611C117.298 11.5721 117.356 11.2391 115.207 12.4603ZM126.186 20.8978C126.593 22.119 127.174 21.4529 127.697 22.119C128.103 23.2292 127.813 23.0072 129.033 23.3402C129.323 22.7851 129.556 22.4521 129.846 22.008C129.846 21.786 129.73 20.8978 129.439 20.7868C128.336 20.4537 127.29 20.5647 126.186 20.8978ZM125.954 13.1264C125.78 13.1264 125.605 13.6815 125.663 14.1256C125.721 14.7917 125.721 14.6807 128.626 14.7917C128.684 14.7917 128.742 14.6807 128.858 14.5697C128.626 12.9044 128.975 13.1264 125.954 13.1264ZM124.385 14.1256C124.269 13.7925 124.153 13.4595 123.979 13.4595C123.165 13.3484 122.41 13.3484 121.655 13.6815C121.481 13.7925 121.423 14.0146 121.364 14.4586C121.306 15.0137 124.153 14.5697 124.153 14.5697C124.211 14.5697 124.327 14.3476 124.385 14.1256ZM29.1703 8.24152C27.8922 8.01948 26.6723 8.57458 25.4523 8.57458C20.7468 8.57458 23.2448 9.90682 28.8798 8.57458C28.996 8.57458 29.0541 8.35254 29.1703 8.24152ZM104.575 31.0006C105.505 31.3337 105.563 31.0006 105.97 31.2227C106.667 31.5557 107.306 31.3337 107.945 31.1116C108.003 31.1116 108.003 31.0006 108.061 30.8896L104.575 31.0006ZM44.5069 7.68642C43.6936 7.24234 43.5774 7.68642 42.5318 7.46438C41.0213 7.24234 40.9632 7.68642 40.1499 7.24234C39.8014 7.13132 39.4528 7.13132 39.1043 7.35336C39.1043 7.35336 39.0462 7.46438 39.0462 7.5754C39.2204 8.1305 39.0462 8.01948 44.1003 7.90846C44.2165 7.90846 44.3327 7.79744 44.5069 7.68642ZM20.8048 28.2251C20.3982 28.1141 19.9915 27.8921 19.7592 28.8912C19.643 29.3353 19.4687 29.0023 19.4687 29.8904C19.4687 30.2235 20.3982 30.2235 20.8629 30.1125C20.8629 28.6692 20.8629 29.2243 20.8048 28.2251ZM23.6514 13.5705C25.0457 13.7925 26.498 13.9035 27.8922 13.4595C26.4399 13.2374 25.0457 13.2374 23.6514 13.5705ZM12.6718 14.1256C11.9747 13.4595 11.568 12.7933 10.929 13.2374C10.7547 13.3484 10.6385 13.6815 10.6385 14.0146C10.6385 14.4586 10.6966 14.4586 12.3232 14.3476C12.4394 14.3476 12.4975 14.2366 12.6718 14.1256ZM12.6718 18.6774C12.4394 18.4554 12.8461 18.4554 10.4642 18.2333C9.53474 18.1223 9.8833 19.0105 9.8833 19.0105C10.4642 19.1215 11.9166 19.0105 12.6718 18.6774ZM111.14 21.3419C111.256 22.8962 112.011 22.23 112.65 22.008C112.767 22.008 112.65 21.4529 112.592 21.3419C112.07 21.2309 111.605 21.2309 111.14 21.3419ZM13.2527 14.2366C13.8336 14.1256 14.5308 14.3476 14.1241 12.7933C13.6594 12.7933 13.9498 12.5713 13.2527 14.2366ZM37.4195 7.68642C34.5149 7.5754 34.5149 7.90846 37.0129 8.01948C37.071 8.01948 37.1872 7.90846 37.4195 7.68642ZM19.9915 27.2259C20.6306 27.448 20.6306 27.448 20.9791 27.1149C20.7468 26.5598 20.4563 26.4488 20.1077 26.6708C20.0496 26.6708 20.0496 27.0039 19.9915 27.2259ZM113.173 12.4603C112.709 12.4603 112.302 12.1272 111.895 12.4603C112.302 12.4603 112.709 12.4603 113.173 12.4603ZM62.6902 3.6897C62.7482 3.80072 62.6321 3.80072 63.7358 3.80072C63.7358 3.6897 63.9101 3.6897 62.6902 3.6897ZM93.3635 4.7999C93.712 5.02194 94.1187 4.91092 94.4672 4.91092C94.4091 4.7999 94.5253 4.7999 93.3635 4.7999ZM18.0164 15.9019C18.423 16.1239 18.7716 16.235 19.1782 16.0129C19.2363 16.0129 19.2363 15.7909 19.2944 15.6799C19.3525 15.4578 18.7716 15.2358 18.1906 15.5688C18.1326 15.5688 18.0745 15.6799 18.0164 15.9019ZM22.4896 27.2259C22.4315 26.5598 22.3734 26.4488 22.141 26.3378C22.0248 26.3378 21.9086 26.3378 21.8505 26.6708C21.7343 27.1149 22.1991 27.67 22.4896 27.2259ZM132.17 24.4504C133.215 24.5615 133.041 24.6725 133.157 24.3394C132.809 24.1174 132.46 24.0064 132.17 24.4504ZM84.5333 3.6897C84.8237 3.80072 85.1142 4.35582 85.3466 3.6897C85.0561 3.6897 84.7656 3.6897 84.5333 3.6897ZM98.3014 6.13214C98.5919 6.02112 98.8242 6.35418 99.1147 5.9101C98.8823 5.9101 98.6499 5.79908 98.3014 6.13214ZM65.3624 4.2448C65.1301 3.46766 64.9558 4.2448 65.0139 4.35582C65.2463 4.46684 65.2463 4.35582 65.3624 4.2448ZM118.227 22.119C118.111 21.897 117.937 21.786 117.763 22.119C117.937 22.119 118.111 22.119 118.227 22.119ZM24.8133 11.3501C24.6971 11.017 24.5228 10.906 24.2905 11.2391C24.5228 11.3501 24.6971 11.3501 24.8133 11.3501ZM7.50147 18.6774C7.50147 18.5664 7.44338 18.2333 7.21101 18.2333C6.92054 18.1223 6.97863 18.6774 7.15291 18.6774C7.2691 18.6774 7.38529 18.6774 7.50147 18.6774ZM120.667 21.0088C120.842 21.1198 121.016 21.2309 121.19 21.0088C121.016 20.7868 120.842 20.7868 120.667 21.0088ZM30.1579 8.35254C29.8674 8.24152 29.9255 8.24152 29.8093 8.24152C29.9255 8.46356 29.9836 8.57458 30.1579 8.35254ZM115.555 21.4529C115.439 21.4529 115.497 21.4529 115.555 21.4529C115.497 21.4529 115.439 21.4529 115.555 21.4529ZM17.3192 11.4611C17.3192 11.5721 17.2612 11.5721 17.2612 11.6831C17.2031 12.6823 17.4935 12.1272 17.3192 11.4611ZM109.862 29.4463C109.571 29.3353 109.688 29.3353 109.571 29.4463C109.688 29.4463 109.804 29.4463 109.862 29.4463ZM110.791 29.4463C110.675 29.4463 110.733 29.4463 110.791 29.4463C110.733 29.4463 110.675 29.4463 110.791 29.4463ZM61.993 3.80072C61.8768 3.80072 61.8768 3.80072 61.993 3.80072V3.80072ZM26.5561 6.68724C26.4399 6.57622 26.498 6.57622 26.498 6.68724H26.5561ZM32.9464 7.79744C32.8883 7.79744 32.8883 7.79744 32.9464 7.79744V7.79744ZM99.289 7.79744C99.4052 7.79744 99.4052 7.79744 99.289 7.79744V7.79744ZM15.9831 14.1256V14.0146C15.8669 14.0146 15.8669 14.1256 15.925 14.2366C15.925 14.2366 15.925 14.1256 15.9831 14.1256ZM8.08241 18.5664C7.96622 18.6774 7.96622 18.6774 8.08241 18.6774V18.5664ZM23.8838 20.2317C23.7676 20.2317 23.7676 20.3427 23.8257 20.4537C23.8257 20.4537 23.8838 20.4537 23.9419 20.4537C23.9419 20.3427 23.9419 20.3427 23.8838 20.2317ZM24.7552 20.2317V20.3427C24.8714 20.4537 24.9876 20.2317 24.8133 20.1207C24.8133 20.2317 24.8133 20.2317 24.7552 20.2317ZM124.966 21.0088C125.082 20.8978 125.082 21.0088 124.966 21.0088V21.0088ZM114.684 21.5639C114.684 21.5639 114.684 21.4529 114.626 21.4529C114.509 21.4529 114.509 21.5639 114.568 21.5639C114.626 21.5639 114.684 21.5639 114.684 21.5639ZM116.427 22.119C116.31 22.008 116.31 22.008 116.31 22.119H116.427ZM125.373 22.008C125.489 22.119 125.489 22.119 125.489 22.008H125.373ZM129.381 27.337C129.381 27.2259 129.381 27.1149 129.265 27.1149L129.207 27.2259C129.265 27.2259 129.323 27.2259 129.381 27.337ZM131.066 19.0105C131.008 19.2325 131.008 19.1215 131.124 19.1215L131.066 19.0105ZM17.784 11.6831C17.7259 11.9052 17.7259 11.7942 17.784 11.7942V11.6831Z" fill="#ECB942"/>
</svg>
