<svg width="44" height="45" viewBox="0 0 44 45" fill="none" xmlns="http://www.w3.org/2000/svg">
<g clip-path="url(#clip0_1_16)">
<path d="M22 44.625C34.144 44.625 44 34.769 44 22.625C44 10.481 34.144 0.625 22 0.625C9.856 0.625 0 10.481 0 22.625C0 34.769 9.856 44.625 22 44.625ZM29.8522 21.0538H33.0018V17.906H36.1515V21.0557H39.2737V24.2053H36.1515V27.355H33.0018V24.2053H29.8522V21.0538ZM15.7282 11.6232C18.5038 11.6232 21.0595 12.6003 23.0927 14.4887L20.1117 17.3817C18.9402 16.2358 17.336 15.6877 15.7282 15.6877C11.9222 15.6877 8.87883 18.8373 8.87883 22.6158C8.87883 26.3943 11.913 29.544 15.7282 29.544C18.6193 29.544 21.4848 27.85 21.9468 24.8158H15.7282V21.0373H26.0993C26.2148 21.6405 26.268 22.2437 26.268 22.8725C26.268 29.1535 22.0532 33.6232 15.7282 33.6232V33.625C9.625 33.625 4.72633 28.7007 4.72633 22.6232C4.72633 16.5457 9.625 11.6232 15.7282 11.6232Z" fill="#97BC59"/>
</g>
<defs>
<clipPath id="clip0_1_16">
<rect width="44" height="44" fill="white" transform="translate(0 0.625)"/>
</clipPath>
</defs>
</svg>
