<svg width="44" height="45" viewBox="0 0 44 45" fill="none" xmlns="http://www.w3.org/2000/svg">
<g clip-path="url(#clip0_1_5)">
<path d="M37.5537 7.06594C28.9609 -1.52429 15.0312 -1.52222 6.44094 7.07067C-2.14929 15.6636 -2.14722 29.5932 6.44566 38.1834C15.0386 46.7736 28.9682 46.7716 37.5584 38.1787C41.6839 34.0519 44.0009 28.4552 43.9997 22.6199C43.9984 16.7856 41.6798 11.1908 37.5537 7.06594ZM33.3179 31.2704C33.3169 31.2714 33.316 31.2724 33.315 31.2733V31.266L32.2003 32.3733C30.7587 33.8332 28.6591 34.4338 26.6636 33.9573C24.6531 33.4192 22.7418 32.5626 21.0023 31.42C19.3861 30.3871 17.8884 29.1797 16.5363 27.8193C15.2922 26.5843 14.1745 25.2282 13.1996 23.7713C12.1333 22.2037 11.2893 20.4959 10.6916 18.6966C10.0064 16.5829 10.5742 14.2636 12.1583 12.7053L13.4636 11.4C13.8265 11.0355 14.4162 11.0342 14.7807 11.3971C14.7816 11.398 14.7826 11.399 14.7836 11.4L18.9049 15.5213C19.2694 15.8842 19.2707 16.4739 18.9078 16.8384C18.9069 16.8394 18.9059 16.8403 18.9049 16.8413L16.4849 19.2613C15.7905 19.9481 15.7032 21.0396 16.2796 21.828C17.1548 23.0293 18.1234 24.1596 19.1763 25.2087C20.3501 26.3876 21.6262 27.46 22.9896 28.4134C23.7774 28.9629 24.8454 28.8703 25.5269 28.1934L27.8662 25.8174C28.2291 25.4529 28.8188 25.4516 29.1833 25.8145C29.1842 25.8154 29.1851 25.8164 29.1862 25.8174L33.3149 29.9534C33.6795 30.3162 33.6808 30.9059 33.3179 31.2704Z" fill="#97BC59"/>
</g>
<defs>
<clipPath id="clip0_1_5">
<rect width="44" height="44" fill="white" transform="translate(0 0.625)"/>
</clipPath>
</defs>
</svg>
