<svg width="18" height="19" viewBox="0 0 18 19" fill="none" xmlns="http://www.w3.org/2000/svg">
<path d="M8.4375 3.47168L8.4375 14.6933L4.34475 10.3963C4.13044 10.1713 3.77437 10.1626 3.54937 10.3769C3.32466 10.591 3.31566 10.947 3.52997 11.1723L8.20435 16.0796C8.41697 16.2919 8.69935 16.4092 9 16.4092C9.30038 16.4092 9.58303 16.2919 9.80494 16.0697L14.4698 11.172C14.5735 11.0632 14.625 10.9237 14.625 10.7842C14.625 10.6357 14.5665 10.4872 14.4504 10.3766C14.2254 10.1623 13.8696 10.1711 13.6553 10.3961L9.5625 14.711L9.5625 3.47168C9.5625 3.16118 9.3105 2.90918 9 2.90918C8.6895 2.90918 8.4375 3.16118 8.4375 3.47168Z" fill="black"/>
</svg>
