<svg width="1430" height="872" viewBox="0 0 1430 872" fill="none" xmlns="http://www.w3.org/2000/svg">
<path d="M369.469 139.622C363.985 137.487 358.197 136.877 352.408 137.487C347.229 142.366 338.09 143.586 331.083 144.196C324.076 137.182 315.241 130.777 306.406 126.202C300.618 123.153 293.611 120.103 291.783 113.698C288.736 103.634 271.371 99.3643 261.013 101.804C247.913 98.1443 232.986 102.719 222.323 111.563C217.753 115.223 222.932 124.678 226.893 129.252C230.853 133.827 236.032 138.707 234.813 144.501C229.939 146.941 223.237 147.246 218.058 146.941C214.707 146.941 211.66 146.026 208.614 147.246C205.872 147.856 203.435 151.211 204.348 153.956C202.216 157.615 199.779 159.445 202.216 163.105C204.044 165.85 207.395 167.985 207.395 171.339C207.395 174.084 205.262 176.219 202.825 177.134C200.388 178.354 197.951 178.964 195.514 180.184C188.507 184.453 188.507 194.518 189.421 202.752C193.99 208.242 194.6 217.696 192.467 224.406C191.553 226.846 190.335 229.59 191.249 232.335C192.163 235.385 195.818 236.3 198.56 237.215C204.958 238.74 212.574 240.265 217.448 235.995C230.853 225.016 251.569 230.505 268.63 234.47C274.418 235.69 280.511 237.825 284.167 243.009C288.736 249.719 286.909 258.868 282.948 265.883C279.292 272.897 273.809 279.302 271.371 286.927C269.239 294.246 269.848 301.871 270.457 309.19C271.371 318.339 272.285 328.099 277.464 335.723C282.948 343.653 286.604 355.547 285.995 365.001C285.69 372.626 282.948 380.555 283.557 388.18C284.776 402.209 296.962 412.883 309.453 419.593C322.553 426.607 333.52 438.806 338.09 452.835C340.222 459.85 341.136 467.474 342.964 474.489C346.315 486.993 353.931 497.972 363.985 506.207C371.296 512.001 383.178 514.136 392.622 515.661C397.496 516.576 402.675 517.186 406.026 520.541C407.55 522.066 408.768 523.895 410.596 525.42C418.212 533.045 432.531 529.995 440.147 537.315C442.28 539.144 443.498 541.889 445.326 544.024C450.201 549.819 457.817 553.173 465.129 552.563C463.301 558.358 470.308 565.068 468.175 570.557C466.347 575.132 461.473 576.962 457.817 580.317C451.724 586.111 450.81 595.566 453.247 603.495C455.989 611.424 461.473 617.829 466.956 624.234C477.314 635.823 489.805 641.312 501.077 651.987C511.435 661.746 513.872 677.91 511.435 691.939C508.998 705.968 502.905 719.387 498.64 733.111C490.414 758.729 488.282 786.788 496.203 812.406C504.124 838.024 522.707 860.898 547.384 870.962C550.126 872.182 553.477 870.047 555.609 867.912C557.742 865.777 558.047 862.117 556.523 859.678C551.954 851.443 544.033 844.429 538.244 837.109C536.417 834.669 534.589 832.229 534.589 829.18C534.893 825.825 537.635 823.385 539.768 820.945C542.814 816.981 544.642 812.101 544.642 806.916C544.642 802.037 541.9 797.462 541.9 792.887C542.205 788.312 544.642 783.128 549.212 781.603C551.344 780.993 553.477 780.993 555.609 780.078C562.007 777.333 561.093 767.269 565.663 762.084C567.795 759.644 571.147 758.425 573.888 756.9C586.379 750.8 596.737 738.906 597.956 725.182C598.87 714.203 594.909 700.783 603.135 693.464C610.751 686.754 622.632 691.329 632.686 689.499C636.646 688.889 639.388 684.924 641.521 681.265C643.349 677.605 643.653 673.335 643.044 669.066C642.13 663.881 639.997 659.001 640.607 654.122C641.216 647.107 647.004 641.312 651.269 635.823C656.448 629.113 660.104 621.184 661.932 612.949C664.065 603.495 657.972 592.211 649.442 587.636C640.911 583.061 630.858 582.756 621.109 582.451C611.36 582.147 601.002 581.537 593.081 575.742C585.77 570.557 581.809 562.323 576.021 555.308C566.272 543.719 552.258 537.315 538.549 530.91C533.37 528.47 527.582 526.03 522.403 527.86C520.27 528.47 518.442 529.995 516.31 530.3C510.217 531.52 505.342 525.725 500.163 522.98C488.891 516.881 473.049 525.725 471.831 538.229C466.042 540.364 455.38 538.534 452.029 533.35C449.591 529.69 448.677 524.505 444.717 522.676C442.584 521.761 439.843 522.066 438.015 520.541C434.968 518.101 437.405 513.221 438.015 509.561C438.929 503.462 434.359 497.667 428.571 494.922C423.087 492.178 416.385 491.873 410.292 491.873C404.199 491.568 397.496 491.263 392.013 488.518C381.045 483.028 376.78 468.389 381.35 457.105C386.224 445.821 398.41 439.111 410.596 439.416C422.478 439.721 434.968 448.566 434.968 460.46C434.968 463.51 439.843 463.815 442.584 462.29C445.326 460.765 446.545 457.715 447.154 454.97C447.763 451.92 447.763 448.871 448.677 446.126C450.81 439.416 457.512 434.537 464.519 434.537C471.831 434.537 477.01 427.217 482.189 422.337C487.368 417.153 490.414 409.528 488.282 402.514C487.063 398.854 484.626 394.889 485.845 391.229C486.759 388.18 489.805 386.655 492.547 385.435C500.468 382.08 508.998 380.555 517.528 380.86C524.84 381.165 528.8 376.59 532.456 370.186C535.198 365.611 536.417 359.817 540.682 356.767C547.079 352.192 556.219 356.157 564.14 355.547C575.716 354.632 584.856 341.518 581.505 330.539C579.981 325.049 576.326 320.779 573.279 316.205C569.014 309.8 566.272 302.48 564.749 295.161C563.226 288.146 562.921 280.522 558.351 275.337C551.344 275.642 542.509 275.337 536.417 278.692C535.198 271.373 533.675 263.748 529.41 257.953C524.84 252.159 516.31 248.804 509.912 252.464C503.819 256.124 502.296 264.663 503.514 271.678C504.733 278.692 507.475 285.707 507.475 292.721C507.17 300.041 502.296 307.97 494.984 307.665C491.328 307.665 487.977 305.225 485.235 302.48C481.58 298.821 478.533 293.941 473.659 291.501C470.003 289.671 465.738 289.671 461.777 288.756C448.068 285.707 438.624 270.153 442.584 256.429C446.24 243.01 462.387 234.47 475.791 238.74C491.938 232.945 498.335 212.512 491.938 196.653C485.54 180.794 468.175 171.034 451.115 170.119C446.24 169.814 441.061 170.424 436.187 169.205C422.478 165.85 415.166 150.601 403.285 142.976C396.278 138.097 378.303 142.976 369.469 139.622Z" fill="#97BC59"/>
<path d="M576.476 113.909C571.596 121.377 577.05 131.716 584.227 137.173C591.403 142.63 600.589 145.79 606.33 152.97C615.516 164.171 612.933 181.117 607.766 194.616C602.599 208.402 595.709 222.188 597.432 236.549C598.293 243.442 601.163 249.76 604.608 255.792C608.053 261.536 612.933 266.993 619.535 268.429C627.86 270.44 636.185 265.557 642.213 259.813C648.528 254.068 653.982 247.175 661.446 243.442C672.354 237.985 686.42 239.995 695.893 232.528C707.663 223.05 705.94 205.243 709.098 190.308C714.552 165.607 736.082 147.226 744.406 123.387C746.129 118.792 747.277 113.909 746.99 108.739C746.703 92.6556 733.211 79.4439 717.997 73.9869C699.338 67.381 680.392 71.402 661.446 70.5403C651.112 69.9659 639.629 65.6577 629.582 69.9659C614.081 76.5718 618.674 91.794 608.34 100.985C599.728 109.314 583.366 103.282 576.476 113.909Z" fill="#97BC59"/>
<path d="M991.837 198.216C982.371 189.058 966.799 197.911 957.028 206.765C947.258 215.618 937.487 224.166 927.716 233.02C920.388 239.736 912.449 246.452 902.678 247.979C892.908 249.505 881.305 243.4 881 233.63C887.717 227.219 900.846 236.683 906.953 229.967C912.449 223.861 904.51 215.313 897.488 211.344C884.664 204.017 871.534 196.385 856.573 194.248C841.916 192.111 825.123 197.3 817.49 209.817C811.077 220.808 812.299 234.851 805.581 245.842C801.612 252.558 794.895 257.443 790.315 264.159C785.735 270.57 783.903 280.34 789.399 286.14C793.979 290.72 801.612 290.72 806.192 295.299C809.551 298.963 810.772 304.763 815.352 306.595C820.543 308.732 826.344 303.847 827.566 298.352C828.787 292.857 826.955 287.056 826.039 281.561C823.291 265.075 831.84 244.621 848.329 242.178C851.993 242.178 853.519 247.674 851.687 251.032C849.855 254.39 846.802 256.832 844.97 260.191C841.611 266.602 845.581 275.455 852.298 277.287C859.626 279.119 871.534 277.592 870.618 284.919C869.702 292.857 855.046 287.667 850.466 294.078C847.718 297.741 850.161 303.237 850.161 307.816C850.161 316.975 840.084 322.775 830.924 323.691C821.764 324.302 812.604 321.554 803.444 322.47C794.284 323.386 784.513 329.797 784.819 338.956C772.3 344.756 759.17 349.641 745.735 353.305C746.346 363.074 764.972 363.99 764.972 374.064C764.972 379.865 757.644 383.223 751.537 382.613C745.735 382.307 739.629 379.865 733.827 381.391C723.751 384.139 720.393 397.877 725.889 406.731C731.385 415.279 742.682 418.942 753.064 418.026C757.033 417.721 761.613 416.5 764.056 413.447C766.498 410.394 766.804 406.12 767.72 402.456C770.162 393.908 777.185 386.887 785.735 385.055C790.62 383.834 796.421 383.834 799.169 379.56C810.161 385.665 818.1 397.267 819.322 409.784C822.986 414.363 830.924 408.562 830.008 402.762C829.092 396.961 824.207 392.992 820.238 388.718C816.268 384.444 812.909 378.033 815.963 373.148C834.894 378.644 850.161 395.129 854.435 414.363C861.153 413.142 864.817 403.983 860.847 398.488C862.985 393.908 870.313 396.656 872.45 400.93C874.587 405.204 874.282 411.005 877.641 414.973C886.496 426.575 910.617 412.531 917.945 425.048C923.136 433.902 911.533 444.281 901.152 443.976C891.076 443.671 881.61 437.87 871.534 436.954C860.237 435.733 849.245 440.618 838.252 441.839C826.955 443.06 813.215 438.786 810.772 427.796C810.161 424.743 810.467 421.69 808.94 418.942C806.803 415.279 801.612 414.363 797.337 414.973C778.712 417.111 759.781 436.344 744.209 425.659C734.438 444.892 710.316 451.914 696.882 469.01C682.225 487.328 683.447 515.72 697.798 534.343C711.843 552.965 737.186 561.819 760.392 558.766C765.582 558.155 771.384 556.934 776.269 559.071C781.154 561.208 784.208 565.788 788.483 569.146C792.452 572.504 799.475 574.336 802.833 570.062C798.864 579.831 800.085 591.127 805.581 599.98C811.688 609.444 822.986 616.771 822.68 628.067C822.68 633.868 819.322 639.058 817.49 644.553C810.161 670.197 840.39 690.957 845.275 717.212C846.497 724.234 846.496 732.782 852.603 736.751C855.351 738.583 858.71 738.888 862.069 739.193C878.862 740.414 900.236 735.224 903.594 718.739C904.51 714.159 903.9 709.275 903.9 704.39C904.205 690.041 913.06 676.303 925.884 669.892C929.243 668.06 933.212 666.839 935.96 664.092C942.067 657.986 940.845 647.911 937.487 639.973C934.433 632.036 929.853 624.098 930.769 615.55C932.601 601.812 947.258 594.79 958.25 586.547C975.043 574.336 986.341 555.102 989.394 534.648C974.127 539.532 955.196 543.501 943.594 532.511C939.624 528.542 937.181 523.657 934.739 518.467C927.411 503.203 920.388 488.243 913.06 472.979C912.144 470.842 911.228 468.705 911.839 466.568C913.976 461.072 922.525 465.652 925.579 470.537C937.181 488.549 947.563 507.172 956.723 526.71C975.348 523.352 993.363 515.414 1008.63 504.119C1013.52 500.455 1018.4 496.181 1019.93 490.381C1021.45 484.58 1018.4 476.948 1012.6 476.032C1010.16 475.727 1008.02 476.337 1005.58 476.337C991.531 477.864 979.318 467.178 969.852 456.188C976.265 449.166 987.562 453.135 996.417 457.104C1011.99 464.125 1028.17 469.315 1044.97 472.063C1049.24 472.674 1053.51 473.284 1057.18 475.421C1059.93 476.642 1062.06 478.779 1064.2 480.611C1083.44 498.318 1097.79 521.52 1105.12 546.859C1112.44 548.386 1117.64 539.533 1118.25 531.9C1118.86 524.268 1117.94 515.72 1123.44 510.53C1127.71 506.256 1134.73 505.95 1138.4 501.066C1142.98 495.265 1140.54 485.496 1146.03 480.306C1153.05 473.895 1164.05 481.832 1167.71 490.381C1171.37 498.929 1172.6 509.614 1180.53 514.804C1184.81 514.193 1188.78 513.583 1193.05 512.972C1193.05 534.037 1200.38 555.102 1213.51 571.893C1220.53 568.23 1217.48 557.239 1212.9 550.523C1208.32 543.807 1204.05 533.732 1210.46 528.847C1219.31 528.847 1223.28 541.059 1231.83 543.196C1240.38 545.333 1248.01 535.258 1246.49 526.405C1244.96 517.857 1237.63 511.446 1230 507.172C1222.98 499.539 1233.05 487.633 1243.13 485.801C1253.2 483.969 1264.2 487.022 1273.36 482.443C1284.35 476.948 1288.01 462.599 1285.57 450.693C1283.13 438.786 1276.1 428.406 1270.3 417.721C1265.42 408.562 1262.98 394.214 1272.44 390.245C1274.88 389.024 1277.94 389.329 1280.68 389.024C1317.02 387.497 1347.25 349.03 1339.92 313.311C1338.39 306.595 1335.95 299.878 1331.07 294.994C1322.52 286.14 1307.86 284.003 1301.14 273.623C1293.2 260.801 1302.97 243.705 1315.8 235.462C1328.32 227.219 1343.89 223.556 1355.8 214.092C1358.85 214.092 1360.68 211.039 1361.29 207.68C1361.6 205.849 1361.29 203.712 1361.29 201.88C1361.29 196.385 1365.26 191.195 1370.45 189.668C1375.64 188.142 1381.75 190.279 1384.8 195.163C1388.47 200.964 1386.94 208.291 1384.19 214.397C1381.45 220.503 1377.78 226.608 1377.17 233.02C1376.56 239.736 1380.22 247.368 1386.94 248.284C1395.19 249.2 1400.38 239.431 1400.99 231.493C1401.6 223.25 1400.07 214.397 1404.35 207.375C1411.06 196.995 1429.38 194.553 1429.99 182.036C1430.3 171.961 1417.78 166.161 1415.34 156.391C1414.42 152.423 1415.34 148.454 1415.64 144.18C1417.17 129.22 1410.45 113.345 1398.54 104.186C1386.64 94.7225 1370.15 91.6695 1355.49 96.5542C1350.91 98.0807 1346.33 100.523 1341.45 101.744C1334.42 103.576 1327.1 102.965 1319.77 102.66C1306.64 101.744 1293.81 100.828 1280.68 99.9124C1269.08 98.9965 1256.56 98.3859 1246.49 103.881C1231.53 111.819 1222.98 131.663 1205.88 133.494C1193.97 135.021 1183.28 126.778 1171.99 122.199C1153.97 115.177 1131.99 118.535 1117.02 130.747C1111.22 127.999 1113.06 119.451 1111.22 113.345C1109.09 106.934 1102.37 103.271 1095.65 102.66C1088.93 102.049 1082.52 104.186 1076.11 106.018C1062.37 110.598 1046.8 117.925 1045.58 132.273C1045.27 136.242 1046.19 140.516 1044.35 144.18C1041.91 149.37 1035.5 151.201 1031.53 155.17C1026.65 160.055 1026.03 167.382 1025.73 174.404C1025.42 181.12 1025.42 188.447 1021.45 194.248C1017.48 200.353 996.722 203.101 991.837 198.216Z" fill="#97BC59"/>
<path d="M1235.28 581.49C1238.15 585.798 1243.03 588.383 1247.91 590.393C1253.65 592.978 1260.83 594.701 1265.99 591.255C1269.44 588.957 1281.5 572.299 1282.36 568.852C1284.08 561.959 1281.78 562.246 1274.89 561.097C1263.41 558.513 1222.36 562.821 1235.28 581.49Z" fill="#97BC59"/>
<path d="M1194.8 579.192C1210.59 608.2 1243.32 627.156 1276.33 626.869C1278.63 624.571 1275.18 620.837 1272.31 619.689C1263.99 616.242 1255.09 614.519 1246.47 611.359C1237.86 608.487 1229.54 603.892 1224.37 596.424C1222.36 593.265 1220.93 589.819 1219.2 586.372C1214.32 576.607 1194.52 552.194 1182.17 558.225C1185.33 564.544 1190.79 572.012 1194.8 579.192Z" fill="#97BC59"/>
<path d="M1281.21 646.687C1276.9 651.569 1272.88 657.313 1266.86 658.749C1263.12 659.611 1259.39 658.749 1255.66 659.611C1244.75 662.196 1242.46 676.557 1244.75 687.471C1247.34 698.385 1252.22 709.586 1248.2 719.926C1247.34 721.936 1246.19 723.946 1246.19 726.244C1246.19 728.829 1248.2 731.127 1250.21 732.85C1259.97 740.318 1274.03 734.861 1284.94 729.116C1295.85 723.372 1308.77 716.766 1319.68 722.798C1331.16 729.116 1332.31 745.2 1339.48 756.114C1345.8 765.879 1359.58 771.624 1369.34 765.592C1372.78 763.582 1375.08 760.422 1377.37 757.263C1382.25 750.944 1387.13 744.339 1392.01 738.02C1398.62 729.691 1405.22 720.5 1406.37 709.873C1408.66 689.481 1390.58 673.11 1374.22 660.473C1373.36 653.867 1372.49 647.261 1369.05 641.517C1362.45 630.028 1348.67 628.88 1352.4 644.963C1341.78 645.251 1333.17 629.454 1321.11 628.018C1307.33 626.295 1290.4 636.347 1281.21 646.687Z" fill="#97BC59"/>
<path d="M812.354 492.845C812.354 501.775 805.102 509.03 796.177 509.03C787.252 509.03 780 501.775 780 492.845C780 483.915 787.252 476.659 796.177 476.659C805.102 476.659 812.354 483.915 812.354 492.845Z" fill="#B0CEF1"/>
<path d="M803 492.659C803 496.521 799.862 499.659 796 499.659C792.138 499.659 789 496.521 789 492.659C789 488.797 792.138 485.659 796 485.659C799.862 485.659 803 488.797 803 492.659Z" fill="white"/>
<path d="M867.817 495.797L851.997 505.098L836.014 495.797L851.997 486.659L867.817 495.797Z" fill="#FCD67A"/>
<path d="M867.817 495.797V514.888L851.997 524.026V505.098L867.817 495.797Z" fill="#ECB942"/>
<path d="M851.997 505.098V524.026L836.014 514.725V495.797L851.997 505.098Z" fill="#DE9D06"/>
<path d="M846.322 508.634L825.3 520.994L804.06 508.634L825.3 496.491L846.322 508.634Z" fill="#FCD67A"/>
<path d="M846.322 508.634V534.005L825.3 546.148V520.994L846.322 508.634Z" fill="#ECB942"/>
<path d="M825.3 520.994V546.148L804.06 533.788V508.634L825.3 520.994Z" fill="#DE9D06"/>
<path d="M867.817 522.835L851.997 532.136L836.014 522.835L851.997 513.697L867.817 522.835Z" fill="#FCD67A"/>
<path d="M867.817 522.835V541.926L851.997 551.064V532.136L867.817 522.835Z" fill="#ECB942"/>
<path d="M851.997 532.136V551.064L836.014 541.763V522.835L851.997 532.136Z" fill="#DE9D06"/>
<path d="M793.976 490.306C793.418 489.19 792.581 487.794 792.023 486.678" stroke="white" stroke-miterlimit="10"/>
<path d="M787.84 479.423C716.159 356.358 561.642 308.918 433.064 371.427" stroke="#B0CEF1" stroke-width="2" stroke-miterlimit="10" stroke-dasharray="2.95 2.95"/>
<path d="M429.438 373.38C428.322 373.939 426.928 374.776 425.812 375.334" stroke="white" stroke-miterlimit="10"/>
<path d="M1211.35 316.845C1211.35 325.775 1204.1 333.03 1195.18 333.03C1186.25 333.03 1179 325.775 1179 316.845C1179 307.915 1186.25 300.659 1195.18 300.659C1204.1 300.659 1211.35 307.915 1211.35 316.845Z" fill="#B0CEF1"/>
<path d="M1202 316.659C1202 320.521 1198.86 323.659 1195 323.659C1191.14 323.659 1188 320.521 1188 316.659C1188 312.797 1191.14 309.659 1195 309.659C1198.86 309.659 1202 312.797 1202 316.659Z" fill="white"/>
<path d="M1063.35 379.845C1063.35 388.775 1056.1 396.03 1047.18 396.03C1038.25 396.03 1031 388.775 1031 379.845C1031 370.915 1038.25 363.659 1047.18 363.659C1056.1 363.659 1063.35 370.915 1063.35 379.845Z" fill="#B0CEF1"/>
<path d="M1054 379.659C1054 383.521 1050.86 386.659 1047 386.659C1043.14 386.659 1040 383.521 1040 379.659C1040 375.797 1043.14 372.659 1047 372.659C1050.86 372.659 1054 375.797 1054 379.659Z" fill="white"/>
<path d="M1027.61 313.19L1005.92 325.945L984 313.19L1005.92 300.659L1027.61 313.19Z" fill="#FCD67A"/>
<path d="M1027.61 313.19V339.371L1005.92 351.903V325.945L1027.61 313.19Z" fill="#ECB942"/>
<path d="M1005.92 325.945V351.903L984 339.148V313.19L1005.92 325.945Z" fill="#DE9D06"/>
<path d="M1254.61 327.19L1232.92 339.945L1211 327.19L1232.92 314.659L1254.61 327.19Z" fill="#FCD67A"/>
<path d="M1254.61 327.19V353.371L1232.92 365.903V339.945L1254.61 327.19Z" fill="#ECB942"/>
<path d="M1232.92 339.945V365.903L1211 353.148V327.19L1232.92 339.945Z" fill="#DE9D06"/>
<path d="M1050.61 328.892L1032.9 339.307L1015 328.892L1032.9 318.659L1050.61 328.892Z" fill="#FCD67A"/>
<path d="M1050.61 328.892V350.27L1032.9 360.503V339.307L1050.61 328.892Z" fill="#ECB942"/>
<path d="M1032.9 339.307V360.503L1015 350.088V328.892L1032.9 339.307Z" fill="#DE9D06"/>
<path d="M1277.61 342.892L1259.9 353.307L1242 342.892L1259.9 332.659L1277.61 342.892Z" fill="#FCD67A"/>
<path d="M1277.61 342.892V364.27L1259.9 374.503V353.307L1277.61 342.892Z" fill="#ECB942"/>
<path d="M1259.9 353.307V374.503L1242 364.088V342.892L1259.9 353.307Z" fill="#DE9D06"/>
<path d="M1247.88 359.094L1235 366.662L1222 359.094L1235 351.659L1247.88 359.094Z" fill="#FCD67A"/>
<path d="M1247.88 359.094V374.629L1235 382.064V366.662L1247.88 359.094Z" fill="#ECB942"/>
<path d="M1235 366.662V382.064L1222 374.496V359.094L1235 366.662Z" fill="#DE9D06"/>
<path d="M572.354 626.845C572.354 635.775 565.102 643.03 556.177 643.03C547.252 643.03 540 635.775 540 626.845C540 617.915 547.252 610.659 556.177 610.659C565.102 610.659 572.354 617.915 572.354 626.845Z" fill="#B0CEF1"/>
<path d="M563 626.659C563 630.521 559.862 633.659 556 633.659C552.138 633.659 549 630.521 549 626.659C549 622.797 552.138 619.659 556 619.659C559.862 619.659 563 622.797 563 626.659Z" fill="white"/>
<path d="M322.615 201.48C323.452 200.364 324.288 199.248 325.404 198.132" stroke="white" stroke-miterlimit="10"/>
<path d="M330.703 191.992C419.118 93.7638 568.057 79.5318 673.486 160.18" stroke="white" stroke-miterlimit="10" stroke-dasharray="2.98 2.98"/>
<path d="M676.554 162.691C677.67 163.528 678.785 164.366 679.901 165.203C679.901 165.203 680.738 164.086 682.69 162.133" stroke="white" stroke-miterlimit="10"/>
<path d="M425 373.659C474.917 382.479 588.727 466.759 554.783 618.659" stroke="#B0CEF1" stroke-width="2" stroke-miterlimit="10" stroke-dasharray="3.02 3.02"/>
<path d="M524.459 576.765L503.501 589.087L482.327 576.765L503.501 564.659L524.459 576.765Z" fill="#FCD67A"/>
<path d="M524.459 576.765V602.057L503.501 614.163V589.087L524.459 576.765Z" fill="#ECB942"/>
<path d="M503.501 589.087V614.163L482.327 601.841V576.765L503.501 589.087Z" fill="#DE9D06"/>
<path d="M545.887 590.922L530.116 600.194L514.182 590.922L530.116 581.812L545.887 590.922Z" fill="#FCD67A"/>
<path d="M545.887 590.922V609.954L530.116 619.064V600.194L545.887 590.922Z" fill="#ECB942"/>
<path d="M530.116 600.194V619.064L514.182 609.792V590.922L530.116 600.194Z" fill="#DE9D06"/>
<path d="M448 374.159C448 384.918 439.259 393.659 428.5 393.659C417.741 393.659 409 384.918 409 374.159C409 363.401 417.741 354.659 428.5 354.659C439.259 354.659 448 363.401 448 374.159Z" fill="#ECB942"/>
<path d="M1317.35 667.845C1317.35 676.775 1310.1 684.03 1301.18 684.03C1292.25 684.03 1285 676.775 1285 667.845C1285 658.915 1292.25 651.659 1301.18 651.659C1310.1 651.659 1317.35 658.915 1317.35 667.845Z" fill="#B0CEF1"/>
<path d="M1308 667.659C1308 671.521 1304.86 674.659 1301 674.659C1297.14 674.659 1294 671.521 1294 667.659C1294 663.797 1297.14 660.659 1301 660.659C1304.86 660.659 1308 663.797 1308 667.659Z" fill="white"/>
<path d="M437 374.159C437 378.849 433.19 382.659 428.5 382.659C423.81 382.659 420 378.849 420 374.159C420 369.47 423.81 365.659 428.5 365.659C433.19 365.659 437 369.47 437 374.159Z" fill="white"/>
<path d="M1046.39 379.799C1045 379.241 1043.88 378.683 1042.49 378.403" stroke="white" stroke-miterlimit="10"/>
<path d="M1034.4 375.613C940.404 345.754 838.601 391.798 798.717 482.771" stroke="#B0CEF1" stroke-width="2" stroke-miterlimit="10" stroke-dasharray="3.03 3.03"/>
<path d="M797.044 486.678C796.486 488.073 795.928 489.19 795.37 490.585" stroke="white" stroke-miterlimit="10"/>
<path d="M1194.77 316.732C1193.38 316.173 1192.26 315.615 1190.87 315.336" stroke="white" stroke-miterlimit="10"/>
<path d="M1183.06 312.825C1130.34 298.593 1074.84 324.266 1051.41 373.659" stroke="#B0CEF1" stroke-width="2" stroke-miterlimit="10" stroke-dasharray="2.9 2.9"/>
<path d="M1049.74 377.566C1049.18 378.962 1048.62 380.078 1048.06 381.473" stroke="white" stroke-miterlimit="10"/>
<path d="M556.064 627.882C556.343 626.486 556.901 625.091 557.179 623.975" stroke="white" stroke-miterlimit="10"/>
<path d="M559.69 615.882C592.043 522.956 689.663 468.818 785.887 491.143" stroke="#B0CEF1" stroke-width="2" stroke-miterlimit="10" stroke-dasharray="3.03 3.03"/>
<path d="M790.071 492.259C791.465 492.538 792.86 493.096 793.975 493.375C793.975 493.375 794.812 492.259 796.765 490.306" stroke="white" stroke-miterlimit="10"/>
<path d="M802.901 484.446C845.574 444.819 1092.5 325.659 1296.5 661.159" stroke="#B0CEF1" stroke-width="2" stroke-miterlimit="10" stroke-dasharray="2.98 2.98"/>
<path d="M1289.39 685.54L1272.28 695.597L1255 685.54L1272.28 675.659L1289.39 685.54Z" fill="#FCD67A"/>
<path d="M1289.39 685.54V706.183L1272.28 716.064V695.597L1289.39 685.54Z" fill="#ECB942"/>
<path d="M1272.28 695.597V716.064L1255 706.007V685.54L1272.28 695.597Z" fill="#DE9D06"/>
<path d="M1306.88 697.094L1294 704.662L1281 697.094L1294 689.659L1306.88 697.094Z" fill="#FCD67A"/>
<path d="M1306.88 697.094V712.629L1294 720.064V704.662L1306.88 697.094Z" fill="#ECB942"/>
<path d="M1294 704.662V720.064L1281 712.496V697.094L1294 704.662Z" fill="#DE9D06"/>
<path d="M731.499 11.9995H645.037C641.411 11.9995 638.343 15.0692 638.343 18.6969C638.343 22.3247 641.411 25.3943 645.037 25.3943H731.499C735.125 25.3943 738.193 22.3247 738.193 18.6969C738.193 15.0692 735.125 11.9995 731.499 11.9995Z" fill="#B0CEF1"/>
<path d="M765.805 0H679.343C675.717 0 672.649 3.06964 672.649 6.69741C672.649 10.3252 675.717 13.3948 679.343 13.3948H765.805C769.431 13.3948 772.499 10.3252 772.499 6.69741C772.22 3.06964 769.431 0 765.805 0Z" fill="#B0CEF1"/>
<path d="M791.465 24.8362H705.003C701.377 24.8362 698.309 27.9058 698.309 31.5336C698.309 35.1613 701.377 38.231 705.003 38.231H791.465C795.091 38.231 798.159 35.1613 798.159 31.5336C798.159 27.9058 795.091 24.8362 791.465 24.8362Z" fill="#B0CEF1"/>
<path d="M1287.14 454.028H1357.42C1360.49 454.028 1362.72 451.517 1362.72 448.726C1362.72 445.657 1360.21 443.424 1357.42 443.424H1287.14C1284.07 443.424 1281.84 445.936 1281.84 448.726C1281.84 451.796 1284.07 454.028 1287.14 454.028Z" fill="#B0CEF1"/>
<path d="M1259.25 463.795H1329.53C1332.6 463.795 1334.83 461.284 1334.83 458.493C1334.83 455.424 1332.32 453.191 1329.53 453.191H1259.25C1256.18 453.191 1253.95 455.703 1253.95 458.493C1253.95 461.563 1256.46 463.795 1259.25 463.795Z" fill="#B0CEF1"/>
<path d="M1238.33 443.703H1308.62C1311.68 443.703 1313.91 441.192 1313.91 438.401C1313.91 435.331 1311.4 433.099 1308.62 433.099H1238.33C1235.26 433.099 1233.03 435.61 1233.03 438.401C1233.03 441.192 1235.26 443.703 1238.33 443.703Z" fill="#B0CEF1"/>
<path d="M1065.64 748.714H995.35C992.282 748.714 990.051 751.226 990.051 754.016C990.051 757.086 992.561 759.318 995.35 759.318H1065.64C1068.7 759.318 1070.94 756.807 1070.94 754.016C1070.94 751.226 1068.42 748.714 1065.64 748.714Z" fill="#B0CEF1"/>
<path d="M1093.25 738.947H1022.96C1019.89 738.947 1017.66 741.459 1017.66 744.249C1017.66 747.319 1020.17 749.551 1022.96 749.551H1093.25C1096.32 749.551 1098.55 747.04 1098.55 744.249C1098.55 741.459 1096.32 738.947 1093.25 738.947Z" fill="#B0CEF1"/>
<path d="M1114.45 759.318H1044.16C1041.09 759.318 1038.86 761.83 1038.86 764.62C1038.86 767.69 1041.37 769.922 1044.16 769.922H1114.45C1117.51 769.922 1119.74 767.411 1119.74 764.62C1119.74 761.551 1117.23 759.318 1114.45 759.318Z" fill="#B0CEF1"/>
<path d="M1109.11 618.426H1179.39C1182.46 618.426 1184.69 620.938 1184.69 623.728C1184.69 626.798 1182.18 629.031 1179.39 629.031H1109.11C1106.04 629.031 1103.81 626.519 1103.81 623.728C1103.81 620.938 1106.32 618.426 1109.11 618.426Z" fill="#B0CEF1"/>
<path d="M701.866 284.659H753.134C755.372 284.659 757 287.265 757 290.159C757 293.343 755.169 295.659 753.134 295.659H701.866C699.628 295.659 698 293.054 698 290.159C698 287.265 699.628 284.659 701.866 284.659Z" fill="#B0CEF1"/>
<path d="M1060.3 629.031H1130.58C1133.65 629.031 1135.88 631.542 1135.88 634.333C1135.88 637.402 1133.37 639.635 1130.58 639.635H1060.3C1057.23 639.635 1055 637.123 1055 634.333C1055 631.263 1057.51 629.031 1060.3 629.031Z" fill="#B0CEF1"/>
<path d="M504.186 8.09277H433.9C430.832 8.09277 428.601 10.6043 428.601 13.3949C428.601 16.4645 431.111 18.697 433.9 18.697H504.186C507.254 18.697 509.486 16.1855 509.486 13.3949C509.764 10.6043 507.254 8.09277 504.186 8.09277Z" fill="#B0CEF1"/>
<path d="M483.268 18.697H412.982C409.914 18.697 407.683 21.2086 407.683 23.9991C407.683 26.7897 410.193 29.3012 412.982 29.3012H483.268C486.336 29.3012 488.567 26.7897 488.567 23.9991C488.567 21.2086 486.336 18.697 483.268 18.697Z" fill="#B0CEF1"/>
<path d="M395.969 765.178H325.683C322.615 765.178 320.384 767.69 320.384 770.481C320.384 773.55 322.894 775.783 325.683 775.783H395.969C399.037 775.783 401.268 773.271 401.268 770.481C401.268 767.69 399.037 765.178 395.969 765.178Z" fill="#B0CEF1"/>
<path d="M75.5851 284.659H5.29933C2.2313 284.659 0 287.171 0 289.961C0 293.031 2.51021 295.263 5.29933 295.263H75.5851C78.6531 295.263 80.8844 292.752 80.8844 289.961C80.8844 287.171 78.6531 284.659 75.5851 284.659Z" fill="#B0CEF1"/>
<path d="M201.388 347.263H152.299C149.231 347.263 147 349.775 147 352.565C147 355.635 149.51 357.868 152.299 357.868H201.388C204.456 357.868 206.687 355.356 206.687 352.565C206.687 349.496 204.456 347.263 201.388 347.263Z" fill="#B0CEF1"/>
<path d="M413.388 680.263H364.299C361.231 680.263 359 682.775 359 685.565C359 688.635 361.51 690.868 364.299 690.868H413.388C416.456 690.868 418.687 688.356 418.687 685.565C418.687 682.496 416.456 680.263 413.388 680.263Z" fill="#B0CEF1"/>
<path d="M225.653 336.659H176.844C173.775 336.659 171.544 339.171 171.544 341.961C171.544 345.031 174.054 347.263 176.844 347.263H225.932C229 347.263 231.231 344.752 231.231 341.961C231.231 338.892 228.721 336.659 225.653 336.659Z" fill="#B0CEF1"/>
<path d="M437.653 669.659H388.844C385.775 669.659 383.544 672.171 383.544 674.961C383.544 678.031 386.054 680.263 388.844 680.263H437.932C441 680.263 443.231 677.752 443.231 674.961C443.231 671.892 440.721 669.659 437.653 669.659Z" fill="#B0CEF1"/>
<path d="M633.707 433.659H584.619C581.551 433.659 579.32 436.171 579.32 438.961C579.32 442.031 581.83 444.263 584.619 444.263H633.707C636.775 444.263 639.007 441.752 639.007 438.961C639.007 436.171 636.775 433.659 633.707 433.659Z" fill="#B0CEF1"/>
<path d="M623.388 444.263H574.299C571.231 444.263 569 446.775 569 449.565C569 452.635 571.51 454.867 574.299 454.867H623.388C626.456 454.867 628.687 452.356 628.687 449.565C628.687 446.775 626.177 444.263 623.388 444.263Z" fill="#B0CEF1"/>
<path d="M500.56 98.2286L481.315 109.67L461.792 98.2286L481.037 87.0663L500.56 98.2286Z" fill="#FCD67A"/>
<path d="M500.56 98.2285V121.39L481.315 132.553V109.67L500.56 98.2285Z" fill="#ECB329"/>
<path d="M481.315 109.67V132.553L461.792 121.39V98.2285L481.315 109.67Z" fill="#C35C3A"/>
</svg>
