<svg width="37" height="31" viewBox="0 0 37 31" fill="none" xmlns="http://www.w3.org/2000/svg">
<path d="M17.9018 27.9637C27.053 28.4918 31.0318 20.1749 29.0424 14.6304C27.5835 10.4059 23.7374 7.89769 18.0345 7.76568C13.9231 7.63366 9.81166 7.63366 5.70025 7.76568C3.18036 7.76568 0.793091 7.23762 0.793091 4.20132C0.793091 1.16502 3.04773 0.636963 5.70025 0.636963C12.5968 0.636963 19.3607 0.636963 26.2573 0.636963C31.4297 0.636963 34.6127 3.27723 35.1432 8.55776C35.8064 15.1584 36.2042 21.6271 36.7347 28.2277C36.8674 30.604 35.939 31.396 33.5517 31C28.5119 29.9439 23.2069 28.8878 17.9018 27.9637Z" fill="#88AA4E"/>
</svg>
