<svg width="37" height="31" viewBox="0 0 37 31" fill="none" xmlns="http://www.w3.org/2000/svg">
<path d="M19.7617 3.29973C10.6105 3.43174 5.836 8.84429 7.82539 15.973C8.8864 19.8014 11.6715 22.3096 15.5177 22.7057C19.7617 23.2337 24.1384 23.1017 28.3824 23.2337C29.8413 23.2337 31.4328 22.8377 32.6264 23.4978C33.9527 24.1578 35.5442 25.4779 35.9421 26.7981C36.34 28.5143 35.1463 30.2304 32.8917 30.3624C24.4036 30.3624 15.9156 30.4945 7.42751 30.3624C5.17287 30.3624 2.12247 26.402 1.72459 22.9697C0.928837 16.237 0.530959 9.37234 0.000454897 2.63967C-0.132171 0.395441 0.928837 -0.264625 3.05085 0.131414C8.35589 1.18752 13.7936 2.11161 19.7617 3.29973Z" fill="#88AA4E"/>
</svg>
