<svg width="50" height="40" viewBox="0 0 50 40" fill="none" xmlns="http://www.w3.org/2000/svg">
<g clip-path="url(#clip0_1_1781)">
<path d="M19.7617 3.29976C10.6105 3.43177 5.836 8.84432 7.82539 15.973C8.8864 19.8014 11.6715 22.3097 15.5177 22.7057C19.7617 23.2338 24.1384 23.1017 28.3824 23.2338C29.8413 23.2338 31.4328 22.8377 32.6265 23.4978C33.9527 24.1578 35.5442 25.478 35.9421 26.7981C36.34 28.5143 35.1463 30.2305 32.8917 30.3625C24.4036 30.3625 15.9156 30.4945 7.42751 30.3625C5.17287 30.3625 2.12247 26.4021 1.72459 22.9697C0.928837 16.2371 0.530959 9.37237 0.000454897 2.6397C-0.132171 0.395471 0.928837 -0.264595 3.05085 0.131445C8.35589 1.18755 13.7936 2.11164 19.7617 3.29976Z" fill="#88AA4E"/>
<path d="M30.9018 36.9637C40.053 37.4918 44.0318 29.1749 42.0424 23.6304C40.5835 19.4059 36.7374 16.8977 31.0345 16.7657C26.9231 16.6337 22.8117 16.6337 18.7003 16.7657C16.1804 16.7657 13.7931 16.2376 13.7931 13.2013C13.7931 10.165 16.0477 9.63696 18.7003 9.63696C25.5968 9.63696 32.3607 9.63696 39.2573 9.63696C44.4297 9.63696 47.6127 12.2772 48.1432 17.5578C48.8064 24.1584 49.2042 30.6271 49.7347 37.2277C49.8674 39.604 48.939 40.396 46.5517 40C41.5119 38.9439 36.2069 37.8878 30.9018 36.9637Z" fill="#88AA4E"/>
</g>
<defs>
<clipPath id="clip0_1_1781">
<rect width="50" height="40" fill="white"/>
</clipPath>
</defs>
</svg>
