<svg width="156" height="19" viewBox="0 0 156 19" fill="none" xmlns="http://www.w3.org/2000/svg">
<path d="M6.75994 18.216C5.67194 18.216 4.69594 18.024 3.83194 17.64C2.96794 17.24 2.27994 16.704 1.76794 16.032C1.27194 15.36 0.999938 14.616 0.951938 13.8H4.33594C4.39994 14.312 4.64794 14.736 5.07994 15.072C5.52794 15.408 6.07994 15.576 6.73594 15.576C7.37594 15.576 7.87194 15.448 8.22394 15.192C8.59194 14.936 8.77594 14.608 8.77594 14.208C8.77594 13.776 8.55194 13.456 8.10394 13.248C7.67194 13.024 6.97594 12.784 6.01594 12.528C5.02394 12.288 4.20794 12.04 3.56794 11.784C2.94394 11.528 2.39994 11.136 1.93594 10.608C1.48794 10.08 1.26394 9.368 1.26394 8.472C1.26394 7.736 1.47194 7.064 1.88794 6.456C2.31994 5.848 2.92794 5.368 3.71194 5.016C4.51194 4.664 5.44794 4.488 6.51994 4.488C8.10394 4.488 9.36794 4.888 10.3119 5.688C11.2559 6.472 11.7759 7.536 11.8719 8.88H8.65594C8.60794 8.352 8.38394 7.936 7.98394 7.632C7.59994 7.312 7.07994 7.152 6.42394 7.152C5.81594 7.152 5.34394 7.264 5.00794 7.488C4.68794 7.712 4.52794 8.024 4.52794 8.424C4.52794 8.872 4.75194 9.216 5.19994 9.456C5.64794 9.68 6.34394 9.912 7.28794 10.152C8.24794 10.392 9.03994 10.64 9.66394 10.896C10.2879 11.152 10.8239 11.552 11.2719 12.096C11.7359 12.624 11.9759 13.328 11.9919 14.208C11.9919 14.976 11.7759 15.664 11.3439 16.272C10.9279 16.88 10.3199 17.36 9.51994 17.712C8.73594 18.048 7.81594 18.216 6.75994 18.216ZM28.0701 11.064C28.0701 11.544 28.0381 11.976 27.9741 12.36H18.2541C18.3341 13.32 18.6701 14.072 19.2621 14.616C19.8541 15.16 20.5821 15.432 21.4461 15.432C22.6941 15.432 23.5821 14.896 24.1101 13.824H27.7341C27.3501 15.104 26.6141 16.16 25.5261 16.992C24.4381 17.808 23.1021 18.216 21.5181 18.216C20.2381 18.216 19.0861 17.936 18.0621 17.376C17.0541 16.8 16.2621 15.992 15.6861 14.952C15.1261 13.912 14.8461 12.712 14.8461 11.352C14.8461 9.976 15.1261 8.768 15.6861 7.728C16.2461 6.688 17.0301 5.888 18.0381 5.328C19.0461 4.768 20.2061 4.488 21.5181 4.488C22.7821 4.488 23.9101 4.76 24.9021 5.304C25.9101 5.848 26.6861 6.624 27.2301 7.632C27.7901 8.624 28.0701 9.768 28.0701 11.064ZM24.5901 10.104C24.5741 9.24 24.2621 8.552 23.6541 8.04C23.0461 7.512 22.3021 7.248 21.4221 7.248C20.5901 7.248 19.8861 7.504 19.3101 8.016C18.7501 8.512 18.4061 9.208 18.2781 10.104H24.5901ZM30.6186 11.352C30.6186 9.976 30.8986 8.776 31.4586 7.752C32.0186 6.712 32.7946 5.912 33.7866 5.352C34.7786 4.776 35.9146 4.488 37.1946 4.488C38.8426 4.488 40.2026 4.904 41.2746 5.736C42.3626 6.552 43.0906 7.704 43.4586 9.192H39.8346C39.6426 8.616 39.3146 8.168 38.8506 7.848C38.4026 7.512 37.8426 7.344 37.1706 7.344C36.2106 7.344 35.4506 7.696 34.8906 8.4C34.3306 9.088 34.0506 10.072 34.0506 11.352C34.0506 12.616 34.3306 13.6 34.8906 14.304C35.4506 14.992 36.2106 15.336 37.1706 15.336C38.5306 15.336 39.4186 14.728 39.8346 13.512H43.4586C43.0906 14.952 42.3626 16.096 41.2746 16.944C40.1866 17.792 38.8266 18.216 37.1946 18.216C35.9146 18.216 34.7786 17.936 33.7866 17.376C32.7946 16.8 32.0186 16 31.4586 14.976C30.8986 13.936 30.6186 12.728 30.6186 11.352ZM52.7841 18.216C51.5041 18.216 50.3521 17.936 49.3281 17.376C48.3041 16.8 47.4961 15.992 46.9041 14.952C46.3281 13.912 46.0401 12.712 46.0401 11.352C46.0401 9.992 46.3361 8.792 46.9281 7.752C47.5361 6.712 48.3601 5.912 49.4001 5.352C50.4401 4.776 51.6001 4.488 52.8801 4.488C54.1601 4.488 55.3201 4.776 56.3601 5.352C57.4001 5.912 58.2161 6.712 58.8081 7.752C59.4161 8.792 59.7201 9.992 59.7201 11.352C59.7201 12.712 59.4081 13.912 58.7841 14.952C58.1761 15.992 57.3441 16.8 56.2881 17.376C55.2481 17.936 54.0801 18.216 52.7841 18.216ZM52.7841 15.288C53.3921 15.288 53.9601 15.144 54.4881 14.856C55.0321 14.552 55.4641 14.104 55.7841 13.512C56.1041 12.92 56.2641 12.2 56.2641 11.352C56.2641 10.088 55.9281 9.12 55.2561 8.448C54.6001 7.76 53.7921 7.416 52.8321 7.416C51.8721 7.416 51.0641 7.76 50.4081 8.448C49.7681 9.12 49.4481 10.088 49.4481 11.352C49.4481 12.616 49.7601 13.592 50.3841 14.28C51.0241 14.952 51.8241 15.288 52.7841 15.288ZM70.5128 4.512C72.0968 4.512 73.3768 5.016 74.3528 6.024C75.3288 7.016 75.8168 8.408 75.8168 10.2V18H72.4568V10.656C72.4568 9.6 72.1928 8.792 71.6648 8.232C71.1368 7.656 70.4168 7.368 69.5048 7.368C68.5768 7.368 67.8408 7.656 67.2968 8.232C66.7688 8.792 66.5048 9.6 66.5048 10.656V18H63.1448V4.704H66.5048V6.36C66.9528 5.784 67.5208 5.336 68.2088 5.016C68.9128 4.68 69.6808 4.512 70.5128 4.512ZM79.1079 11.304C79.1079 9.96 79.3719 8.768 79.8999 7.728C80.4439 6.688 81.1799 5.888 82.1079 5.328C83.0359 4.768 84.0679 4.488 85.2039 4.488C86.0679 4.488 86.8919 4.68 87.6759 5.064C88.4599 5.432 89.0839 5.928 89.5479 6.552V0.24H92.9559V18H89.5479V16.032C89.1319 16.688 88.5479 17.216 87.7959 17.616C87.0439 18.016 86.1719 18.216 85.1799 18.216C84.0599 18.216 83.0359 17.928 82.1079 17.352C81.1799 16.776 80.4439 15.968 79.8999 14.928C79.3719 13.872 79.1079 12.664 79.1079 11.304ZM89.5719 11.352C89.5719 10.536 89.4119 9.84 89.0919 9.264C88.7719 8.672 88.3399 8.224 87.7959 7.92C87.2519 7.6 86.6679 7.44 86.0439 7.44C85.4199 7.44 84.8439 7.592 84.3159 7.896C83.7879 8.2 83.3559 8.648 83.0199 9.24C82.6999 9.816 82.5399 10.504 82.5399 11.304C82.5399 12.104 82.6999 12.808 83.0199 13.416C83.3559 14.008 83.7879 14.464 84.3159 14.784C84.8599 15.104 85.4359 15.264 86.0439 15.264C86.6679 15.264 87.2519 15.112 87.7959 14.808C88.3399 14.488 88.7719 14.04 89.0919 13.464C89.4119 12.872 89.5719 12.168 89.5719 11.352ZM98.5896 8.4C98.9896 7.344 99.6696 6.48 100.63 5.808C101.59 5.136 102.75 4.8 104.11 4.8C105.326 4.8 106.406 5.072 107.35 5.616C108.31 6.16 109.054 6.936 109.582 7.944C110.126 8.952 110.398 10.128 110.398 11.472C110.398 12.816 110.126 14 109.582 15.024C109.054 16.032 108.31 16.816 107.35 17.376C106.406 17.92 105.326 18.192 104.11 18.192C102.75 18.192 101.582 17.856 100.606 17.184C99.6456 16.512 98.9736 15.648 98.5896 14.592V18H97.5096V0.24H98.5896V8.4ZM109.294 11.472C109.294 10.288 109.07 9.264 108.622 8.4C108.174 7.536 107.542 6.88 106.726 6.432C105.926 5.968 104.998 5.736 103.942 5.736C102.934 5.736 102.022 5.976 101.206 6.456C100.39 6.92 99.7496 7.592 99.2856 8.472C98.8216 9.336 98.5896 10.336 98.5896 11.472C98.5896 12.624 98.8216 13.64 99.2856 14.52C99.7496 15.384 100.39 16.056 101.206 16.536C102.022 17 102.934 17.232 103.942 17.232C104.998 17.232 105.926 17 106.726 16.536C107.542 16.072 108.174 15.408 108.622 14.544C109.07 13.68 109.294 12.656 109.294 11.472ZM120.354 18.192C119.138 18.192 118.042 17.92 117.066 17.376C116.09 16.832 115.322 16.056 114.762 15.048C114.218 14.024 113.946 12.832 113.946 11.472C113.946 10.128 114.226 8.952 114.786 7.944C115.346 6.92 116.114 6.144 117.09 5.616C118.082 5.072 119.186 4.8 120.402 4.8C121.618 4.8 122.714 5.072 123.69 5.616C124.666 6.144 125.426 6.912 125.97 7.92C126.53 8.928 126.81 10.112 126.81 11.472C126.81 12.832 126.53 14.024 125.97 15.048C125.41 16.056 124.634 16.832 123.642 17.376C122.666 17.92 121.57 18.192 120.354 18.192ZM120.354 17.232C121.298 17.232 122.178 17.024 122.994 16.608C123.826 16.176 124.49 15.528 124.986 14.664C125.482 13.8 125.73 12.736 125.73 11.472C125.73 10.224 125.482 9.168 124.986 8.304C124.49 7.44 123.834 6.8 123.018 6.384C122.202 5.952 121.322 5.736 120.378 5.736C119.434 5.736 118.554 5.952 117.738 6.384C116.938 6.8 116.29 7.44 115.794 8.304C115.298 9.168 115.05 10.224 115.05 11.472C115.05 12.736 115.29 13.8 115.77 14.664C116.266 15.528 116.914 16.176 117.714 16.608C118.53 17.024 119.41 17.232 120.354 17.232ZM136.783 18.192C135.567 18.192 134.471 17.92 133.495 17.376C132.519 16.832 131.751 16.056 131.191 15.048C130.647 14.024 130.375 12.832 130.375 11.472C130.375 10.128 130.655 8.952 131.215 7.944C131.775 6.92 132.543 6.144 133.519 5.616C134.511 5.072 135.615 4.8 136.831 4.8C138.047 4.8 139.143 5.072 140.119 5.616C141.095 6.144 141.855 6.912 142.399 7.92C142.959 8.928 143.239 10.112 143.239 11.472C143.239 12.832 142.959 14.024 142.399 15.048C141.839 16.056 141.063 16.832 140.071 17.376C139.095 17.92 137.999 18.192 136.783 18.192ZM136.783 17.232C137.727 17.232 138.607 17.024 139.423 16.608C140.255 16.176 140.919 15.528 141.415 14.664C141.911 13.8 142.159 12.736 142.159 11.472C142.159 10.224 141.911 9.168 141.415 8.304C140.919 7.44 140.263 6.8 139.447 6.384C138.631 5.952 137.751 5.736 136.807 5.736C135.863 5.736 134.983 5.952 134.167 6.384C133.367 6.8 132.719 7.44 132.223 8.304C131.727 9.168 131.479 10.224 131.479 11.472C131.479 12.736 131.719 13.8 132.199 14.664C132.695 15.528 133.343 16.176 134.143 16.608C134.959 17.024 135.839 17.232 136.783 17.232ZM154.244 18L148.556 12.024V18H147.476V0.24H148.556V10.872L154.148 4.968H155.66L149.348 11.448L155.732 18H154.244Z" fill="black"/>
</svg>
